<svg xmlns="http://www.w3.org/2000/svg" width="24" height="24" fill="none"><g fill="#fff" clip-path="url(#a)"><path d="M14.694 2.828c0 .915-.433 1.807-1.181 2.342a2.613 2.613 0 0 1-2.547.272c-.827-.361-1.421-1.139-1.6-2.018a2.942 2.942 0 0 1 .706-2.572 2.64 2.64 0 0 1 2.43-.804c.88.174 1.614.811 1.961 1.632.154.362.231.755.231 1.148Zm7.891 3.568a92.367 92.367 0 0 1-3.522-.094l-.85-.038c-.286-.012-.573-.01-.858-.015a359.93 359.93 0 0 1-1.97-.041 132.161 132.161 0 0 1-2.35-.073l-.195-.007c-.074-.003-.145-.012-.218-.02-.148-.017-.298-.01-.447-.016a3.848 3.848 0 0 0-.394.002c-.129.002-.26 0-.387.012-.068.007-.134.018-.202.02l-.21.009a154.475 154.475 0 0 1-2.833.083c-.659.015-1.317.027-1.976.039-.568.01-1.134.042-1.701.063-.625.023-1.25.045-1.875.059-.29.007-.581.011-.872.014-.213.003-.43-.012-.635.056a1.067 1.067 0 0 0-.725 1.026c.01.456.324.866.763.993.21.06.433.04.649.044.29.004.582.008.873.015a131.105 131.105 0 0 1 2.715.094c.166.008.333.021.499.022-.013 0-.028.002-.04 0 .07.013.15.01.221.016l.489.038c.33.025.658.05.987.077.326.025.652.052.978.079l.49.041c.032.003.045-.047.06-.075a6.523 6.523 0 0 1 .4-.65c.044-.062.098-.15.168-.185-.106.312-.213.624-.314.937.013.001-.006.047-.01.06a11.597 11.597 0 0 0-.061.231 10.056 10.056 0 0 0-.2.989c-.079.508-.124 1.02-.144 1.534a18.854 18.854 0 0 0 .057 2.292c.002.023.03.174.014.18l-.088.031-1.185.428-1.84.664-1.585.572-.413.149c-.167.06-.335.114-.486.209a1.398 1.398 0 0 0-.65 1.12l-.01.253-.06 1.492c-.025.659-.052 1.317-.078 1.976l-.058 1.457c-.003.083-.008.167-.01.25-.007.465.276.903.703 1.087a1.18 1.18 0 0 0 1.279-.24c.19-.189.29-.426.34-.685l.253-1.35.358-1.905.127-.679.035-.187c.001-.005.006-.053.012-.055l.784-.216 1.718-.476 1.882-.52 1.276-.353.133-.037c.064-.017.124-.002.191.002a6.334 6.334 0 0 0 1.14-.03 3.453 3.453 0 0 0 .166-.027l.055.048.362.31c.746.637 1.498 1.266 2.252 1.892l-.006-.006c.003.004.014.01.015.015-.004-.022-.063-.064-.077-.078.728.714 1.457 1.427 2.194 2.133a133.39 133.39 0 0 0 2.288 2.155c.063.058.125.118.195.168.198.146.442.225.688.226.493 0 .944-.322 1.103-.788a1.18 1.18 0 0 0-.193-1.105 78.243 78.243 0 0 0-.58-.74c-.78-.982-1.577-1.951-2.376-2.919-.314-.38-.632-.757-.948-1.136-.237-.283-.5-.546-.75-.818a145.453 145.453 0 0 0-1.968-2.089l-.081-.084-.04-.041.006-.053a9.617 9.617 0 0 0 .06-.714c.062-1.113.044-2.237-.129-3.34a10.467 10.467 0 0 0-.237-1.12c-.111-.358-.236-.713-.357-1.069.06.03.107.102.147.154.074.098.141.201.206.306.076.123.148.249.217.376.014.028.027.078.06.075l.115-.01.254-.021c.653-.056 1.306-.106 1.96-.157l.551-.042c.097-.007.201-.005.297-.022-.012.002-.027 0-.04 0 .212-.001.425-.018.636-.028.322-.014.645-.027.967-.039a76.32 76.32 0 0 1 1.852-.054c.28-.004.56-.011.84-.012.216-.001.419-.013.616-.11.413-.205.65-.668.574-1.123a1.066 1.066 0 0 0-1.036-.881Z"/></g><defs><clipPath id="a"><path fill="#fff" d="M0 0h24v24H0z"/></clipPath></defs></svg>