<svg xmlns="http://www.w3.org/2000/svg" width="61" height="48" fill="none"><path fill="#FDCB50" d="M51.224 22.8c0 3.292-1.22 6.299-3.235 8.591l-8.614-2.434-8.922-6.157-2.727-7.685A12.981 12.981 0 0 1 38.22 9.784c7.182 0 13.003 5.827 13.003 13.016Z"/><path fill="#FD8F01" d="M47.99 31.391a11.795 11.795 0 0 0-1.839-1.272c-.29-7.21-6.24-12.986-13.514-12.986-.82 0-1.628.071-2.42.214a18.035 18.035 0 0 0-2.491-2.232 12.966 12.966 0 0 0-2.508 7.685c0 7.188 5.822 13.015 13.003 13.015 3.893 0 7.385-1.711 9.768-4.424Z"/><path fill="#3BD5DD" d="M40.157 33.009a8.479 8.479 0 0 0 .302-2.25c0-4.683-3.793-8.479-8.471-8.479a8.43 8.43 0 0 0-3.739.868 12.506 12.506 0 0 0-10.68-5.99c-6.914 0-12.519 5.61-12.519 12.532 0 .585.04 1.16.118 1.724a8.194 8.194 0 0 0-3.977 7.03c0 4.528 3.667 8.198 8.19 8.198h29.818a6.846 6.846 0 0 0 6.843-6.85 6.85 6.85 0 0 0-5.885-6.783Z"/><path fill="#27A2CC" d="M12.753 19.7c0-.536.014-1.069.043-1.598a12.535 12.535 0 0 0-7.628 13.312 8.194 8.194 0 0 0-3.977 7.03c0 4.528 3.667 8.198 8.19 8.198h21.072c-10.412-4.499-17.7-14.868-17.7-26.942Z"/><path fill="#FD6050" d="M38.221 0c-.657 0-1.191.533-1.191 1.191v2.924a1.191 1.191 0 0 0 2.383 0V1.191C39.413.533 38.879 0 38.22 0Zm21.588 21.608h-2.921a1.191 1.191 0 0 0 0 2.383h2.92a1.192 1.192 0 0 0 0-2.383ZM51.547 7.775l-.97.97a1.191 1.191 0 0 0 1.686 1.685l.97-.97a1.191 1.191 0 0 0-1.686-1.685Zm.716 27.395a1.191 1.191 0 1 0-1.685 1.684l.969.97a1.187 1.187 0 0 0 1.685.001 1.191 1.191 0 0 0 0-1.685l-.969-.97ZM24.896 7.775A1.191 1.191 0 1 0 23.21 9.46l.97.97a1.187 1.187 0 0 0 1.684.002 1.191 1.191 0 0 0 0-1.685l-.968-.97Z"/><path fill="#95DEF8" d="M39.199 47.833H9.38c-5.172 0-9.38-4.212-9.38-9.388a9.452 9.452 0 0 1 3.905-7.624 13.91 13.91 0 0 1-.046-1.131c0-7.567 6.15-13.723 13.71-13.723 4.462 0 8.548 2.112 11.124 5.698a9.577 9.577 0 0 1 3.295-.576c5.327 0 9.662 4.338 9.662 9.67 0 .451-.031.9-.093 1.345 3.31 1.02 5.676 4.13 5.676 7.688 0 4.434-3.604 8.041-8.034 8.041ZM17.569 18.35c-6.246 0-11.327 5.087-11.327 11.34 0 .522.036 1.047.106 1.562a1.19 1.19 0 0 1-.566 1.183 6.959 6.959 0 0 0-3.4 6.01c0 3.862 3.14 7.005 6.998 7.005H39.2c3.116 0 5.651-2.538 5.651-5.658 0-2.806-2.089-5.215-4.858-5.604a1.19 1.19 0 0 1-.984-1.494 7.317 7.317 0 0 0 .26-1.935c0-4.018-3.266-7.288-7.28-7.288a7.2 7.2 0 0 0-3.212.746 1.191 1.191 0 0 1-1.543-.446c-2.079-3.395-5.692-5.421-9.664-5.421Z"/></svg>