<svg xmlns="http://www.w3.org/2000/svg" width="21" height="22" fill="none"><path fill="#fff" d="M7.05 19.378a2.654 2.654 0 0 0 1.733 2.465c1 .377 2.204.056 2.887-.768a2.684 2.684 0 0 0 .627-1.663v-.037H7.05v.003Zm12.294-2.791a1.816 1.816 0 0 0-1.214-1.675 1.623 1.623 0 0 0-.42-.087v-3.644a4.923 4.923 0 0 1-.266.089c-.007.002-.015.004-.02.007l-.084.025-.116.032a5.781 5.781 0 0 1-3.773-.306c-.02-.01-.041-.018-.061-.027l-.106-.05c-.003 0-.005-.002-.005-.002a1.338 1.338 0 0 1-.084-.042s-.002 0-.002-.003a2.204 2.204 0 0 1-.077-.04l-.042-.021a.435.435 0 0 1-.032-.018l-.047-.024a1.108 1.108 0 0 0-.054-.03c-.008-.005-.015-.007-.02-.012l-.064-.037-.022-.013c-.028-.014-.052-.032-.08-.049a3.28 3.28 0 0 1-.157-.104l-.042-.03-.045-.029-.071-.05c-.015-.011-.032-.021-.047-.034a.246.246 0 0 1-.027-.022.731.731 0 0 1-.047-.037c-.005-.005-.012-.007-.017-.012a1.102 1.102 0 0 1-.062-.05 1.378 1.378 0 0 1-.07-.056c-.021-.02-.043-.037-.066-.057 0 0-.002 0-.002-.003-.005-.002-.008-.007-.01-.01l-.042-.037c-.005-.002-.007-.007-.012-.01l-.005-.004-.008-.008a.309.309 0 0 0-.032-.027l-.002-.002-.03-.027c-.002 0-.002-.003-.005-.003-.002-.002-.005-.002-.007-.005-.01-.007-.017-.015-.027-.024l-.04-.038-.012-.012-.02-.02-.034-.032c-.008-.007-.015-.015-.025-.022l-.077-.076-.074-.077c-.049-.052-.098-.104-.145-.158-.025-.027-.047-.054-.07-.081a2.078 2.078 0 0 1-.135-.166l-.067-.083s0-.003-.002-.003a1.505 1.505 0 0 1-.057-.076c-.005-.008-.01-.013-.012-.018a1.233 1.233 0 0 1-.05-.069l-.002-.002c-.002-.003-.002-.005-.005-.005l-.005-.008a1.099 1.099 0 0 1-.037-.054l-.005-.005-.022-.034-.042-.065-.007-.01a5.431 5.431 0 0 1-.486-.935l-.025-.061-.022-.055-.008-.02a5.46 5.46 0 0 1-.244-.833l-.012-.057a5.638 5.638 0 0 1-.09-1.656l.01-.086c.003-.03.008-.062.01-.091 0-.008.003-.015.003-.025l.01-.08.015-.095.014-.087c.003-.017.005-.034.01-.051.003-.01.003-.02.005-.033l.015-.071.005-.02a1.06 1.06 0 0 1 .02-.084l.022-.091.017-.074a.18.18 0 0 1 .01-.035c.005-.022.012-.042.017-.061l.008-.025c.007-.022.012-.042.02-.064a1.926 1.926 0 0 0 .017-.052l.007-.022c.003-.01.005-.02.01-.027.005-.018.01-.037.017-.055a5.553 5.553 0 0 1 1.115-1.986c0-.002.003-.002.003-.002A5.67 5.67 0 0 1 12.733.985c.008-.005.018-.01.025-.017l.087-.055a3.08 3.08 0 0 1 .279-.158A8.19 8.19 0 0 0 6.24.76a8.035 8.035 0 0 0-4.599 7.015c-.01.28-.005.56-.005.842v3.674c0 .846-.01 1.693-.002 2.54a1.84 1.84 0 0 0-.538.127A1.809 1.809 0 0 0 0 16.61c-.002.373 0 .743 0 1.115v.348c0 .2.17.37.37.37h17.843c.242 0 .484.006.725 0h.032c.2 0 .37-.17.37-.37v-1.468c.003-.005.003-.012.003-.017Z"/><path fill="#fff" d="m20.718 5.436-.014-.17c-.003-.035-.008-.067-.013-.101l-.002-.02v-.003c0-.005-.003-.01-.003-.014a6.017 6.017 0 0 0-.158-.718 5.723 5.723 0 0 0-.113-.346l-.06-.153a.191.191 0 0 0-.007-.02V3.89l-.005-.012-.032-.074a5.313 5.313 0 0 0-.545-.938c-.02-.027-.04-.052-.057-.077 0-.002-.002-.005-.005-.007-.002-.002-.005-.005-.005-.007l-.002-.005s-.003-.003-.003-.005l-.096-.119a5.335 5.335 0 0 0-.772-.752l-.005-.005s-.003 0-.003-.003c0 0-.002 0-.002-.002-.002 0-.005-.003-.005-.005l-.064-.05a5.249 5.249 0 0 0-.95-.558c-.02-.009-.04-.016-.06-.026-.004-.003-.036-.015-.054-.022-.017-.008 0 0-.002 0h-.003a5.395 5.395 0 0 0-1.198-.33l-.047-.007h-.002l-.07-.007a5.272 5.272 0 0 0-.34-.028 4.87 4.87 0 0 0-1.757.23 4.861 4.861 0 0 0-.99.442c-.031.02-.063.037-.095.056l-.084.052a.661.661 0 0 1-.054.035c-.018.012-.035.024-.055.034l-.047.032a4.908 4.908 0 0 0-1.263 1.276l-.037.054-.03.045-.03.044c-.007.01-.012.02-.02.03a4.727 4.727 0 0 0-.616 1.48c-.007.025-.012.052-.017.077 0 .002 0 .005-.003.01l-.007.034c-.002.008-.002.017-.005.025-.002.017-.007.032-.01.05-.002.007-.002.016-.005.024-.017.094-.034.19-.044.259-.013.094-.027.25-.035.37v.01l-.002.067c-.005.11-.008.22-.003.333 0 .054.003.106.005.16 0 .017.003.035.003.054l.007.104v.005c.003.017.003.034.005.052l.012.123c.003.012.003.022.005.035 0 .005 0 .01.003.014v.018c.002.012.005.022.005.034.002.013.002.022.005.035.002.01.002.022.005.032.002.01.002.022.005.032l.007.044c.005.023.007.045.012.065l.003.014c0 .003 0 .005.002.008.003.015.005.03.01.042.003.017.008.034.01.052.017.083.04.167.062.251l.005.017c.007.025.012.05.02.072l.004.017.025.084.03.094.032.094.005.017.014.042a5.704 5.704 0 0 1 .045.116c.007.022.017.042.024.064l.003.01.002.005v.01l.005.012a5.585 5.585 0 0 0 .296.578c0 .002.003.002.003.004l.044.072c0 .002.003.002.003.005l.007.012.037.057c.005.01.013.02.017.027.008.013.015.025.025.037.012.017.022.035.035.05.014.024.032.046.049.071l.047.067c.002.005.007.01.01.015.005.004.007.01.012.017.01.012.017.024.027.037a.55.55 0 0 1 .032.042l.003.002.002.003v.002c.03.037.057.072.09.109l.043.054c.013.012.023.027.035.04.005.004.01.012.015.017l.044.05.052.056a11.602 11.602 0 0 0 .222.224c.013.013.027.028.042.04l.047.044.002.003.025.022c.101.091.178.158.257.217.007.008.017.012.024.017l.003.003a3.557 3.557 0 0 0 .222.155l.067.045c.005.005.012.007.017.012a.661.661 0 0 0 .054.035l.02.012c.074.047.15.091.227.136.034.02.069.04.106.056.007.005.015.008.025.013a.086.086 0 0 0 .022.01.222.222 0 0 0 .034.017c.018.007.033.017.05.025l.015.007.005.002.079.038c.002.002.007.002.01.004.029.015.059.027.088.04.003 0 .008.002.018.007.002 0 .004.003.007.003a.019.019 0 0 0 .012.005h.003l.01.005.012.005a.15.15 0 0 1 .02.007l.017.007c.022.01.044.018.066.025l.043.015.059.022c.005.003.01.003.014.005.025.007.047.017.072.025l.089.03.012.004.042.013a4.958 4.958 0 0 0 2.946.005c.003 0 .005-.003.008-.003.066-.02.13-.042.197-.064.06-.022.119-.042.178-.067a.744.744 0 0 0 .094-.04h.002c.005-.002.012-.004.02-.01.227-.103.449-.216.661-.347a5.62 5.62 0 0 0 .39-.267c.005-.002.007-.004.01-.007 0 0 .002 0 .002-.002.003 0 .003-.003.005-.005a5.523 5.523 0 0 0 .896-.9l.04-.053a3.338 3.338 0 0 0 .155-.222c.138-.207.261-.424.368-.649l.074-.16c.024-.055 0 0 0-.003a.428.428 0 0 1 .02-.044l.031-.08a5.129 5.129 0 0 0 .294-1.105c.003-.012.01-.069.01-.069.002-.027.007-.051.01-.079a5.327 5.327 0 0 0 .03-.575c.012-.093.01-.22 0-.345ZM17.91 7.96a.377.377 0 0 1-.523 0l-.7-.7-.953-.953c-.074-.074-.153-.148-.225-.224-.118-.126-.116-.257-.116-.41V3.51c0-.207.17-.36.37-.37.2-.01.37.178.37.37v2.147l.129.128 1.646 1.646a.376.376 0 0 1 .002.528Z"/></svg>