<svg xmlns="http://www.w3.org/2000/svg" width="17" height="17" fill="none"><path fill="#494D4D" stroke="#494D4D" stroke-width=".2" d="M9.654.1a1.92 1.92 0 0 1 1.92 1.919v.99h3.535c.657 0 1.19.535 1.19 1.191v2.91c0 .495-.14.957-.378 1.354.008.03.015.063.015.1v5.818a1.92 1.92 0 0 1-1.918 1.918H2.382a1.92 1.92 0 0 1-1.918-1.918V8.563a.39.39 0 0 1 .014-.1A2.621 2.621 0 0 1 .1 7.11V4.2c0-.656.534-1.19 1.19-1.19h3.537v-.991A1.92 1.92 0 0 1 6.746.1h2.908Zm5.356 9.278c-.397.238-.86.377-1.356.377h-3.172v.991a.464.464 0 0 1-.464.463H6.382a.464.464 0 0 1-.464-.463v-.991H2.746c-.496 0-.959-.139-1.356-.377v5.004c0 .546.446.991.992.991h11.636a.993.993 0 0 0 .992-.991V9.378Zm-8.164.904h2.709v-.527h-2.71v.527ZM1.29 3.937a.264.264 0 0 0-.264.263v2.91a1.72 1.72 0 0 0 1.719 1.717l6.134.001h4.775a1.72 1.72 0 0 0 1.718-1.719V4.2a.264.264 0 0 0-.264-.263H1.291Zm5.455-2.91a.993.993 0 0 0-.991.992v.99h4.89v-.99a.993.993 0 0 0-.99-.992h-2.91Z"/></svg>