<svg xmlns="http://www.w3.org/2000/svg" width="75" height="75" fill="none"><g filter="url(#a)"><circle cx="37.226" cy="27.226" r="22.226" fill="url(#b)"/></g><mask id="d" width="45" height="45" x="15" y="5" maskUnits="userSpaceOnUse" style="mask-type:alpha"><circle cx="37.226" cy="27.226" r="22.226" fill="url(#c)"/></mask><g fill="#fff" mask="url(#d)"><path d="M39.758 15.927a2.393 2.393 0 1 1-4.786 0 2.393 2.393 0 0 1 4.785 0Z"/><path fill-rule="evenodd" d="M37.365 18.32h-4.097a8.132 8.132 0 0 0-7.718 5.571h-.148a4.457 4.457 0 1 0 0 8.915h.106a8.132 8.132 0 0 0 7.76 5.702h8.194a8.132 8.132 0 0 0 7.76-5.702h.04a4.457 4.457 0 1 0 0-8.915h-.082a8.132 8.132 0 0 0-7.718-5.572h-4.097Zm7.944 9.504a3.043 3.043 0 1 1-6.086 0 3.043 3.043 0 0 1 6.086 0Zm-12.93 3.043a3.043 3.043 0 1 0-.001-6.086 3.043 3.043 0 0 0 0 6.086Z" clip-rule="evenodd"/><path d="M26.839 51.098c1.963-6.66 5.94-11.213 10.526-11.213 4.586 0 8.562 4.554 10.526 11.213H26.84Z"/></g><defs><linearGradient id="b" x1="37.226" x2="37.226" y1="5" y2="49.451" gradientUnits="userSpaceOnUse"><stop stop-color="#FA15E3"/><stop offset="1" stop-color="#3A119B"/></linearGradient><linearGradient id="c" x1="37.226" x2="37.226" y1="5" y2="49.451" gradientUnits="userSpaceOnUse"><stop stop-color="#5E15FA"/><stop offset="1" stop-color="#119B83"/></linearGradient><filter id="a" width="74.451" height="74.451" x="0" y="0" color-interpolation-filters="sRGB" filterUnits="userSpaceOnUse"><feFlood flood-opacity="0" result="BackgroundImageFix"/><feColorMatrix in="SourceAlpha" result="hardAlpha" values="0 0 0 0 0 0 0 0 0 0 0 0 0 0 0 0 0 0 127 0"/><feOffset dy="10"/><feGaussianBlur stdDeviation="7.5"/><feComposite in2="hardAlpha" operator="out"/><feColorMatrix values="0 0 0 0 0.227451 0 0 0 0 0.0666667 0 0 0 0 0.607843 0 0 0 0.5 0"/><feBlend in2="BackgroundImageFix" result="effect1_dropShadow_647_112"/><feBlend in="SourceGraphic" in2="effect1_dropShadow_647_112" result="shape"/></filter></defs></svg>