<svg xmlns="http://www.w3.org/2000/svg" width="22" height="22" fill="none"><path fill="#131515" d="M17.488 0H4.512A4.517 4.517 0 0 0 0 4.512v12.976A4.517 4.517 0 0 0 4.512 22h12.976A4.517 4.517 0 0 0 22 17.488V4.512A4.517 4.517 0 0 0 17.488 0ZM6.774 16.952a1.075 1.075 0 0 1-1.86-1.074l.21-.366h2.481l-.831 1.44Zm-2.026-2.3a1.075 1.075 0 0 1 0-2.148h2.113l2.899-5.02-.786-1.36a1.075 1.075 0 0 1 1.86-1.075l.166.286.165-.286a1.075 1.075 0 0 1 1.968.259c.075.277.036.567-.107.815l-3.684 6.38h2.324l1.24 2.15H4.748Zm12.504 0h-.873l.708 1.226a1.075 1.075 0 0 1-1.209 1.574 1.067 1.067 0 0 1-.652-.5l-3.73-6.46 1.24-2.149 2.403 4.16h2.113a1.075 1.075 0 0 1 0 2.15Z"/></svg>