<svg xmlns="http://www.w3.org/2000/svg" width="24" height="24" fill="none"><g fill="#fff" fill-rule="evenodd" clip-path="url(#a)" clip-rule="evenodd"><path d="M19.076 14.22c.178.647.279 1.232.279 1.728a8.052 8.052 0 0 1-16.103 0C3.252 11.502 11.303 0 11.303 0s1.789 2.555 3.68 5.723c-.085.136-.168.272-.25.409-.65 1.084-1.68 2.906-1.68 4.165a4.29 4.29 0 0 0 6.023 3.923Z"/><path d="M20.748 10.297a3.407 3.407 0 0 1-6.813 0c0-.886.755-2.379 1.555-3.711.898-1.498 1.852-2.793 1.852-2.793s3.407 4.622 3.407 6.504Z"/></g><defs><clipPath id="a"><path fill="#fff" d="M0 0h24v24H0z"/></clipPath></defs></svg>