<svg xmlns="http://www.w3.org/2000/svg" width="14" height="24" fill="none"><path fill="#fff" d="M6.772 5.125a2.563 2.563 0 1 0 0-5.125 2.563 2.563 0 0 0 0 5.125Zm-.816.871h.44A2.376 2.376 0 0 1 8.77 8.372v4.236c0 .538.214 1.055.595 1.436l1.64 1.64a4.395 4.395 0 0 1 1.179 2.135l1.1 4.848a1.158 1.158 0 0 1-2.262.482l-1.688-4.627-4.239-3.471a2.798 2.798 0 0 1-1.023-2.273l.126-3.254-1.512 1.225-.505 2.55a1.101 1.101 0 0 1-2.168-.387l.463-2.924a2.566 2.566 0 0 1 1.007-1.66l2.083-1.543a4.012 4.012 0 0 1 2.389-.789Z"/><path fill="#fff" d="M13.23 12.626a1.056 1.056 0 0 1-1.41.667l-2.41-.806a1.029 1.029 0 0 1-.638-.952L7.457 9.17l.155-2.838L10.216 10l2.564 1.42c.406.253.59.748.45 1.206ZM.645 23.706a1.107 1.107 0 0 0 1.506-.004l3.115-3.575c.399-.458.702-.99.891-1.567l1.105-3.36-3.189-2.422-.425 5.036-3.097 4.364a1.107 1.107 0 0 0 .094 1.528Z"/></svg>