<svg xmlns="http://www.w3.org/2000/svg" width="112" height="16" fill="none"><path fill="url(#a)" d="m16.621 6.111-6.04-.397L8.308 0 6.033 5.714 0 6.111l4.627 3.93L3.11 16l5.198-3.286L13.506 16l-1.518-5.96 4.633-3.929Z"/><path fill="url(#b)" d="m40.242 6.111-6.039-.397L31.928 0l-2.274 5.714-6.033.397 4.627 3.93L26.73 16l5.198-3.286 5.2 3.286-1.52-5.96 4.635-3.929Z"/><path fill="url(#c)" d="m63.864 6.111-6.04-.397L55.55 0l-2.275 5.714-6.032.397 4.627 3.93L50.35 16l5.199-3.286 5.2 3.286-1.519-5.96 4.634-3.929Z"/><path fill="url(#d)" d="m87.485 6.111-6.04-.397L79.172 0l-2.274 5.714-6.033.397 4.627 3.93L73.973 16l5.198-3.286L84.37 16l-1.519-5.96 4.634-3.929Z"/><path fill="url(#e)" d="m111.107 6.111-6.04-.397L102.793 0l-2.275 5.714-6.033.397 4.627 3.93L97.594 16l5.199-3.286L107.991 16l-1.518-5.96 4.634-3.929Z"/><defs><linearGradient id="a" x1="8.311" x2="8.311" y1="0" y2="16" gradientUnits="userSpaceOnUse"><stop stop-color="#FFB509"/><stop offset="1" stop-color="#D9822B"/></linearGradient><linearGradient id="b" x1="31.932" x2="31.932" y1="0" y2="16" gradientUnits="userSpaceOnUse"><stop stop-color="#FFB509"/><stop offset="1" stop-color="#D9822B"/></linearGradient><linearGradient id="c" x1="55.553" x2="55.553" y1="0" y2="16" gradientUnits="userSpaceOnUse"><stop stop-color="#FFB509"/><stop offset="1" stop-color="#D9822B"/></linearGradient><linearGradient id="d" x1="79.174" x2="79.174" y1="0" y2="16" gradientUnits="userSpaceOnUse"><stop stop-color="#FFB509"/><stop offset="1" stop-color="#D9822B"/></linearGradient><linearGradient id="e" x1="102.796" x2="102.796" y1="0" y2="16" gradientUnits="userSpaceOnUse"><stop stop-color="#FFB509"/><stop offset="1" stop-color="#D9822B"/></linearGradient></defs></svg>