<svg xmlns="http://www.w3.org/2000/svg" width="468" height="319" fill="none"><circle cx="-7.194" cy="236.982" r="23.11" fill="#EA4701"/><path fill="#fff" d="M2.34 228.556a1.91 1.91 0 0 0-2.726.028l-4.054 4.224-9.891-3.274-2.077 2.077 8.245 5.077-4.172 4.347-2.675-.439-1.877 1.876 3.933 1.378 1.378 3.933 1.877-1.876-.44-2.676 4.348-4.172 5.077 8.245 2.076-2.076-3.273-9.892 4.223-4.053a1.909 1.909 0 0 0 .028-2.727Z"/><path fill="#494D4D" d="M-17.12 279.833c-.701 0-1.327-.105-1.877-.315a3.867 3.867 0 0 1-1.383-.898 4.173 4.173 0 0 1-.841-1.213l-.275-.639 1.885-.817.202.445c.135.296.313.566.534.808.22.243.488.429.8.558.313.13.666.195 1.06.195.593 0 1.073-.146 1.44-.437a1.42 1.42 0 0 0 .55-1.157c0-.437-.2-.801-.599-1.092-.393-.291-1.084-.59-2.07-.898-1.198-.382-2.058-.843-2.58-1.383-.524-.539-.785-1.216-.785-2.03 0-.943.366-1.723 1.1-2.337.733-.615 1.68-.922 2.839-.922.614 0 1.162.086 1.642.258a3.52 3.52 0 0 1 1.253.736c.35.319.61.639.777.963l.25.485-1.827.801-.154-.275a2.265 2.265 0 0 0-.453-.55 1.913 1.913 0 0 0-.68-.413 2.458 2.458 0 0 0-.881-.145c-.518 0-.936.119-1.254.356a1.094 1.094 0 0 0-.477.93c0 .356.151.66.453.914.302.248 1.014.547 2.135.898 1.197.361 2.071.841 2.621 1.439.55.599.825 1.324.825 2.176 0 1.068-.391 1.928-1.173 2.58-.782.653-1.8.979-3.057.979Zm8.844 0c-.981 0-1.744-.278-2.289-.833-.54-.561-.809-1.351-.809-2.37v-5.443h2.16v5.071c0 .62.143 1.089.428 1.407.286.313.696.47 1.23.47.55 0 1.01-.205 1.383-.615.377-.415.566-.922.566-1.521v-4.812h2.16v8.371h-2.047v-2.127l.987.987h-1.035c-.243.409-.607.749-1.092 1.019-.48.264-1.027.396-1.642.396Zm6.928-.275v-8.371h2.07v1.512L.48 272.4h.29a2.985 2.985 0 0 1 1.173-1.076 3.388 3.388 0 0 1 1.626-.412c.943 0 1.685.28 2.224.841.54.561.809 1.321.809 2.281v5.524h-2.16v-5.039c0-.588-.143-1.035-.429-1.343-.285-.307-.711-.461-1.278-.461-.55 0-1.008.205-1.375.615-.366.404-.55.901-.55 1.488v4.74h-2.16Z"/><circle cx="69.025" cy="237.982" r="23.11" fill="#EA4701"/><path fill="#fff" d="M78.75 229.556a1.91 1.91 0 0 0-2.726.028l-4.053 4.224-9.892-3.274-2.077 2.077 8.245 5.077-4.171 4.347-2.676-.439-1.877 1.876 3.934 1.378 1.377 3.933 1.877-1.876-.44-2.676 4.348-4.172 5.077 8.245 2.076-2.076-3.273-9.892 4.224-4.053a1.909 1.909 0 0 0 .028-2.727Z"/><path fill="#494D4D" d="M55.383 278.558v-10.024h1.757l3.318 8.281h.042l3.31-8.281h1.73v10.024h-1.267v-6.055l.063-2.065h-.042l-3.276 8.12h-1.106l-3.29-8.127h-.042l.07 2.072v6.055h-1.267Zm15.81.231c-1.125 0-2.045-.369-2.759-1.106-.71-.737-1.064-1.661-1.064-2.772 0-1.125.36-2.051 1.078-2.779.724-.733 1.638-1.099 2.744-1.099 1.106 0 2.02.371 2.744 1.113.724.737 1.085 1.659 1.085 2.765s-.357 2.03-1.07 2.772c-.715.737-1.634 1.106-2.759 1.106Zm0-1.162c.723 0 1.325-.252 1.805-.756s.721-1.157.721-1.96c0-.803-.242-1.456-.728-1.96-.48-.504-1.08-.756-1.799-.756-.728 0-1.332.252-1.813.756-.476.499-.714 1.153-.714 1.96 0 .803.238 1.456.714 1.96s1.08.756 1.813.756Zm5.396.931v-7.294h1.225v1.281l-.19-.231h.232c.224-.369.555-.674.994-.917a2.98 2.98 0 0 1 1.456-.364c.863 0 1.528.24 1.995.721.466.481.7 1.148.7 2.002v4.802H81.72v-4.564c0-.593-.145-1.045-.434-1.358-.285-.313-.73-.469-1.337-.469-.593 0-1.088.212-1.484.637-.397.425-.595.945-.595 1.561v4.193h-1.281Z"/><circle cx="145.244" cy="239.55" r="23.11" fill="#131515"/><circle cx="157.673" cy="221.785" r="8.48" fill="#3ACE15"/><path stroke="#131515" stroke-linecap="round" stroke-linejoin="round" stroke-width="1.696" d="m153.209 221.098 2.042 3.832 6.887-6.29"/><path fill="#fff" d="M139.541 247.151v-10.075l-1.84 1.321-1.322-1.663 3.994-2.82h1.636v13.237h-2.468Zm8.962.315c-.77 0-1.436-.127-1.997-.379a4.355 4.355 0 0 1-1.396-1.008 4.355 4.355 0 0 1-.822-1.294l-.268-.675 2.135-.813.157.379c.105.246.253.499.444.758.197.252.434.459.712.619.283.16.622.24 1.016.24.635 0 1.147-.2 1.535-.6.394-.401.592-.882.592-1.443 0-.634-.216-1.13-.648-1.488-.425-.363-.955-.545-1.589-.545h-1.248v-1.877h1.118c.579 0 1.054-.166 1.424-.499.376-.333.564-.779.564-1.34 0-.518-.17-.937-.509-1.257-.333-.321-.782-.481-1.349-.481-.333 0-.623.062-.869.185a1.915 1.915 0 0 0-.62.481c-.166.191-.314.4-.443.628l-.185.342-1.932-1.081.323-.555a4.8 4.8 0 0 1 .897-1.082c.382-.345.816-.61 1.303-.795.493-.191 1.07-.286 1.729-.286 1.239 0 2.228.323 2.967.971.74.64 1.109 1.485 1.109 2.532 0 .715-.166 1.328-.499 1.84a2.716 2.716 0 0 1-1.377 1.1v.065c.727.246 1.294.659 1.701 1.238.407.58.61 1.276.61 2.089 0 1.159-.422 2.12-1.266 2.884-.839.765-1.945 1.147-3.319 1.147Z"/><path fill="#494D4D" d="M136.751 280.126v-9.464h1.295v9.464h-1.295Zm-2.968-8.806v-1.218h7.224v1.218h-7.224Zm10.37 9.037c-.859 0-1.521-.242-1.988-.728-.462-.49-.693-1.19-.693-2.1v-4.697h1.288v4.487c0 .64.145 1.116.434 1.428.289.313.726.469 1.309.469.574 0 1.059-.21 1.456-.63.401-.42.602-.945.602-1.575v-4.179h1.281v7.294h-1.225v-1.624l.588.588h-.63c-.224.369-.553.672-.987.91a2.91 2.91 0 0 1-1.435.357Zm8.977 0c-1.092 0-1.983-.359-2.674-1.078-.69-.723-1.036-1.656-1.036-2.8 0-1.101.336-2.023 1.008-2.765.672-.742 1.547-1.113 2.625-1.113 1.05 0 1.89.32 2.52.959.635.635.952 1.435.952 2.401v.819h-6.37v-1.029h5.068c-.023-.569-.226-1.045-.609-1.428-.382-.387-.903-.581-1.561-.581-.686 0-1.248.245-1.687.735-.438.49-.658 1.155-.658 1.995 0 .864.236 1.536.707 2.016.472.481 1.067.721 1.785.721.322 0 .602-.042.84-.126.243-.084.465-.2.665-.35.206-.154.434-.396.686-.728l.966.609c-.28.467-.571.815-.875 1.043a3.538 3.538 0 0 1-1.008.518c-.364.122-.812.182-1.344.182Z"/><circle cx="221.463" cy="239.556" r="23.11" fill="#131515"/><circle cx="233.567" cy="221.78" r="8.48" fill="#3ACE15"/><path stroke="#131515" stroke-linecap="round" stroke-linejoin="round" stroke-width="1.696" d="m229.103 221.092 2.042 3.832 6.887-6.29"/><path fill="#fff" d="M215.182 247.157v-10.076l-1.839 1.322-1.322-1.664 3.993-2.819h1.636v13.237h-2.468Zm10.506 0v-3.615l.176-.554v-6.933l1.146.906h-1.202l-3.651 5.509h4.539l.656-.055h2.265v2.172h-9.863v-1.914l5.814-8.753h2.607v13.237h-2.487Z"/><path fill="#494D4D" d="m209.484 280.132-2.695-10.024h1.351l1.834 7.259.161.721h.042l.196-.721 2.212-7.259h1.295l2.142 7.259.196.714h.042l.161-.714 1.813-7.259h1.358l-2.674 10.024h-1.274l-2.184-7.301-.21-.777h-.042l-.231.777-2.226 7.301h-1.267Zm14.137.231c-1.092 0-1.983-.359-2.674-1.078-.69-.723-1.036-1.657-1.036-2.8 0-1.101.336-2.023 1.008-2.765.672-.742 1.547-1.113 2.625-1.113 1.05 0 1.89.32 2.52.959.635.635.952 1.435.952 2.401v.819h-6.37v-1.029h5.068c-.023-.569-.226-1.045-.609-1.428-.382-.387-.903-.581-1.561-.581-.686 0-1.248.245-1.687.735-.438.49-.658 1.155-.658 1.995 0 .863.236 1.535.707 2.016.472.481 1.067.721 1.785.721.322 0 .602-.042.84-.126.243-.084.465-.201.665-.35.206-.154.434-.397.686-.728l.966.609c-.28.467-.571.814-.875 1.043a3.538 3.538 0 0 1-1.008.518c-.364.121-.812.182-1.344.182Zm8.083 0c-.999 0-1.837-.359-2.513-1.078-.672-.723-1.008-1.654-1.008-2.793 0-1.157.331-2.091.994-2.8.667-.714 1.491-1.071 2.471-1.071.569 0 1.078.128 1.526.385.452.257.791.576 1.015.959h.042v-4.011h1.288v10.178h-1.239v-1.323l.182.28h-.224a2.81 2.81 0 0 1-1.036.917 3.12 3.12 0 0 1-1.498.357Zm.182-1.113c.681 0 1.25-.252 1.708-.756.462-.504.693-1.169.693-1.995 0-.826-.236-1.491-.707-1.995-.467-.509-1.032-.763-1.694-.763a2.23 2.23 0 0 0-1.722.763c-.462.504-.693 1.167-.693 1.988 0 .817.228 1.482.686 1.995.457.509 1.033.763 1.729.763Z"/><circle cx="297.683" cy="239.428" r="23.11" fill="#131515"/><circle cx="310.324" cy="221.907" r="8.48" fill="#3ACE15"/><path stroke="#131515" stroke-linecap="round" stroke-linejoin="round" stroke-width="1.696" d="m305.86 221.219 2.042 3.833 6.887-6.291"/><path fill="#fff" d="M291.401 247.028v-10.076l-1.839 1.322-1.322-1.664 3.993-2.819h1.636v13.237h-2.468Zm9.249.314c-.801 0-1.491-.123-2.07-.37a4.396 4.396 0 0 1-1.47-1.035c-.401-.444-.69-.897-.869-1.359l-.268-.693 2.218-.841.167.416c.117.271.277.542.48.813.21.271.456.478.74.62.29.141.641.212 1.054.212.641 0 1.171-.212 1.59-.638.419-.431.628-.989.628-1.673 0-.653-.206-1.186-.619-1.599-.407-.419-.937-.629-1.59-.629-.37 0-.709.065-1.017.195-.302.123-.607.388-.915.794l-2.218-.896.85-6.868h7.127v2.2h-5.26l-.434 3.364.064.028a3.256 3.256 0 0 1 1.091-.601 4.183 4.183 0 0 1 1.359-.212c1.159 0 2.117.4 2.875 1.201.764.795 1.146 1.812 1.146 3.051 0 1.288-.431 2.363-1.294 3.226s-1.984 1.294-3.365 1.294Z"/><path fill="#494D4D" d="M288.704 280.004v-9.464h1.295v9.464h-1.295Zm-2.968-8.806v-1.218h7.224v1.218h-7.224Zm8.655 8.806v-10.178h1.281v3.913h.042c.219-.359.539-.658.959-.896.424-.243.91-.364 1.456-.364.858 0 1.519.24 1.981.721.462.481.693 1.146.693 1.995v4.809h-1.281v-4.564c0-.607-.15-1.062-.448-1.365-.299-.308-.731-.462-1.295-.462a1.96 1.96 0 0 0-1.505.665 2.214 2.214 0 0 0-.602 1.547v4.179h-1.281Zm10.957.231c-.858 0-1.521-.243-1.988-.728-.462-.49-.693-1.19-.693-2.1v-4.697h1.288v4.487c0 .639.145 1.115.434 1.428.29.313.726.469 1.309.469.574 0 1.06-.21 1.456-.63.402-.42.602-.945.602-1.575v-4.179h1.281v7.294h-1.225v-1.624l.588.588h-.63c-.224.369-.553.672-.987.91a2.907 2.907 0 0 1-1.435.357Z"/><circle cx="373.902" cy="239.444" r="23.11" fill="#131515"/><circle cx="386.218" cy="221.891" r="8.48" fill="#3ACE15"/><path stroke="#131515" stroke-linecap="round" stroke-linejoin="round" stroke-width="1.696" d="m381.754 221.204 2.042 3.832 6.887-6.29"/><path fill="#fff" d="M367.62 247.044v-10.075l-1.839 1.322-1.322-1.664 3.993-2.82h1.637v13.237h-2.469Zm9.397.296c-1.405 0-2.551-.434-3.439-1.303-.887-.869-1.331-1.966-1.331-3.291 0-.912.231-1.787.694-2.625a24.108 24.108 0 0 1 1.701-2.644l3.004-4.113 1.987 1.368-3.133 4.178c-.284.357-.799.798-1.544 1.322-.74.517-1.223 1.359-1.451 2.523l-1.017-.037c.178-1.343.785-2.382 1.821-3.115a5.783 5.783 0 0 1 3.438-1.109c1.147 0 2.111.394 2.894 1.183.782.789 1.174 1.787 1.174 2.995 0 1.325-.456 2.434-1.368 3.328-.906.893-2.049 1.34-3.43 1.34Zm.037-2.255c.678 0 1.23-.216 1.655-.647.431-.438.647-.996.647-1.673 0-.654-.216-1.199-.647-1.637-.432-.437-.983-.656-1.655-.656s-1.232.219-1.682.656c-.45.438-.675.986-.675 1.646 0 .671.222 1.226.666 1.664.443.431 1.007.647 1.691.647Z"/><path fill="#494D4D" d="M366.863 280.02v-10.024h5.691v1.218h-4.389v8.806h-1.302Zm.707-4.382v-1.211h4.655v1.211h-4.655Zm6.622 4.382v-7.294h1.211v1.288l-.161-.14h.203c.145-.392.413-.719.805-.98.392-.266.81-.399 1.253-.399.135 0 .278.012.427.035.149.023.285.058.406.105l.189.07-.14 1.267-.203-.07a2.131 2.131 0 0 0-.42-.112 1.89 1.89 0 0 0-.364-.042c-.537 0-.992.21-1.365.63-.373.415-.56.959-.56 1.631v4.011h-1.281Zm5.655 0v-7.294h1.288v7.294h-1.288Zm.651-8.778a.843.843 0 0 1-.609-.252.837.837 0 0 1-.252-.602c0-.243.084-.443.252-.602a.867.867 0 0 1 .609-.238c.247 0 .45.079.609.238a.818.818 0 0 1 .238.602c0 .229-.08.429-.238.602a.802.802 0 0 1-.609.252Z"/><circle cx="450.121" cy="237.982" r="23.11" fill="#D8D8D8"/><path fill="#838383" d="M444.995 245.583v-10.076l-1.839 1.322-1.322-1.664 3.993-2.82h1.636v13.238h-2.468Zm4.941-.823 5.537-10.15-.018-.065h-6.036v-2.2h8.652v2.256l-.12.231-5.787 11.111-2.228-1.183Z"/><path fill="#494D4D" d="M443.643 278.789c-.607 0-1.144-.091-1.61-.273a3.092 3.092 0 0 1-1.162-.77 3.608 3.608 0 0 1-.679-1.05l-.224-.553 1.197-.497.196.455c.13.299.301.565.511.798.214.233.473.411.777.532.308.117.66.175 1.057.175.63 0 1.129-.159 1.498-.476.373-.322.56-.733.56-1.232 0-.453-.15-.826-.448-1.12-.294-.294-.936-.59-1.925-.889-1.139-.345-1.923-.747-2.352-1.204-.425-.462-.637-1.031-.637-1.708 0-.77.291-1.407.875-1.911.588-.509 1.346-.763 2.275-.763.513 0 .966.07 1.358.21.396.14.737.343 1.022.609a3 3 0 0 1 .637.812l.21.413-1.169.511-.147-.273a2.194 2.194 0 0 0-.427-.539 1.794 1.794 0 0 0-.651-.406 2.385 2.385 0 0 0-.854-.14c-.556 0-1.001.131-1.337.392a1.216 1.216 0 0 0-.504 1.015c0 .392.147.719.441.98.294.261.952.553 1.974.875 1.031.317 1.778.721 2.24 1.211.466.49.7 1.108.7 1.855 0 .891-.315 1.608-.945 2.149-.63.541-1.449.812-2.457.812Zm7.279 0c-.798 0-1.451-.224-1.96-.672-.509-.453-.763-1.057-.763-1.813s.28-1.356.84-1.799c.565-.448 1.293-.672 2.184-.672.425 0 .826.049 1.204.147.378.093.693.217.945.371v-.462c0-.537-.184-.957-.553-1.26-.364-.308-.833-.462-1.407-.462-.303 0-.565.035-.784.105-.219.07-.406.156-.56.259a3.498 3.498 0 0 0-.476.371l-.238.217-.854-.77.287-.28c.196-.187.42-.359.672-.518.257-.163.539-.289.847-.378.308-.093.698-.14 1.169-.14.947 0 1.708.254 2.282.763.574.509.861 1.206.861 2.093v4.669h-1.225v-1.575l.343.56h-.385c-.219.35-.544.646-.973.889-.425.238-.91.357-1.456.357Zm.203-1.092c.621 0 1.15-.219 1.589-.658.443-.443.665-.968.665-1.575v-.028a2.465 2.465 0 0 0-.868-.441 3.595 3.595 0 0 0-1.071-.161c-.597 0-1.069.126-1.414.378s-.518.614-.518 1.085c0 .425.147.765.441 1.022.299.252.691.378 1.176.378Zm7.872 1.092c-.602 0-1.085-.182-1.449-.546-.359-.364-.539-.859-.539-1.484v-7.455h1.281v7.224c0 .364.075.637.224.819.154.182.39.273.707.273.084 0 .18-.012.287-.035.112-.023.243-.065.392-.126l.231-.091.182 1.099-.231.098c-.154.065-.32.119-.497.161a2.5 2.5 0 0 1-.588.063Zm-3.269-6.37v-1.155h4.431v1.155h-4.431Z"/><path fill="#131515" d="M131.418 143.228v-2.511l4.513-4.594c.678-.678 1.155-1.257 1.433-1.738.278-.488.417-.949.417-1.382 0-.502-.153-.902-.458-1.2-.298-.305-.714-.457-1.25-.457-.325 0-.606.057-.843.173a2.297 2.297 0 0 0-.651.477 4.063 4.063 0 0 0-.549.732l-.244.417-2.592-1.281.397-.793a5.133 5.133 0 0 1 1.047-1.412 4.764 4.764 0 0 1 1.535-.976c.589-.244 1.304-.366 2.144-.366 1.362 0 2.487.396 3.375 1.189.887.786 1.331 1.84 1.331 3.161 0 .739-.19 1.487-.569 2.246-.38.753-.993 1.535-1.84 2.348l-3.1 3.09.031.071h5.732v2.806h-9.859Zm16.697.355c-1.545 0-2.812-.406-3.802-1.219-.982-.814-1.473-1.85-1.473-3.111 0-.826.21-1.555.63-2.185.427-.637 1.016-1.115 1.768-1.433v-.071a3.891 3.891 0 0 1-1.341-1.25c-.346-.522-.519-1.139-.519-1.85 0-1.22.444-2.213 1.332-2.978.887-.773 2.022-1.159 3.405-1.159 1.389 0 2.524.386 3.405 1.159.887.765 1.331 1.758 1.331 2.978 0 .711-.179 1.338-.539 1.88a3.626 3.626 0 0 1-1.331 1.22v.071c.752.318 1.342.796 1.769 1.433.433.637.65 1.369.65 2.196 0 1.26-.491 2.297-1.474 3.11-.982.806-2.253 1.209-3.811 1.209Zm0-2.653c.63 0 1.148-.189 1.555-.569.413-.379.62-.867.62-1.463 0-.597-.203-1.091-.61-1.484-.407-.4-.928-.6-1.565-.6-.617 0-1.132.193-1.545.579-.414.38-.62.871-.62 1.474 0 .596.203 1.091.61 1.484.413.386.931.579 1.555.579Zm0-6.342c.535 0 .975-.169 1.321-.508.346-.346.518-.786.518-1.321 0-.522-.172-.949-.518-1.281-.346-.339-.786-.508-1.321-.508-.536 0-.976.169-1.322.508-.338.332-.508.759-.508 1.281 0 .535.17.975.508 1.321.346.339.786.508 1.322.508Zm11.974 8.64v-14.555h5.112c2.223 0 4.015.667 5.377 2.002 1.362 1.328 2.043 3.083 2.043 5.265 0 2.195-.681 3.961-2.043 5.295-1.362 1.328-3.154 1.993-5.377 1.993h-5.112Zm3.212-2.877h1.717c1.335.014 2.392-.366 3.172-1.138.786-.773 1.179-1.857 1.179-3.253 0-1.375-.393-2.439-1.179-3.191-.78-.752-1.837-1.128-3.172-1.128h-1.717v8.71Zm14.323 3.232c-1.138 0-2.05-.308-2.734-.925-.684-.623-1.027-1.44-1.027-2.449 0-1.084.414-1.938 1.24-2.562.827-.623 1.904-.935 3.233-.935.528 0 1.026.051 1.494.153.467.101.87.234 1.209.396v-.61c0-.596-.203-1.063-.61-1.402-.406-.346-.965-.519-1.677-.519-.427 0-.789.044-1.087.133a4.46 4.46 0 0 0-.874.365c-.278.15-.519.316-.722.498l-.305.265-1.565-1.667.538-.427a7.523 7.523 0 0 1 1.19-.773 6.165 6.165 0 0 1 1.443-.518 7.762 7.762 0 0 1 1.728-.183c1.592 0 2.822.369 3.689 1.108.868.732 1.301 1.779 1.301 3.141v6.556h-3.039v-2.206l.712.925h-.783c-.298.467-.745.857-1.341 1.169-.59.311-1.261.467-2.013.467Zm.966-2.053c.718 0 1.304-.254 1.758-.762.461-.508.691-1.189.691-2.043a3.692 3.692 0 0 0-.925-.356 4.638 4.638 0 0 0-1.128-.132c-.65 0-1.182.142-1.596.427-.406.284-.61.715-.61 1.291 0 .501.166.891.498 1.169.333.271.77.406 1.312.406Zm7.949 6.109 2.673-5.763.021 1.362-4.554-10.459h3.273l2.206 5.56.315 1.026h.071l.335-1.037 2.104-5.549h3.172l-6.302 14.86c.007 0 .007 0 0 0h-3.314Zm20.079-4.056c-.895 0-1.691-.135-2.389-.406a5.002 5.002 0 0 1-1.748-1.149 5.42 5.42 0 0 1-1.077-1.545l-.356-.823 2.744-1.128.224.518c.156.339.362.651.62.935.257.285.566.505.925.661.366.156.769.234 1.209.234.644 0 1.169-.16 1.576-.478.413-.319.62-.742.62-1.271 0-.501-.271-.918-.813-1.25-.542-.332-1.376-.681-2.501-1.047-1.368-.454-2.395-1.023-3.079-1.707-.678-.691-1.017-1.562-1.017-2.612 0-1.206.478-2.206 1.433-2.999.956-.799 2.189-1.199 3.7-1.199.793 0 1.501.112 2.124.335a4.656 4.656 0 0 1 1.627.966c.454.42.782.837.986 1.25l.304.62-2.663 1.088-.172-.315a2.493 2.493 0 0 0-.519-.631 2.331 2.331 0 0 0-.803-.477 2.786 2.786 0 0 0-1.016-.173c-.556 0-1.006.129-1.352.386-.345.251-.518.583-.518.996 0 .4.176.739.528 1.017.353.271 1.193.613 2.521 1.026 1.511.454 2.616 1.074 3.313 1.86.705.779 1.057 1.701 1.057 2.765 0 1.362-.511 2.463-1.534 3.303-1.023.834-2.341 1.25-3.954 1.25Zm11.622 0c-1.131 0-2.015-.298-2.652-.894-.631-.596-.946-1.491-.946-2.683v-10.073h3.161v9.646c0 .501.105.877.316 1.128.21.244.521.366.935.366.135 0 .271-.014.406-.041.142-.027.319-.074.529-.142l.315-.102v2.45l-.407.112a6.921 6.921 0 0 1-.772.172 5.567 5.567 0 0 1-.885.061Zm-5.163-8.405v-2.399h7.217v2.399h-7.217Zm9.241 8.05v-10.449h3.039v1.992l-.326-.396h.387c.196-.576.562-1.044 1.097-1.403a3.051 3.051 0 0 1 2.308-.498c.196.034.376.081.538.142l.254.082v2.947l-.325-.122a3.877 3.877 0 0 0-.701-.213 3.439 3.439 0 0 0-.722-.082c-.698 0-1.27.248-1.718.742-.44.495-.66 1.139-.66 1.932v5.326h-3.171Zm13.335.355c-1.661 0-2.995-.525-4.005-1.575-1.01-1.05-1.514-2.385-1.514-4.005 0-1.612.508-2.944 1.524-3.994 1.017-1.057 2.331-1.586 3.944-1.586 1.524 0 2.778.478 3.76 1.433.99.949 1.484 2.169 1.484 3.659v1.098h-9.188v-1.596h6.261c-.047-.63-.278-1.141-.691-1.534-.407-.4-.949-.6-1.626-.6-.746 0-1.342.268-1.789.803-.447.528-.671 1.267-.671 2.216 0 1.016.261 1.822.783 2.419.528.589 1.223.884 2.083.884.393 0 .739-.054 1.037-.163.298-.108.566-.25.803-.427.244-.176.529-.464.854-.864l1.86 1.434c-.481.643-.952 1.124-1.413 1.443a5.299 5.299 0 0 1-1.494.711c-.535.163-1.203.244-2.002.244Zm10.082 0c-1.138 0-2.05-.308-2.734-.925-.685-.623-1.027-1.44-1.027-2.449 0-1.084.414-1.938 1.24-2.562.827-.623 1.904-.935 3.232-.935.529 0 1.027.051 1.495.153.467.101.87.234 1.209.396v-.61c0-.596-.203-1.063-.61-1.402-.406-.346-.965-.519-1.677-.519-.427 0-.789.044-1.087.133-.299.088-.59.21-.874.365-.278.15-.519.316-.722.498l-.305.265-1.565-1.667.538-.427a7.523 7.523 0 0 1 1.19-.773 6.165 6.165 0 0 1 1.443-.518 7.762 7.762 0 0 1 1.728-.183c1.592 0 2.822.369 3.689 1.108.868.732 1.301 1.779 1.301 3.141v6.556h-3.039v-2.206l.712.925h-.783c-.298.467-.745.857-1.342 1.169-.589.311-1.26.467-2.012.467Zm.966-2.053c.718 0 1.304-.254 1.758-.762.461-.508.691-1.189.691-2.043a3.692 3.692 0 0 0-.925-.356 4.638 4.638 0 0 0-1.128-.132c-.651 0-1.182.142-1.596.427-.406.284-.61.715-.61 1.291 0 .501.166.891.498 1.169.332.271.769.406 1.312.406Zm9.929-.091v-3.629l4.757-5.031h3.964l-8.721 8.66Zm-2.093 1.789v-14.555h3.171v14.555h-3.171Zm7.084 0-3.009-5.093 2.206-2.185 4.594 7.278h-3.791Zm8.315 0 5.58-14.555h2.896l5.581 14.555h-3.517l-2.968-8.752-.549-1.799h-.071l-.539 1.789-2.988 8.762h-3.425Zm2.693-2.826.854-2.338h6.627l.904 2.338h-8.385Zm17.18 3.181c-1.626 0-2.964-.521-4.015-1.565-1.043-1.05-1.565-2.389-1.565-4.015 0-1.646.522-2.988 1.565-4.025 1.044-1.036 2.386-1.555 4.025-1.555.759 0 1.444.105 2.054.315.616.21 1.172.539 1.666.986.495.447.919 1.084 1.271 1.911l-2.633 1.006c-.203-.42-.406-.735-.609-.945a1.91 1.91 0 0 0-.722-.468 2.725 2.725 0 0 0-.935-.152c-.718 0-1.332.271-1.84.813-.508.535-.762 1.233-.762 2.094 0 .867.251 1.575.752 2.124.501.542 1.115.813 1.84.813.332 0 .643-.054.935-.162.298-.116.545-.268.742-.458.203-.189.42-.508.65-.955l2.663.823c-.352.881-.762 1.548-1.23 2.002a4.981 4.981 0 0 1-1.667 1.047c-.643.244-1.372.366-2.185.366Zm11.034 0c-1.132 0-2.016-.298-2.653-.894-.63-.596-.945-1.491-.945-2.683v-10.073h3.161v9.646c0 .501.105.877.315 1.128.21.244.522.366.935.366.136 0 .271-.014.407-.041.142-.027.318-.074.528-.142l.315-.102v2.45l-.406.112a5.545 5.545 0 0 1-1.657.233Zm-5.163-8.405v-2.399h7.216v2.399h-7.216Zm9.311 8.05v-10.449h3.182v10.449h-3.182Zm1.586-12.075c-.502 0-.925-.17-1.271-.509a1.728 1.728 0 0 1-.518-1.27c0-.508.173-.928.518-1.26a1.746 1.746 0 0 1 1.271-.509c.515 0 .942.17 1.281.509.338.332.508.752.508 1.26 0 .501-.17.925-.508 1.27-.339.339-.766.509-1.281.509Zm7.037 12.075-4.167-10.449h3.252l2.246 6.271.295.966h.071l.305-.966 2.247-6.271h3.191l-4.279 10.449h-3.161Zm12.939.355c-1.66 0-2.995-.525-4.004-1.575-1.01-1.05-1.515-2.385-1.515-4.005 0-1.612.508-2.944 1.525-3.994 1.016-1.057 2.331-1.586 3.943-1.586 1.525 0 2.778.478 3.761 1.433.989.949 1.484 2.169 1.484 3.659v1.098h-9.188v-1.596h6.261c-.048-.63-.278-1.141-.691-1.534-.407-.4-.949-.6-1.627-.6-.745 0-1.341.268-1.789.803-.447.528-.67 1.267-.67 2.216 0 1.016.26 1.822.782 2.419.529.589 1.223.884 2.084.884.393 0 .738-.054 1.037-.163a3.11 3.11 0 0 0 .803-.427c.243-.176.528-.464.853-.864l1.86 1.434c-.481.643-.952 1.124-1.412 1.443a5.292 5.292 0 0 1-1.495.711c-.535.163-1.202.244-2.002.244Z"/><path fill="#494D4D" d="M70.393 173.521v-9.703h3.72c.862 0 1.563.239 2.1.718.538.474.807 1.071.807 1.789 0 .537-.131.987-.393 1.348a2.282 2.282 0 0 1-1.037.786v.048c.537.135.976.406 1.314.813.34.406.509.899.509 1.477 0 .777-.278 1.425-.834 1.945-.555.519-1.283.779-2.182.779h-4.004Zm1.565-1.355h2.277c.456 0 .835-.138 1.138-.414.307-.28.46-.634.46-1.063 0-.434-.155-.793-.467-1.078-.311-.289-.711-.433-1.2-.433h-2.682v-1.254h2.466c.452 0 .82-.129 1.105-.386.289-.258.433-.592.433-1.003 0-.416-.144-.745-.433-.989-.285-.244-.646-.366-1.085-.366h-2.012v6.986Zm9.592 1.585c-.836 0-1.48-.235-1.931-.704-.452-.47-.678-1.136-.678-1.999v-4.615h1.545v4.337c0 .574.131 1.001.393 1.281.262.275.65.413 1.166.413.51 0 .942-.185 1.294-.556.352-.37.529-.835.529-1.396v-4.079h1.544v7.088h-1.47v-1.694l.705.705H83.9c-.216.352-.533.643-.948.874-.411.23-.879.345-1.403.345Zm5.858-.23v-7.088h1.545v7.088h-1.545Zm.779-8.423a.924.924 0 0 1-.678-.284.927.927 0 0 1-.284-.678.88.88 0 0 1 .284-.671.952.952 0 0 1 .678-.271.91.91 0 0 1 .678.271.9.9 0 0 1 .27.671.95.95 0 0 1-.27.678.882.882 0 0 1-.678.284Zm2.766 8.423v-9.866h1.545v9.866h-1.545Zm6.462.23c-.976 0-1.789-.347-2.44-1.043-.65-.696-.975-1.602-.975-2.717 0-1.134.323-2.047.969-2.738.646-.691 1.448-1.037 2.405-1.037.543 0 1.026.12 1.45.36.425.234.741.53.95.887h.046v-3.808h1.539v9.866h-1.498v-1.247l.21.278h-.25c-.23.352-.556.641-.976.867-.42.222-.897.332-1.43.332Zm.298-1.307c.624 0 1.139-.224 1.545-.671.411-.452.617-1.046.617-1.782 0-.737-.21-1.331-.63-1.782a2 2 0 0 0-1.532-.678c-.628 0-1.147.226-1.558.678-.407.451-.61 1.043-.61 1.775 0 .727.203 1.319.61 1.775.406.456.926.685 1.558.685Zm8.923 1.077v-9.866h1.538v3.774h.048c.216-.357.53-.65.941-.881.412-.23.886-.345 1.423-.345.814 0 1.446.233 1.898.698.451.465.677 1.102.677 1.911v4.709h-1.545v-4.371c0-.542-.133-.95-.399-1.226-.267-.276-.653-.413-1.159-.413-.538 0-.985.194-1.342.582a1.951 1.951 0 0 0-.535 1.376v4.052h-1.545Zm11.752.23c-1.125 0-2.042-.356-2.752-1.07-.704-.714-1.057-1.613-1.057-2.697 0-1.102.357-2.008 1.071-2.717.714-.709 1.626-1.064 2.738-1.064 1.111 0 2.023.359 2.737 1.077.718.719 1.077 1.62 1.077 2.704 0 1.075-.354 1.972-1.063 2.69-.705.718-1.622 1.077-2.751 1.077Zm0-1.355c.655 0 1.194-.223 1.619-.671.429-.451.644-1.034.644-1.748 0-.709-.215-1.29-.644-1.741-.429-.452-.969-.678-1.619-.678-.66 0-1.202.226-1.627.678-.424.447-.637 1.027-.637 1.741 0 .718.213 1.301.637 1.748.425.448.967.671 1.627.671Zm5.294 1.125v-7.088h1.477v1.261l-.19-.244h.238c.225-.371.555-.671.989-.902.434-.23.906-.345 1.416-.345.822 0 1.459.233 1.911.698.456.461.684 1.098.684 1.911v4.709h-1.545v-4.371c0-.528-.128-.932-.386-1.212-.257-.281-.655-.421-1.192-.421-.534 0-.976.188-1.329.563-.352.37-.528.829-.528 1.375v4.066h-1.545Zm11.643.23c-1.098 0-1.99-.35-2.676-1.05-.683-.705-1.024-1.613-1.024-2.724 0-1.066.332-1.96.996-2.683.669-.727 1.55-1.091 2.643-1.091 1.03 0 1.861.314 2.494.942.637.628.955 1.418.955 2.371v.82h-6.254V169.3h4.763v-.007a1.872 1.872 0 0 0-.562-1.281c-.343-.348-.809-.522-1.396-.522-.623 0-1.132.222-1.525.664-.393.439-.589 1.042-.589 1.81 0 .795.215 1.411.644 1.849.429.434.975.651 1.639.651.294 0 .554-.036.78-.108.226-.077.433-.181.623-.312.19-.136.407-.353.651-.651l1.023.746c-.285.429-.578.75-.881.962a3.589 3.589 0 0 1-.989.481c-.357.113-.795.169-1.315.169Zm7.394 0c-.488 0-.913-.061-1.274-.183a3.007 3.007 0 0 1-.956-.521 2.839 2.839 0 0 1-.63-.712l-.224-.372 1.119-.678.176.278c.122.185.268.352.44.501.176.149.377.262.603.339.231.077.495.115.793.115.416 0 .748-.081.996-.244a.772.772 0 0 0 .373-.684.722.722 0 0 0-.339-.63c-.226-.154-.669-.308-1.328-.461-.926-.221-1.579-.508-1.958-.861-.38-.352-.57-.811-.57-1.375 0-.61.258-1.105.773-1.484.519-.384 1.17-.576 1.951-.576.398 0 .755.043 1.071.129a2.7 2.7 0 0 1 .854.393c.257.171.458.354.603.549l.223.284-1.07.705-.17-.19a1.712 1.712 0 0 0-.894-.562 2.419 2.419 0 0 0-.63-.075c-.38 0-.685.077-.915.231-.23.153-.346.341-.346.562 0 .208.089.388.265.542.18.149.673.325 1.477.529.89.221 1.524.508 1.904.86.379.352.569.8.569 1.342 0 .673-.271 1.217-.813 1.633-.538.411-1.229.616-2.073.616Zm6.945 0c-.642 0-1.15-.183-1.525-.548-.375-.366-.562-.888-.562-1.566v-7.087h1.538v6.87c0 .339.072.592.217.759.144.167.366.251.664.251.09 0 .187-.011.291-.034.108-.022.235-.063.38-.122l.223-.088.197 1.22-.244.108a3.527 3.527 0 0 1-.529.17 2.83 2.83 0 0 1-.65.067Zm-3.293-6.03v-1.288h4.546v1.288h-4.546Zm11.964 6.03c-.488 0-.912-.061-1.274-.183a3.002 3.002 0 0 1-.955-.521 2.839 2.839 0 0 1-.63-.712l-.224-.372 1.118-.678.176.278c.122.185.269.352.441.501.176.149.377.262.603.339.23.077.494.115.793.115.415 0 .747-.081.996-.244a.773.773 0 0 0 .372-.684.723.723 0 0 0-.338-.63c-.226-.154-.669-.308-1.329-.461-.926-.221-1.578-.508-1.958-.861-.379-.352-.569-.811-.569-1.375 0-.61.257-1.105.772-1.484.52-.384 1.17-.576 1.952-.576.397 0 .754.043 1.071.129.316.085.6.216.853.393.258.171.459.354.603.549l.224.284-1.071.705-.169-.19a1.712 1.712 0 0 0-.894-.562 2.432 2.432 0 0 0-.631-.075c-.379 0-.684.077-.914.231-.231.153-.346.341-.346.562a.7.7 0 0 0 .264.542c.181.149.673.325 1.477.529.89.221 1.525.508 1.905.86.379.352.569.8.569 1.342 0 .673-.271 1.217-.813 1.633-.538.411-1.229.616-2.074.616Zm6.945 0c-.641 0-1.149-.183-1.524-.548-.375-.366-.563-.888-.563-1.566v-7.087h1.538v6.87c0 .339.073.592.217.759.145.167.366.251.664.251.091 0 .188-.011.292-.034.108-.022.235-.063.379-.122l.224-.088.196 1.22-.244.108a2.84 2.84 0 0 1-1.179.237Zm-3.293-6.03v-1.288h4.547v1.288h-4.547Zm6.136 5.8v-7.088h1.464v1.267l-.17-.162h.217c.14-.389.395-.707.766-.956.37-.253.77-.379 1.199-.379.14 0 .283.013.427.041.149.022.285.058.407.108l.189.075-.169 1.456-.197-.074a2.076 2.076 0 0 0-.413-.122 1.826 1.826 0 0 0-.393-.048c-.501 0-.924.19-1.267.57-.343.379-.515.894-.515 1.545v3.767h-1.545Zm8.639.23c-1.098 0-1.99-.35-2.677-1.05-.682-.705-1.023-1.613-1.023-2.724 0-1.066.332-1.96.996-2.683.669-.727 1.55-1.091 2.643-1.091 1.03 0 1.861.314 2.494.942.637.628.955 1.418.955 2.371v.82h-6.254V169.3h4.763v-.007a1.872 1.872 0 0 0-.562-1.281c-.343-.348-.809-.522-1.396-.522-.623 0-1.132.222-1.525.664-.393.439-.589 1.042-.589 1.81 0 .795.214 1.411.644 1.849.429.434.975.651 1.639.651.294 0 .554-.036.78-.108.226-.077.433-.181.623-.312.19-.136.407-.353.651-.651l1.023.746c-.285.429-.578.75-.881.962a3.589 3.589 0 0 1-.989.481c-.357.113-.795.169-1.315.169Zm7.055 0c-.773 0-1.405-.214-1.898-.643-.487-.434-.731-1.017-.731-1.749 0-.74.273-1.325.82-1.755.551-.433 1.264-.65 2.141-.65.406 0 .786.045 1.138.135.352.091.653.208.901.353v-.434c0-.492-.167-.872-.501-1.138-.33-.271-.759-.407-1.288-.407a2.66 2.66 0 0 0-.752.095 2.583 2.583 0 0 0-.555.237 3.43 3.43 0 0 0-.481.339l-.244.203-.874-.894.304-.264a4.19 4.19 0 0 1 .712-.495 3.44 3.44 0 0 1 .874-.352 4.46 4.46 0 0 1 1.145-.129c.967 0 1.735.248 2.304.745.574.497.861 1.184.861 2.06v4.513h-1.471v-1.47l.339.528h-.386c-.213.33-.527.608-.942.834-.411.225-.883.338-1.416.338Zm.359-1.172a1.93 1.93 0 0 0 1.436-.596c.393-.398.59-.879.59-1.443v-.028a2.392 2.392 0 0 0-.793-.399 3.308 3.308 0 0 0-.969-.143c-.533 0-.955.116-1.267.346-.307.23-.461.558-.461.982 0 .398.133.712.4.942.267.226.621.339 1.064.339Zm6.295-.644v-1.883l3.503-3.619h1.945l-5.448 5.502Zm-.921 1.586v-9.866h1.545v9.866h-1.545Zm4.783 0-2.5-3.781 1.057-1.091 3.293 4.872h-1.85Zm5.333.23c-.488 0-.912-.061-1.274-.183a3.002 3.002 0 0 1-.955-.521 2.839 2.839 0 0 1-.63-.712l-.224-.372 1.118-.678.176.278c.122.185.269.352.441.501.176.149.377.262.603.339a2.5 2.5 0 0 0 .793.115c.415 0 .747-.081.996-.244a.773.773 0 0 0 .372-.684.723.723 0 0 0-.338-.63c-.226-.154-.669-.308-1.328-.461-.927-.221-1.579-.508-1.959-.861-.379-.352-.569-.811-.569-1.375 0-.61.258-1.105.773-1.484.519-.384 1.17-.576 1.951-.576.398 0 .754.043 1.071.129.316.085.6.216.853.393.258.171.459.354.603.549l.224.284-1.071.705-.169-.19a1.712 1.712 0 0 0-.894-.562 2.432 2.432 0 0 0-.631-.075c-.379 0-.684.077-.914.231-.231.153-.346.341-.346.562a.7.7 0 0 0 .264.542c.181.149.673.325 1.478.529.889.221 1.524.508 1.904.86.379.352.569.8.569 1.342 0 .673-.271 1.217-.813 1.633-.538.411-1.229.616-2.074.616Zm10.28 0c-.641 0-1.149-.183-1.524-.548-.375-.366-.563-.888-.563-1.566v-7.087h1.539v6.87c0 .339.072.592.216.759.145.167.366.251.664.251.091 0 .188-.011.292-.034.108-.022.235-.063.379-.122l.224-.088.196 1.22-.244.108a2.84 2.84 0 0 1-1.179.237Zm-3.293-6.03v-1.288h4.547v1.288h-4.547Zm6.136 5.8v-9.866h1.538v3.774h.048a2.51 2.51 0 0 1 .942-.881c.411-.23.885-.345 1.423-.345.813 0 1.445.233 1.897.698.452.465.678 1.102.678 1.911v4.709h-1.545v-4.371c0-.542-.134-.95-.4-1.226-.267-.276-.653-.413-1.159-.413-.537 0-.985.194-1.341.582a1.952 1.952 0 0 0-.536 1.376v4.052h-1.545Zm10.546.23c-.773 0-1.405-.214-1.898-.643-.488-.434-.731-1.017-.731-1.749 0-.74.273-1.325.819-1.755.552-.433 1.265-.65 2.142-.65.406 0 .786.045 1.138.135.352.091.653.208.901.353v-.434c0-.492-.167-.872-.501-1.138-.33-.271-.759-.407-1.288-.407a2.66 2.66 0 0 0-.752.095 2.562 2.562 0 0 0-.555.237 3.43 3.43 0 0 0-.481.339l-.244.203-.875-.894.305-.264a4.19 4.19 0 0 1 .712-.495 3.44 3.44 0 0 1 .874-.352 4.46 4.46 0 0 1 1.145-.129c.967 0 1.735.248 2.304.745.574.497.861 1.184.861 2.06v4.513h-1.471v-1.47l.339.528h-.386c-.213.33-.527.608-.942.834-.411.225-.883.338-1.416.338Zm.359-1.172a1.93 1.93 0 0 0 1.436-.596c.393-.398.59-.879.59-1.443v-.028a2.392 2.392 0 0 0-.793-.399 3.308 3.308 0 0 0-.969-.143c-.533 0-.955.116-1.267.346-.307.23-.461.558-.461.982 0 .398.133.712.4.942.266.226.621.339 1.064.339Zm7.864 1.172c-.641 0-1.149-.183-1.524-.548-.375-.366-.563-.888-.563-1.566v-7.087h1.538v6.87c0 .339.073.592.217.759.145.167.366.251.664.251.091 0 .188-.011.292-.034a2.2 2.2 0 0 0 .379-.122l.224-.088.196 1.22-.244.108a2.84 2.84 0 0 1-1.179.237Zm-3.293-6.03v-1.288h4.547v1.288h-4.547Zm9.471 5.8v-7.088h1.464v1.267l-.17-.162h.217c.14-.389.395-.707.766-.956.37-.253.77-.379 1.199-.379.14 0 .283.013.427.041.149.022.285.058.407.108l.189.075-.169 1.456-.197-.074a2.076 2.076 0 0 0-.413-.122 1.826 1.826 0 0 0-.393-.048c-.501 0-.924.19-1.267.57-.343.379-.515.894-.515 1.545v3.767h-1.545Zm8.639.23c-1.098 0-1.99-.35-2.677-1.05-.682-.705-1.023-1.613-1.023-2.724 0-1.066.332-1.96.996-2.683.669-.727 1.55-1.091 2.643-1.091 1.03 0 1.861.314 2.494.942.637.628.955 1.418.955 2.371v.82h-6.254V169.3h4.763v-.007a1.872 1.872 0 0 0-.562-1.281c-.343-.348-.809-.522-1.396-.522-.623 0-1.132.222-1.525.664-.393.439-.589 1.042-.589 1.81 0 .795.214 1.411.644 1.849.429.434.975.651 1.639.651.294 0 .554-.036.78-.108.226-.077.433-.181.623-.312.19-.136.407-.353.651-.651l1.023.746c-.285.429-.578.75-.881.962a3.589 3.589 0 0 1-.989.481c-.357.113-.795.169-1.315.169Zm5.537-.23v-7.576c0-.7.233-1.255.698-1.666.465-.416 1.068-.624 1.809-.624h2.927v1.24h-2.717c-.343 0-.626.1-.847.298-.217.199-.325.484-.325.854v7.474h-1.545Zm-1.267-5.8v-1.288h2.039v1.288h-2.039Zm2.019 0v-1.288h2.527v1.288h-2.527Zm3.91 5.8v-9.866h1.545v9.866h-1.545Zm6.741.23c-1.098 0-1.99-.35-2.676-1.05-.683-.705-1.024-1.613-1.024-2.724 0-1.066.332-1.96.996-2.683.669-.727 1.55-1.091 2.643-1.091 1.03 0 1.861.314 2.494.942.637.628.955 1.418.955 2.371v.82h-6.254V169.3h4.763v-.007a1.872 1.872 0 0 0-.562-1.281c-.343-.348-.809-.522-1.396-.522-.623 0-1.132.222-1.525.664-.393.439-.589 1.042-.589 1.81 0 .795.215 1.411.644 1.849.429.434.975.651 1.639.651.294 0 .554-.036.78-.108.226-.077.433-.181.623-.312.19-.136.407-.353.651-.651l1.023.746c-.285.429-.578.75-.881.962a3.589 3.589 0 0 1-.989.481c-.357.113-.795.169-1.315.169Zm8.173 0c-1.102 0-1.999-.356-2.69-1.07-.687-.714-1.03-1.62-1.03-2.717 0-1.094.343-1.993 1.03-2.697.691-.709 1.594-1.064 2.71-1.064.416 0 .795.052 1.138.156.348.104.669.266.963.488.293.216.585.539.874.969l-1.145.765c-.204-.28-.391-.488-.563-.623a1.576 1.576 0 0 0-.569-.305 2.492 2.492 0 0 0-.711-.095c-.615 0-1.132.221-1.552.664-.42.443-.63 1.023-.63 1.742 0 .718.21 1.303.63 1.755.42.451.935.677 1.545.677.271 0 .519-.036.745-.108.231-.077.429-.181.596-.312.172-.135.369-.359.59-.671l1.199.698c-.302.474-.6.827-.894 1.057a3.17 3.17 0 0 1-1.01.515 4.106 4.106 0 0 1-1.226.176Zm7.079 0c-.642 0-1.15-.183-1.525-.548-.375-.366-.562-.888-.562-1.566v-7.087h1.538v6.87c0 .339.072.592.217.759.144.167.366.251.664.251.09 0 .187-.011.291-.034a2.18 2.18 0 0 0 .38-.122l.223-.088.197 1.22-.244.108a3.527 3.527 0 0 1-.529.17 2.824 2.824 0 0 1-.65.067Zm-3.293-6.03v-1.288h4.546v1.288h-4.546Zm9.471 5.8v-7.088h1.463v1.267l-.169-.162h.217c.14-.389.395-.707.766-.956.37-.253.77-.379 1.199-.379.14 0 .282.013.427.041.149.022.284.058.406.108l.19.075-.169 1.456-.197-.074a2.095 2.095 0 0 0-.413-.122 1.84 1.84 0 0 0-.393-.048c-.502 0-.924.19-1.267.57-.344.379-.515.894-.515 1.545v3.767h-1.545Zm8.639.23c-1.098 0-1.99-.35-2.677-1.05-.682-.705-1.023-1.613-1.023-2.724 0-1.066.332-1.96.996-2.683.669-.727 1.549-1.091 2.643-1.091 1.03 0 1.861.314 2.493.942.637.628.956 1.418.956 2.371v.82h-6.255V169.3h4.764v-.007a1.876 1.876 0 0 0-.562-1.281c-.344-.348-.809-.522-1.396-.522-.624 0-1.132.222-1.525.664-.393.439-.589 1.042-.589 1.81 0 .795.214 1.411.643 1.849.429.434.976.651 1.64.651.294 0 .553-.036.779-.108.226-.077.434-.181.624-.312.189-.136.406-.353.65-.651l1.023.746c-.284.429-.578.75-.88.962a3.595 3.595 0 0 1-.99.481c-.357.113-.795.169-1.314.169Zm7.054 0c-.772 0-1.405-.214-1.897-.643-.488-.434-.732-1.017-.732-1.749 0-.74.274-1.325.82-1.755.551-.433 1.265-.65 2.141-.65.407 0 .786.045 1.139.135.352.091.652.208.901.353v-.434c0-.492-.167-.872-.501-1.138-.33-.271-.759-.407-1.288-.407-.289 0-.54.032-.752.095a2.592 2.592 0 0 0-.556.237 3.49 3.49 0 0 0-.481.339l-.244.203-.874-.894.305-.264a4.19 4.19 0 0 1 .712-.495c.266-.154.557-.271.874-.352.32-.086.702-.129 1.145-.129.967 0 1.734.248 2.304.745.573.497.86 1.184.86 2.06v4.513h-1.47v-1.47l.339.528h-.387c-.212.33-.526.608-.941.834-.412.225-.884.338-1.417.338Zm.359-1.172c.57 0 1.048-.199 1.437-.596.393-.398.589-.879.589-1.443v-.028a2.386 2.386 0 0 0-.792-.399 3.308 3.308 0 0 0-.969-.143c-.533 0-.956.116-1.267.346-.308.23-.461.558-.461.982 0 .398.133.712.4.942.266.226.621.339 1.063.339Zm5.374.942v-9.866h1.545v9.866h-1.545Zm10.102.23c-1.102 0-1.999-.356-2.69-1.07-.687-.714-1.03-1.62-1.03-2.717 0-1.094.343-1.993 1.03-2.697.691-.709 1.595-1.064 2.71-1.064.416 0 .795.052 1.139.156.348.104.668.266.962.488.294.216.585.539.874.969l-1.145.765c-.203-.28-.391-.488-.563-.623a1.567 1.567 0 0 0-.569-.305 2.492 2.492 0 0 0-.711-.095c-.615 0-1.132.221-1.552.664-.42.443-.63 1.023-.63 1.742 0 .718.21 1.303.63 1.755.42.451.935.677 1.545.677.271 0 .52-.036.745-.108.231-.077.43-.181.597-.312.171-.135.368-.359.589-.671l1.2.698c-.303.474-.601.827-.895 1.057-.293.226-.63.398-1.009.515-.38.118-.789.176-1.227.176Zm7.791 0c-1.125 0-2.042-.356-2.751-1.07-.705-.714-1.058-1.613-1.058-2.697 0-1.102.357-2.008 1.071-2.717.714-.709 1.626-1.064 2.738-1.064 1.111 0 2.023.359 2.737 1.077.718.719 1.077 1.62 1.077 2.704 0 1.075-.354 1.972-1.063 2.69-.705.718-1.622 1.077-2.751 1.077Zm0-1.355c.655 0 1.194-.223 1.619-.671.429-.451.644-1.034.644-1.748 0-.709-.215-1.29-.644-1.741-.429-.452-.969-.678-1.619-.678-.66 0-1.202.226-1.627.678-.424.447-.637 1.027-.637 1.741 0 .718.213 1.301.637 1.748.425.448.967.671 1.627.671Zm5.294 1.125v-7.088h1.477v1.193l-.129-.183h.17c.217-.361.533-.657.948-.888a2.735 2.735 0 0 1 1.356-.352c.537 0 1 .12 1.389.359.388.239.664.583.826 1.03a2.706 2.706 0 0 1 1.03-1.023 2.946 2.946 0 0 1 1.457-.366c.813 0 1.432.233 1.857.698.429.465.644 1.116.644 1.951v4.669h-1.539v-4.357c0-.556-.124-.969-.372-1.24-.249-.271-.617-.407-1.105-.407-.479 0-.887.186-1.226.556-.335.37-.502.838-.502 1.403v4.045h-1.538v-4.357c0-.56-.126-.973-.379-1.24-.253-.271-.619-.407-1.098-.407-.479 0-.885.19-1.22.57a1.998 1.998 0 0 0-.501 1.368v4.066h-1.545Zm12.89 0v-7.088h1.477v1.193l-.128-.183h.169a2.48 2.48 0 0 1 .949-.888 2.73 2.73 0 0 1 1.355-.352c.538 0 1.001.12 1.389.359.389.239.664.583.827 1.03a2.699 2.699 0 0 1 1.03-1.023 2.94 2.94 0 0 1 1.456-.366c.814 0 1.432.233 1.857.698.429.465.644 1.116.644 1.951v4.669h-1.538v-4.357c0-.556-.125-.969-.373-1.24s-.617-.407-1.104-.407c-.479 0-.888.186-1.227.556-.334.37-.501.838-.501 1.403v4.045h-1.539v-4.357c0-.56-.126-.973-.379-1.24-.253-.271-.619-.407-1.098-.407-.479 0-.885.19-1.219.57a1.994 1.994 0 0 0-.502 1.368v4.066h-1.545Zm12.945 0v-7.088h1.545v7.088h-1.545Zm.779-8.423a.925.925 0 0 1-.678-.284.929.929 0 0 1-.284-.678.88.88 0 0 1 .284-.671.953.953 0 0 1 .678-.271.91.91 0 0 1 .678.271c.18.177.271.4.271.671a.953.953 0 0 1-.271.678.883.883 0 0 1-.678.284Zm5.416 8.653c-.642 0-1.15-.183-1.525-.548-.375-.366-.562-.888-.562-1.566v-7.087h1.538v6.87c0 .339.072.592.217.759.144.167.366.251.664.251.09 0 .187-.011.291-.034a2.18 2.18 0 0 0 .38-.122l.223-.088.197 1.22-.244.108a3.527 3.527 0 0 1-.529.17 2.824 2.824 0 0 1-.65.067Zm-3.293-6.03v-1.288h4.546v1.288h-4.546Zm6.136 5.8v-7.088h1.477v1.193l-.129-.183h.169c.217-.361.534-.657.949-.888a2.73 2.73 0 0 1 1.355-.352c.538 0 1.001.12 1.389.359.389.239.664.583.827 1.03a2.699 2.699 0 0 1 1.03-1.023 2.944 2.944 0 0 1 1.457-.366c.813 0 1.432.233 1.856.698.43.465.644 1.116.644 1.951v4.669h-1.538v-4.357c0-.556-.124-.969-.373-1.24-.248-.271-.616-.407-1.104-.407-.479 0-.888.186-1.227.556-.334.37-.501.838-.501 1.403v4.045h-1.538v-4.357c0-.56-.127-.973-.38-1.24-.253-.271-.618-.407-1.097-.407s-.886.19-1.22.57a1.998 1.998 0 0 0-.501 1.368v4.066h-1.545Zm16.142.23c-1.097 0-1.989-.35-2.676-1.05-.682-.705-1.023-1.613-1.023-2.724 0-1.066.332-1.96.996-2.683.668-.727 1.549-1.091 2.642-1.091 1.03 0 1.862.314 2.494.942.637.628.955 1.418.955 2.371v.82h-6.254V169.3h4.764v-.007a1.873 1.873 0 0 0-.563-1.281c-.343-.348-.808-.522-1.396-.522-.623 0-1.131.222-1.524.664-.393.439-.59 1.042-.59 1.81 0 .795.215 1.411.644 1.849.429.434.976.651 1.64.651.293 0 .553-.036.779-.108.226-.077.434-.181.623-.312.19-.136.407-.353.651-.651l1.023.746c-.284.429-.578.75-.881.962a3.589 3.589 0 0 1-.989.481c-.357.113-.795.169-1.315.169Zm4.9-.23v-7.088h1.478v1.261l-.19-.244h.237c.226-.371.556-.671.989-.902.434-.23.906-.345 1.416-.345.823 0 1.46.233 1.911.698.457.461.685 1.098.685 1.911v4.709h-1.545v-4.371c0-.528-.129-.932-.387-1.212-.257-.281-.655-.421-1.192-.421-.533 0-.976.188-1.328.563-.353.37-.529.829-.529 1.375v4.066h-1.545Zm11.04.23c-.641 0-1.149-.183-1.524-.548-.375-.366-.563-.888-.563-1.566v-7.087h1.539v6.87c0 .339.072.592.216.759.145.167.366.251.664.251.091 0 .188-.011.292-.034.108-.022.235-.063.379-.122l.224-.088.196 1.22-.244.108a2.84 2.84 0 0 1-1.179.237Zm-3.293-6.03v-1.288h4.547v1.288h-4.547Z"/><path fill="url(#a)" d="M254.099 28.285c1.821 2.034 2.96 4.93 2.96 8.146 0 6.155-4.171 11.145-9.315 11.145-5.145 0-9.788-5.008-9.316-11.145 1.165-15.138 1.497-24.62-18.132-36.431 5.656 3.993 19.13 11.977 5.989 31.274-2.969 4.358-4.326 8.15-3.427 15.564-5.03-10.176-2.233-24.906 1.583-30.963-4.838 6.224-10.684 12.468-15.162 20.824-4.478 8.356-7.587 18.825-6.948 33.5.07 1.62.243 3.161.494 4.64 2.187 15.155 15.222 26.801 30.983 26.801 17.292 0 31.244-14.018 31.31-31.31.081-21.033-3.041-35.33-11.019-42.045Z"/><path fill="url(#b)" d="M246.14 52.609c1.164 1.25 1.893 3.03 1.893 5.006 0 3.783-2.668 6.85-5.958 6.85s-6.26-3.077-5.958-6.85c.745-9.303.434-21.931-7.714-26.005 3.617 2.454 8.353 10.977-.052 22.836-1.899 2.68-2.767 5.01-2.192 9.566-3.217-6.254-1.428-15.308 1.012-19.03-3.094 3.826-6.833 7.663-9.697 12.799-2.864 5.136-4.852 11.57-4.444 20.59.045.995.168 1.94.316 2.851 1.517 9.296 9.736 16.472 19.816 16.472 11.059 0 19.983-8.616 20.025-19.244.051-12.927-1.945-21.714-7.047-25.841Z"/><path fill="url(#c)" d="M238.18 76.932c.509.466.827 1.13.827 1.867 0 1.411-1.164 2.555-2.6 2.555-1.436 0-2.732-1.148-2.6-2.555.325-3.47.417-5.643-5.062-8.35 1.579.916 5.341 2.746 1.672 7.169-.829.999-1.207 1.868-.956 3.567-1.405-2.332-.624-5.709.441-7.097-1.35 1.427-2.982 2.857-4.232 4.773-1.249 1.915-2.117 4.315-1.939 7.679.019.37.068.724.138 1.063.61 3.474 4.249 6.143 8.648 6.143 4.827 0 8.722-3.213 8.74-7.177.021-4.82-.85-8.098-3.077-9.637Z"/><g filter="url(#d)"><path fill="#fff" d="M446.55 198.458h32.407v99.666H446.55z"/></g><g filter="url(#e)"><path fill="#fff" d="M-13.199 198.458h42.156v99.666h-42.156z"/></g><defs><linearGradient id="a" x1="203.652" x2="253.137" y1="9.61" y2="95.321" gradientUnits="userSpaceOnUse"><stop stop-color="#D22F02"/><stop offset=".237" stop-color="#CC2D02"/><stop offset=".538" stop-color="#BD2602"/><stop offset=".872" stop-color="#A31C03"/><stop offset="1" stop-color="#971703"/></linearGradient><linearGradient id="b" x1="213.949" x2="245.141" y1="39.955" y2="93.981" gradientUnits="userSpaceOnUse"><stop stop-color="#FF6100"/><stop offset=".292" stop-color="#FF6D01"/><stop offset=".812" stop-color="#FF8B02"/><stop offset="1" stop-color="#FF9803"/></linearGradient><linearGradient id="c" x1="225.395" x2="237.116" y1="72.383" y2="92.685" gradientUnits="userSpaceOnUse"><stop offset=".005" stop-color="#FF9803"/><stop offset=".995" stop-color="#FAF154"/></linearGradient><filter id="d" width="72.407" height="139.666" x="426.55" y="178.458" color-interpolation-filters="sRGB" filterUnits="userSpaceOnUse"><feFlood flood-opacity="0" result="BackgroundImageFix"/><feBlend in="SourceGraphic" in2="BackgroundImageFix" result="shape"/><feGaussianBlur result="effect1_foregroundBlur_500_506" stdDeviation="10"/></filter><filter id="e" width="82.156" height="139.666" x="-33.199" y="178.458" color-interpolation-filters="sRGB" filterUnits="userSpaceOnUse"><feFlood flood-opacity="0" result="BackgroundImageFix"/><feBlend in="SourceGraphic" in2="BackgroundImageFix" result="shape"/><feGaussianBlur result="effect1_foregroundBlur_500_506" stdDeviation="10"/></filter></defs></svg>