<svg xmlns="http://www.w3.org/2000/svg" width="24" height="24" fill="none"><g fill="#fff" clip-path="url(#a)"><path d="M10.899 15.586c-.238.71-.497 1.406-.782 2.093a29.696 29.696 0 0 1-1.44 2.995.374.374 0 0 0 .218.537l2.198.679a.375.375 0 0 0 .41-.133c.206-.277.397-.565.574-.869a7.503 7.503 0 0 1-.093.877.375.375 0 0 0 .27.437l4.203 1.126a.373.373 0 0 0 .426-.166c.03-.046.058-.096.085-.143l-.005.118c-.02.18.096.353.275.4l1.677.45a.375.375 0 0 0 .427-.185c.442-.82.863-1.62 1.245-2.568.318-.79.606-1.673.848-2.739l-10.148-2.72a1.149 1.149 0 0 1-.388-.189Zm10.509-.385c-.312-.651-.884-1.157-1.828-1.41l-4.744-1.272a2.925 2.925 0 0 0-2.252.293 2.93 2.93 0 0 0-1.361 1.757.373.373 0 0 0 .259.48l9.706 2.603v-.002a.373.373 0 0 0 .468-.314c.097-.765.052-1.51-.248-2.135Zm.17-13.635c.004-.015.008-.03.01-.044a1.224 1.224 0 0 0-.13-.908 1.224 1.224 0 0 0-.718-.565c-.016-.005-.032-.01-.05-.013a1.225 1.225 0 0 0-.907.13h.001a1.22 1.22 0 0 0-.573.744L16.21 12.111l2.372.636 2.996-11.181ZM5.767 18.547H2.672a.374.374 0 1 0 0 .75h3.095a.375.375 0 1 0 0-.75Zm1.63-2.627H4.303a.374.374 0 1 0 0 .75h3.095a.375.375 0 1 0 0-.75Zm1.416-6.287A.37.37 0 0 0 9 9.444 3.86 3.86 0 0 1 9.793 8.3c.33-.33.716-.6 1.143-.79a.373.373 0 0 0 0-.684 3.88 3.88 0 0 1-1.935-1.935.373.373 0 0 0-.682 0 3.86 3.86 0 0 1-.791 1.144c-.33.33-.717.6-1.143.791-.189.084-.274.306-.189.494a.37.37 0 0 0 .189.19 3.867 3.867 0 0 1 1.934 1.934c.084.189.305.272.494.189Z"/></g><defs><clipPath id="a"><path fill="#fff" d="M0 0h24v24H0z"/></clipPath></defs></svg>