<svg xmlns="http://www.w3.org/2000/svg" width="229" height="95" fill="none"><g filter="url(#a)"><foreignObject width="257" height="123" x="-14" y="-18"><div xmlns="http://www.w3.org/1999/xhtml" style="backdrop-filter:blur(10px);clip-path:url(#b);height:100%;width:100%"/></foreignObject><g data-figma-bg-blur-radius="20"><rect width="217" height="83" x="6" y="2" fill="#fff" fill-opacity=".8" rx="10"/><path fill="#131515" d="M26.256 31.237c-.614 0-1.158-.088-1.633-.265a3.268 3.268 0 0 1-1.186-.767 3.548 3.548 0 0 1-.718-1.033l-.238-.544 1.41-.628.188.419c.126.279.29.527.495.746.21.214.459.38.747.495.293.112.628.168 1.005.168.576 0 1.037-.142 1.381-.426.344-.284.516-.65.516-1.102 0-.423-.158-.768-.474-1.033-.312-.27-.937-.544-1.877-.823-1.102-.335-1.874-.732-2.316-1.193-.437-.46-.656-1.035-.656-1.723 0-.8.305-1.458.914-1.975.614-.52 1.407-.781 2.38-.781.525 0 .99.07 1.395.21.404.139.755.343 1.053.613.298.27.521.544.67.823l.223.419-1.367.62-.154-.257a2.147 2.147 0 0 0-.418-.51 1.905 1.905 0 0 0-.621-.383 2.293 2.293 0 0 0-.817-.133c-.507 0-.914.116-1.22.349a1.08 1.08 0 0 0-.461.914c0 .354.142.649.425.886.284.233.921.502 1.912.81 1.047.311 1.805.716 2.275 1.213.474.498.711 1.121.711 1.87 0 .898-.325 1.626-.977 2.184-.65.558-1.507.837-2.567.837ZM31.37 31V20.855h1.577v3.894h.042c.223-.368.546-.67.97-.907.423-.238.907-.356 1.45-.356.838 0 1.487.24 1.948.718.465.48.697 1.135.697 1.968V31H36.47v-4.486c0-.558-.137-.98-.411-1.263-.27-.284-.665-.426-1.186-.426-.55 0-1.007.2-1.375.6-.363.4-.544.872-.544 1.417V31H31.37Zm12.032.237c-1.154 0-2.093-.367-2.819-1.102-.726-.735-1.088-1.658-1.088-2.77 0-1.13.365-2.06 1.095-2.79.735-.731 1.672-1.096 2.812-1.096s2.074.37 2.805 1.11c.734.734 1.102 1.66 1.102 2.776 0 1.107-.363 2.03-1.089 2.77-.725.735-1.665 1.102-2.818 1.102Zm0-1.388c.67 0 1.223-.23 1.66-.69.442-.466.663-1.066.663-1.801 0-.73-.22-1.328-.663-1.793-.442-.465-.995-.698-1.66-.698-.675 0-1.23.233-1.668.698-.437.46-.655 1.058-.655 1.793 0 .735.218 1.335.655 1.8.438.46.993.69 1.668.69ZM48.827 31v-7.284h1.5v1.312l-.181-.175h.223c.144-.4.407-.728.789-.983a2.169 2.169 0 0 1 1.674-.35c.149.024.286.061.412.112l.188.07-.154 1.5-.209-.077a2.485 2.485 0 0 0-.425-.118 1.906 1.906 0 0 0-.405-.049 1.69 1.69 0 0 0-1.305.586c-.349.39-.523.916-.523 1.577V31h-1.584Zm8.629.237c-.66 0-1.184-.188-1.57-.565-.386-.377-.58-.912-.58-1.605v-7.29h1.585v7.053c0 .354.074.619.223.796.149.172.377.258.684.258.093 0 .193-.012.3-.035.107-.023.234-.063.383-.119l.224-.09.195 1.255-.251.105c-.168.07-.35.126-.544.167-.191.047-.407.07-.65.07Zm-3.384-6.195v-1.326h4.66v1.326h-4.66Zm9.584 6.195c-1.12 0-2.032-.36-2.735-1.081-.702-.721-1.053-1.654-1.053-2.798 0-1.098.342-2.019 1.026-2.763.688-.744 1.588-1.116 2.7-1.116 1.06 0 1.916.323 2.567.97.651.646.977 1.458.977 2.435v.837h-6.419v-1.06h4.884v-.008a1.944 1.944 0 0 0-.572-1.318c-.354-.358-.833-.538-1.438-.538-.637 0-1.158.228-1.562.684-.4.451-.6 1.07-.6 1.856 0 .819.218 1.454.656 1.905.441.451 1.004.677 1.688.677.302 0 .567-.038.795-.112.233-.08.447-.188.642-.328s.416-.363.663-.67l1.06.754c-.293.446-.593.779-.9.998a3.59 3.59 0 0 1-1.018.502c-.372.116-.826.174-1.36.174ZM68.682 31v-7.284h1.507v1.29l-.196-.243h.244a2.58 2.58 0 0 1 1.012-.928 3.06 3.06 0 0 1 1.458-.356c.842 0 1.496.24 1.96.719.466.479.698 1.137.698 1.974V31h-1.583v-4.486c0-.544-.133-.96-.398-1.25-.26-.287-.667-.432-1.22-.432a1.79 1.79 0 0 0-1.361.58c-.359.38-.538.853-.538 1.416V31h-1.583Zm11.991 0v-7.284h1.5v1.312l-.181-.175h.223c.144-.4.407-.728.788-.983a2.169 2.169 0 0 1 1.675-.35c.149.024.286.061.412.112l.188.07-.154 1.5-.209-.077a2.488 2.488 0 0 0-.425-.118 1.907 1.907 0 0 0-.405-.049 1.69 1.69 0 0 0-1.305.586c-.349.39-.523.916-.523 1.577V31h-1.584Zm8.834.237c-1.122 0-2.033-.36-2.736-1.081-.702-.721-1.053-1.654-1.053-2.798 0-1.098.342-2.019 1.026-2.763.688-.744 1.588-1.116 2.7-1.116 1.06 0 1.916.323 2.567.97.651.646.977 1.458.977 2.435v.837h-6.419v-1.06h4.884v-.008a1.944 1.944 0 0 0-.572-1.318c-.354-.358-.833-.538-1.437-.538-.638 0-1.159.228-1.563.684-.4.451-.6 1.07-.6 1.856 0 .819.218 1.454.656 1.905.442.451 1.004.677 1.688.677.302 0 .567-.038.796-.112.232-.08.446-.188.641-.328.196-.14.417-.363.663-.67l1.06.754c-.292.446-.592.779-.9.998a3.59 3.59 0 0 1-1.018.502c-.372.116-.826.174-1.36.174Zm7.236 0c-.795 0-1.444-.22-1.946-.663-.502-.446-.754-1.044-.754-1.793 0-.758.282-1.358.845-1.8.567-.442 1.302-.663 2.204-.663.414 0 .803.047 1.165.14.363.088.67.207.921.356v-.454c0-.502-.172-.89-.516-1.165-.34-.279-.781-.418-1.326-.418a2.66 2.66 0 0 0-.767.097 2.687 2.687 0 0 0-.572.244 3.01 3.01 0 0 0-.496.35l-.244.209-.907-.914.314-.28a4.5 4.5 0 0 1 .726-.509 3.96 3.96 0 0 1 .9-.363 4.52 4.52 0 0 1 1.172-.132c.995 0 1.786.256 2.372.767.591.512.886 1.219.886 2.121V31h-1.514v-1.528l.363.558h-.405c-.218.34-.541.626-.97.858-.423.233-.906.35-1.45.35Zm.37-1.207a1.99 1.99 0 0 0 1.472-.607c.405-.41.607-.907.607-1.493v-.028a2.43 2.43 0 0 0-.816-.398 3.317 3.317 0 0 0-.984-.146c-.549 0-.983.119-1.304.356-.321.232-.482.567-.482 1.005 0 .404.137.725.412.962.274.233.64.35 1.095.35Zm8.541 1.207c-1 0-1.835-.358-2.504-1.074-.665-.716-.998-1.647-.998-2.791 0-1.163.333-2.1.998-2.812.665-.711 1.488-1.067 2.47-1.067.553 0 1.046.123 1.479.37.437.241.762.544.976.907h.049v-3.915h1.577V31h-1.528v-1.284l.209.293h-.258a2.716 2.716 0 0 1-1.004.886c-.428.228-.917.342-1.466.342Zm.307-1.346c.638 0 1.166-.23 1.584-.691.423-.465.635-1.075.635-1.828 0-.758-.216-1.367-.649-1.828-.428-.465-.951-.698-1.57-.698-.641 0-1.174.233-1.597.698-.424.465-.635 1.072-.635 1.821 0 .749.209 1.358.628 1.828.418.465.953.698 1.604.698ZM111.73 31v-7.284h1.584V31h-1.584Zm.796-8.658a.964.964 0 0 1-.698-.287.95.95 0 0 1-.293-.697.9.9 0 0 1 .293-.69.99.99 0 0 1 .698-.273.944.944 0 0 1 .976.963c0 .27-.093.502-.279.697a.92.92 0 0 1-.697.287ZM115.354 31v-7.284h1.507v1.29l-.196-.243h.244c.233-.382.57-.691 1.012-.928a3.063 3.063 0 0 1 1.458-.356c.842 0 1.496.24 1.961.719.465.479.697 1.137.697 1.974V31h-1.583v-4.486c0-.544-.133-.96-.398-1.25-.26-.287-.667-.432-1.221-.432-.544 0-.998.193-1.36.58-.359.38-.538.853-.538 1.416V31h-1.583Zm11.822 3.272a4.66 4.66 0 0 1-1.326-.174 3.475 3.475 0 0 1-1.053-.496 3.002 3.002 0 0 1-.747-.725l-.272-.39 1.158-.79.21.287c.144.195.311.365.502.51.195.148.416.262.663.34.246.08.516.12.809.12.73 0 1.281-.2 1.654-.6.372-.396.558-.942.558-1.64v-.949h-.042a2.507 2.507 0 0 1-.977.9c-.419.219-.898.328-1.437.328-.986 0-1.8-.342-2.442-1.026-.637-.688-.956-1.602-.956-2.741 0-1.13.33-2.038.991-2.721.66-.684 1.472-1.026 2.435-1.026.549 0 1.035.119 1.458.356.428.232.749.52.963.865h.39l-.348.405v-1.389h1.528v6.95c0 1.143-.338 2.03-1.012 2.657-.675.633-1.577.95-2.707.95Zm.028-4.625c.632 0 1.153-.221 1.563-.663.409-.442.614-1.035.614-1.78 0-.725-.203-1.304-.607-1.737-.405-.437-.924-.656-1.556-.656-.628 0-1.147.217-1.556.65-.405.427-.607 1.011-.607 1.75 0 .787.202 1.389.607 1.808.409.418.923.628 1.542.628Zm11.808 1.59c-.66 0-1.183-.188-1.569-.565-.386-.377-.579-.912-.579-1.605v-7.29h1.583v7.053c0 .354.075.619.224.796.148.172.376.258.683.258.093 0 .193-.012.3-.035.107-.023.235-.063.384-.119l.223-.09.196 1.255-.252.105c-.167.07-.348.126-.544.167-.19.047-.407.07-.649.07Zm-3.383-6.195v-1.326h4.66v1.326h-4.66Zm9.703 6.195c-1.154 0-2.093-.367-2.819-1.102-.726-.735-1.088-1.658-1.088-2.77 0-1.13.365-2.06 1.095-2.79.735-.731 1.672-1.096 2.812-1.096 1.139 0 2.074.37 2.804 1.11.735.734 1.103 1.66 1.103 2.776 0 1.107-.363 2.03-1.089 2.77-.725.735-1.665 1.102-2.818 1.102Zm0-1.388c.669 0 1.223-.23 1.66-.69.442-.466.663-1.066.663-1.801 0-.73-.221-1.328-.663-1.793-.442-.465-.995-.698-1.66-.698-.675 0-1.231.233-1.668.698-.437.46-.656 1.058-.656 1.793 0 .735.219 1.335.656 1.8.437.46.993.69 1.668.69Zm12.012 1.381c-1.079 0-1.951-.328-2.616-.983-.665-.661-.998-1.505-.998-2.533 0-.675.172-1.335.517-1.982.344-.646.825-1.346 1.444-2.1l2.351-2.972 1.214.935-2.316 2.965c-.289.335-.675.675-1.158 1.019-.48.344-.835 1.06-1.068 2.149l-.809-.014c.209-1.107.681-1.923 1.416-2.45a4.142 4.142 0 0 1 2.484-.794c.874 0 1.616.307 2.225.92.61.614.914 1.394.914 2.338 0 .986-.337 1.816-1.011 2.49-.67.675-1.533 1.012-2.589 1.012Zm.007-1.444c.582 0 1.056-.186 1.424-.558.372-.372.558-.858.558-1.458 0-.582-.186-1.056-.558-1.424-.372-.372-.847-.558-1.424-.558-.586 0-1.067.184-1.444.551-.377.368-.565.845-.565 1.43 0 .6.188 1.087.565 1.459.377.372.858.558 1.444.558Zm8.463 4.249V23.716h1.528v1.493l-.349-.404h.391c.232-.391.572-.71 1.018-.956.447-.247.947-.37 1.5-.37.991 0 1.814.356 2.47 1.067.661.707.991 1.642.991 2.805 0 1.158-.337 2.096-1.012 2.812-.67.716-1.484 1.074-2.442 1.074-.572 0-1.076-.114-1.514-.342-.432-.232-.751-.525-.956-.879h-.041v4.019h-1.584Zm3.746-4.151c.656 0 1.189-.235 1.598-.705.414-.474.621-1.086.621-1.835 0-.753-.212-1.36-.635-1.82a2.055 2.055 0 0 0-1.577-.692c-.637 0-1.169.238-1.597.712-.424.47-.635 1.072-.635 1.807 0 .749.207 1.358.621 1.828.414.47.949.705 1.604.705Zm7.541 1.353c-.795 0-1.444-.22-1.947-.663-.502-.446-.753-1.044-.753-1.793 0-.758.281-1.358.844-1.8.568-.442 1.303-.663 2.205-.663.414 0 .802.047 1.165.14.363.088.67.207.921.356v-.454c0-.502-.172-.89-.516-1.165-.34-.279-.782-.418-1.326-.418a2.65 2.65 0 0 0-.767.097 2.709 2.709 0 0 0-.573.244c-.167.094-.332.21-.495.35l-.244.209-.907-.914.314-.28a4.024 4.024 0 0 1 1.626-.872 4.514 4.514 0 0 1 1.172-.132c.995 0 1.786.256 2.372.767.591.512.886 1.219.886 2.121V31h-1.514v-1.528l.363.558h-.405c-.219.34-.542.626-.97.858-.423.233-.907.35-1.451.35Zm.37-1.207a1.99 1.99 0 0 0 1.472-.607c.405-.41.607-.907.607-1.493v-.028a2.427 2.427 0 0 0-.816-.398 3.325 3.325 0 0 0-.984-.146c-.549 0-.984.119-1.305.356-.321.232-.481.567-.481 1.005 0 .404.137.725.411.962.275.233.64.35 1.096.35Zm8.736 4.242c-.493 0-.935-.058-1.325-.174a3.492 3.492 0 0 1-1.054-.496 3.014 3.014 0 0 1-.746-.725l-.272-.39 1.158-.79.209.287c.144.195.312.365.502.51.196.148.417.262.663.34.247.08.517.12.81.12.73 0 1.281-.2 1.653-.6.372-.396.558-.942.558-1.64v-.949h-.042a2.504 2.504 0 0 1-.976.9c-.419.219-.898.328-1.438.328-.986 0-1.8-.342-2.442-1.026-.637-.688-.955-1.602-.955-2.741 0-1.13.33-2.038.99-2.721.661-.684 1.472-1.026 2.435-1.026.549 0 1.035.119 1.458.356.428.232.749.52.963.865h.391l-.349.405v-1.389h1.528v6.95c0 1.143-.337 2.03-1.012 2.657-.674.633-1.576.95-2.707.95Zm.028-4.625c.633 0 1.154-.221 1.563-.663.409-.442.614-1.035.614-1.78 0-.725-.202-1.304-.607-1.737-.405-.437-.923-.656-1.556-.656-.628 0-1.146.217-1.556.65-.404.427-.607 1.011-.607 1.75 0 .787.203 1.389.607 1.808.41.418.924.628 1.542.628Zm9.002 1.59c-1.121 0-2.032-.36-2.735-1.081-.702-.721-1.053-1.654-1.053-2.798 0-1.098.342-2.019 1.025-2.763.689-.744 1.589-1.116 2.7-1.116 1.061 0 1.917.323 2.568.97.651.646.977 1.458.977 2.435v.837H192.3v-1.06h4.884v-.008a1.947 1.947 0 0 0-.572-1.318c-.354-.358-.833-.538-1.438-.538-.637 0-1.158.228-1.562.684-.4.451-.6 1.07-.6 1.856 0 .819.218 1.454.655 1.905.442.451 1.005.677 1.689.677.302 0 .567-.038.795-.112.233-.08.447-.188.642-.328s.416-.363.663-.67l1.06.754c-.293.446-.593.779-.9.998a3.587 3.587 0 0 1-1.018.502c-.372.116-.826.174-1.361.174Zm7.586 0c-.498 0-.933-.063-1.305-.188a3 3 0 0 1-.976-.53 2.864 2.864 0 0 1-.656-.733l-.23-.384 1.151-.697.181.286c.126.19.277.362.454.516.181.149.388.263.621.342.237.079.509.118.816.118.428 0 .77-.083 1.026-.25a.791.791 0 0 0 .383-.698.744.744 0 0 0-.349-.65c-.228-.157-.683-.316-1.367-.474-.949-.228-1.621-.52-2.016-.879-.391-.363-.587-.835-.587-1.416 0-.628.266-1.137.796-1.528.535-.395 1.202-.593 2.002-.593.414 0 .784.044 1.11.132.325.089.618.224.879.405.265.177.472.365.621.565l.223.3-1.102.726-.168-.203a1.755 1.755 0 0 0-.928-.579 2.48 2.48 0 0 0-.642-.076c-.39 0-.707.079-.949.237-.237.158-.355.349-.355.572 0 .219.09.407.272.565.186.154.693.335 1.521.544.916.224 1.569.517 1.96.88.391.362.586.82.586 1.374 0 .698-.279 1.258-.837 1.681-.553.424-1.265.635-2.135.635Z"/><rect width="104" height="26" x="22" y="43" fill="#131515" fill-opacity=".2" rx="13"/><path fill="#131515" d="M40.719 60v-7.212h1.291V60h-1.29Zm-2.36-6.582v-1.189h6.012v1.189h-6.013ZM44.924 60v-5.752h1.199v1.015l-.125-.13h.163c.116-.315.32-.572.613-.771a1.66 1.66 0 0 1 .966-.304c.123 0 .248.013.374.038.127.022.245.056.353.103l.163.07-.217 1.162-.152-.065a1.68 1.68 0 0 0-.63-.141c-.405 0-.746.152-1.025.456-.275.303-.412.74-.412 1.307V60h-1.27Zm5.104 2.377 1.493-3.088.01.727-2.507-5.768h1.33l1.4 3.527.195.565h.033l.206-.57 1.433-3.522h1.291l-3.587 8.129H50.03Zm10.758-2.193c-.524 0-.939-.146-1.243-.439-.3-.297-.45-.72-.45-1.27v-5.709h1.27v5.568c0 .253.056.445.168.575.112.13.29.196.532.196.08 0 .164-.011.255-.033.094-.022.199-.058.315-.108l.179-.082.26.955-.217.109a2.34 2.34 0 0 1-.477.168c-.174.047-.371.07-.592.07Zm-2.691-4.872v-1.064h3.766v1.064h-3.767ZM63.25 60v-7.982h1.27v3.022h.032c.185-.282.443-.515.776-.7.337-.184.735-.277 1.194-.277.658 0 1.168.183 1.53.548.366.366.548.869.548 1.509V60h-1.27v-3.581c0-.438-.106-.762-.32-.972-.213-.213-.526-.32-.938-.32-.456 0-.829.15-1.118.45-.29.3-.434.66-.434 1.08V60h-1.27Zm6.99 0v-5.752h1.27V60h-1.27Zm.646-6.832a.77.77 0 0 1-.564-.233.762.762 0 0 1-.234-.56c0-.22.078-.403.234-.547a.788.788 0 0 1 .564-.223.74.74 0 0 1 .554.223.74.74 0 0 1 .222.553.775.775 0 0 1-.222.554.723.723 0 0 1-.554.233Zm4.323 7.022c-.409 0-.76-.052-1.053-.157a2.387 2.387 0 0 1-1.264-1.004l-.168-.293.895-.548.136.222c.094.145.21.279.347.402.141.119.304.211.489.276.188.062.401.093.64.093.333 0 .599-.067.798-.201a.62.62 0 0 0 .304-.543.59.59 0 0 0-.288-.526c-.192-.127-.543-.253-1.053-.38-.752-.185-1.277-.416-1.574-.695-.293-.282-.439-.653-.439-1.112 0-.496.204-.897.613-1.205.413-.307.935-.461 1.569-.461.321 0 .607.034.857.103.25.069.476.17.678.304.203.134.364.277.483.429l.185.222-.858.592-.135-.152a1.497 1.497 0 0 0-.315-.266 1.333 1.333 0 0 0-.396-.168 2.067 2.067 0 0 0-.5-.055c-.307 0-.553.062-.738.185-.18.12-.27.267-.27.445 0 .159.07.298.21.418.142.119.547.27 1.216.45.695.18 1.192.412 1.493.695.303.278.455.645.455 1.101 0 .55-.218.993-.656 1.33-.434.332-.988.499-1.66.499Zm7.532-.19-1.84-5.752h1.26l1.03 3.587.196.7h.038l.206-.69 1.091-3.597h1.134l1.107 3.587.201.694h.038l.19-.694 1.036-3.587h1.194L87.793 60h-1.15l-1.161-3.609-.206-.705h-.038l-.201.705L83.897 60h-1.156Zm10.343.184c-.908 0-1.644-.282-2.209-.846-.56-.564-.84-1.3-.84-2.209 0-.857.27-1.582.813-2.176.546-.593 1.277-.89 2.192-.89.84 0 1.516.255 2.03.765.517.51.776 1.156.776 1.938v.684h-5.123v-.858h3.907v-.005a1.532 1.532 0 0 0-.445-1.048c-.275-.285-.656-.428-1.145-.428-.506 0-.924.179-1.253.537-.33.354-.494.845-.494 1.47 0 .655.175 1.155.526 1.498.351.344.8.516 1.346.516a2.1 2.1 0 0 0 .63-.087c.184-.058.356-.138.515-.239.163-.105.346-.271.548-.5l.809.652c-.239.322-.48.565-.722.727-.239.16-.503.282-.792.37-.29.086-.646.13-1.07.13Zm6.74 0c-.907 0-1.644-.282-2.208-.846-.56-.564-.841-1.3-.841-2.209 0-.857.271-1.582.814-2.176.546-.593 1.277-.89 2.192-.89.839 0 1.516.255 2.03.765.517.51.776 1.156.776 1.938v.684h-5.123v-.858h3.907v-.005a1.53 1.53 0 0 0-.445-1.048c-.275-.285-.656-.428-1.145-.428-.506 0-.924.179-1.253.537-.33.354-.494.845-.494 1.47 0 .655.175 1.155.526 1.498.351.344.8.516 1.346.516.235 0 .445-.03.629-.087.185-.058.357-.138.516-.239.163-.105.345-.271.548-.5l.809.652c-.239.322-.48.565-.722.727-.239.16-.503.282-.792.37-.29.086-.646.13-1.07.13Zm4.896-1.573v-1.558l2.714-2.805h1.584l-4.298 4.363ZM103.906 60v-7.982h1.27V60h-1.27Zm3.907 0-2.083-3.115.852-.911L109.311 60h-1.498Z"/></g></g><defs><clipPath id="b" transform="translate(14 18)"><rect width="217" height="83" x="6" y="2" rx="10"/></clipPath><filter id="a" width="229" height="95" x="0" y="0" color-interpolation-filters="sRGB" filterUnits="userSpaceOnUse"><feFlood flood-opacity="0" result="BackgroundImageFix"/><feColorMatrix in="SourceAlpha" result="hardAlpha" values="0 0 0 0 0 0 0 0 0 0 0 0 0 0 0 0 0 0 127 0"/><feOffset dy="4"/><feGaussianBlur stdDeviation="3"/><feComposite in2="hardAlpha" operator="out"/><feColorMatrix values="0 0 0 0 0 0 0 0 0 0 0 0 0 0 0 0 0 0 0.1 0"/><feBlend in2="BackgroundImageFix" result="effect1_dropShadow_647_120"/><feBlend in="SourceGraphic" in2="effect1_dropShadow_647_120" result="shape"/></filter></defs></svg>