<svg xmlns="http://www.w3.org/2000/svg" width="170" height="170" fill="none"><path fill="#131515" d="M72.406 6.298a3.149 3.149 0 1 0 0-6.298 3.149 3.149 0 0 0 0 6.298Zm12.592 0a3.149 3.149 0 1 0-.003-6.299 3.149 3.149 0 0 0 .003 6.299Z"/><path fill="#131515" d="M91.294 6.298a3.148 3.148 0 1 0-.003-6.299 3.148 3.148 0 0 0 .003 6.299Zm18.888 0A3.148 3.148 0 1 0 110.183 0a3.148 3.148 0 0 0-.001 6.297ZM62.96 12.596a3.149 3.149 0 1 0-.003-6.299 3.149 3.149 0 0 0 .004 6.299Zm28.334-3.149a3.149 3.149 0 1 0 6.297 0 3.149 3.149 0 0 0-6.297 0ZM66.11 18.892a3.149 3.149 0 1 0 0-6.298 3.149 3.149 0 0 0 0 6.298Zm18.888-.002a3.147 3.147 0 1 0 0-6.296 3.149 3.149 0 1 0 0 6.296Z"/><path fill="#131515" d="M91.294 18.89a3.147 3.147 0 1 0 0-6.296 3.149 3.149 0 1 0 0 6.296ZM62.96 25.187a3.147 3.147 0 1 0 0-6.296 3.149 3.149 0 0 0 0 6.296Zm31.482-6.298a3.147 3.147 0 1 0 0 6.294 3.147 3.147 0 0 0 0-6.294Zm12.593 6.298a3.147 3.147 0 1 0 0-6.296 3.15 3.15 0 0 0 0 6.296Zm53.516-3.149a3.149 3.149 0 1 0 6.299-.003 3.149 3.149 0 0 0-6.299.003Zm-88.145 9.446a3.149 3.149 0 1 0 0-6.297 3.149 3.149 0 0 0 0 6.297Zm31.48 0a3.149 3.149 0 1 0 0-6.298 3.149 3.149 0 0 0 0 6.298Z"/><path fill="#131515" d="M110.182 31.484a3.148 3.148 0 1 0 .002-6.297 3.148 3.148 0 0 0-.002 6.297ZM81.85 37.78a3.148 3.148 0 1 0 0-6.297 3.148 3.148 0 0 0 0 6.296Zm22.41-20.22a3.149 3.149 0 1 0-6.255-.714 3.149 3.149 0 0 0 6.255.714Zm9.388 39.31a3.15 3.15 0 1 0-6.258-.712 3.15 3.15 0 0 0 6.258.713Z"/><path fill="#131515" d="M88.145 37.78a3.149 3.149 0 1 0 0-6.298 3.149 3.149 0 0 0 0 6.297Zm16.828-26.475a3.148 3.148 0 1 0-6.256-.714 3.148 3.148 0 0 0 6.256.714Zm9.388 39.311a3.148 3.148 0 1 0-6.256-.715 3.148 3.148 0 0 0 6.256.715Zm26.143 33.818a3.149 3.149 0 1 0-6.256-.714 3.149 3.149 0 0 0 6.256.714Zm1.725 22.583a3.148 3.148 0 1 0-6.256-.714 3.148 3.148 0 0 0 6.256.714Zm-15.95 13.347a3.148 3.148 0 1 0-6.255-.715 3.148 3.148 0 0 0 6.255.715Zm-4.949 21.325a3.148 3.148 0 1 0-6.256-.714 3.148 3.148 0 0 0 6.256.714Zm10.115 1.634a3.148 3.148 0 1 0-6.255-.715 3.148 3.148 0 0 0 6.255.715Zm16.159-5.414a3.15 3.15 0 1 0-6.258-.715 3.15 3.15 0 0 0 6.258.715Zm-7.1-.628a3.148 3.148 0 1 0-6.255-.715 3.148 3.148 0 0 0 6.255.715Zm12.156 8.813a3.148 3.148 0 1 0-6.256-.714 3.148 3.148 0 0 0 6.256.714Zm-50.458-10.51a3.148 3.148 0 1 0-6.256-.714 3.148 3.148 0 0 0 6.256.714Zm.713 9.293a3.148 3.148 0 1 0-6.256-.714 3.148 3.148 0 0 0 6.256.714Zm-26.411 7.473a3.148 3.148 0 1 0-6.257-.714 3.148 3.148 0 0 0 6.257.714Zm11.998 3.484a3.148 3.148 0 1 0-6.256-.714 3.148 3.148 0 0 0 6.257.714ZM84.6 144.46a3.148 3.148 0 1 0-6.257-.714 3.148 3.148 0 0 0 6.256.714Zm-9.068-9.74a3.148 3.148 0 1 0-6.256-.714 3.148 3.148 0 0 0 6.256.714ZM57.81 124.602a3.148 3.148 0 1 0-6.256-.714 3.148 3.148 0 0 0 6.256.714Zm-3.936-24.554a3.148 3.148 0 1 0-6.256-.714 3.148 3.148 0 0 0 6.256.714Zm-15.495-2.434a3.149 3.149 0 1 0-6.257-.714 3.149 3.149 0 0 0 6.257.714Zm-15.342-2.813a3.149 3.149 0 1 0-6.256-.714 3.149 3.149 0 0 0 6.256.714Zm-2.595-6.883a3.149 3.149 0 1 0-6.256-.714 3.149 3.149 0 0 0 6.256.715Zm-3.484-7.745a3.149 3.149 0 1 0-6.256-.714 3.149 3.149 0 0 0 6.256.714ZM32.7 84.434a3.149 3.149 0 1 0-6.257-.714 3.149 3.149 0 0 0 6.256.714Zm-.903-8.185a3.149 3.149 0 1 0-6.257-.715 3.149 3.149 0 0 0 6.257.715ZM28.69 53.387a3.149 3.149 0 1 0-6.256-.714 3.149 3.149 0 0 0 6.256.714Zm-12.971.154a3.148 3.148 0 1 0-6.256-.714 3.148 3.148 0 0 0 6.256.715Zm-9.066.713a3.149 3.149 0 1 0-6.257-.714 3.149 3.149 0 0 0 6.257.714Zm18.132 55.535a3.15 3.15 0 1 0-6.257-.715 3.15 3.15 0 0 0 6.257.715ZM58.928 57.36a3.149 3.149 0 1 0-6.256-.713 3.149 3.149 0 0 0 6.256.714Zm-.405-26.569a3.148 3.148 0 1 0-6.256-.714 3.148 3.148 0 0 0 6.256.714Zm8.096 2.146a3.148 3.148 0 1 0-6.256-.714 3.148 3.148 0 0 0 6.256.714Zm21.017 11.498a3.149 3.149 0 1 0-6.257-.714 3.149 3.149 0 0 0 6.257.714Zm-3.75 12.213a3.149 3.149 0 1 0-6.257-.714 3.149 3.149 0 0 0 6.257.714Zm-3.898-38.373a3.149 3.149 0 1 0-6.256-.714 3.149 3.149 0 0 0 6.256.714ZM60.363 14.11a3.148 3.148 0 1 0-6.256-.713 3.148 3.148 0 0 0 6.256.714Zm-1.435-8.5a3.149 3.149 0 1 0-6.256-.714 3.149 3.149 0 0 0 6.256.714ZM82.76 8.546a3.149 3.149 0 1 0-6.257-.714 3.149 3.149 0 0 0 6.256.714Z"/><path fill="#131515" d="M94.442 37.78a3.149 3.149 0 1 0 0-6.298 3.149 3.149 0 0 0 0 6.297Zm11.244-32.73a3.148 3.148 0 1 0-6.256-.715 3.148 3.148 0 0 0 6.256.714Zm9.388 39.31a3.148 3.148 0 1 0-6.256-.715 3.148 3.148 0 0 0 6.256.715Zm-4.892-9.73a3.147 3.147 0 1 0 6.295 0 3.147 3.147 0 0 0-6.295 0Zm12.593 9.446a3.15 3.15 0 1 0 0-6.298 3.15 3.15 0 0 0 0 6.298ZM53.518 37.78a3.148 3.148 0 1 0-.001 6.297 3.148 3.148 0 0 0 0-6.297Z"/><path fill="#131515" d="M59.814 44.076a3.149 3.149 0 1 0 0-6.297 3.149 3.149 0 0 0 0 6.297Zm12.592 0a3.149 3.149 0 1 0 0-6.298 3.149 3.149 0 0 0 0 6.298Zm22.035-3.149a3.149 3.149 0 1 0 6.298 0 3.149 3.149 0 0 0-6.298 0Zm-34.627 6.297a3.147 3.147 0 1 0-6.297 0 3.149 3.149 0 1 0 6.297 0Zm12.592 0a3.149 3.149 0 1 0 6.298 0 3.149 3.149 0 0 0-6.298 0Z"/><path fill="#131515" d="M97.59 47.224a3.147 3.147 0 1 0-6.294 0 3.147 3.147 0 0 0 6.294 0Zm-62.96 9.443a3.147 3.147 0 1 0 0-6.295 3.147 3.147 0 0 0 0 6.295Zm88.145 0a3.15 3.15 0 1 0 0-6.298 3.15 3.15 0 0 0 0 6.298Zm-78.702-3.149a3.149 3.149 0 1 0 6.297 0 3.149 3.149 0 0 0-6.297 0Zm25.184 0a3.147 3.147 0 1 0-6.295 0 3.147 3.147 0 0 0 6.295 0Z"/><path fill="#131515" d="M88.145 53.518a3.149 3.149 0 1 0 6.298 0 3.149 3.149 0 0 0-6.298 0Zm18.89 0a3.149 3.149 0 1 0-6.299.003 3.149 3.149 0 0 0 6.299-.003Zm25.185 0a3.149 3.149 0 1 0 6.297.001 3.149 3.149 0 0 0-6.297 0Zm18.888 0a3.149 3.149 0 1 0-6.299.003 3.149 3.149 0 0 0 6.299-.003Zm6.296 0a3.149 3.149 0 1 0 6.298 0 3.149 3.149 0 0 0-6.298 0Zm-144.812 3.15a3.149 3.149 0 1 0 0 6.297 3.149 3.149 0 0 0 0-6.297Z"/><path fill="#131515" d="M18.888 56.668a3.149 3.149 0 1 0 0 6.297 3.149 3.149 0 0 0 0-6.297Zm12.592 0a3.149 3.149 0 1 0 .003 6.295 3.149 3.149 0 0 0-.002-6.295Z"/><path fill="#131515" d="M37.776 56.668a3.149 3.149 0 1 0 .003 6.295 3.149 3.149 0 0 0-.002-6.295Zm94.444 0a3.148 3.148 0 1 0-.002 6.296 3.148 3.148 0 0 0 .002-6.296Z"/><path fill="#131515" d="M141.663 59.815a3.149 3.149 0 1 0-6.299.003 3.149 3.149 0 0 0 6.299-.003Zm15.741-3.147a3.147 3.147 0 0 0 0 6.296 3.15 3.15 0 0 0 0-6.296ZM3.147 69.26a3.149 3.149 0 1 0 0-6.297 3.149 3.149 0 0 0 0 6.298Zm12.593 0a3.149 3.149 0 1 0 0-6.297 3.149 3.149 0 0 0 0 6.298Zm9.444-3.148a3.149 3.149 0 1 0 6.298 0 3.149 3.149 0 0 0-6.298 0Zm12.592 0a3.149 3.149 0 1 0 6.298 0 3.149 3.149 0 0 0-6.297 0Zm12.593 0a3.149 3.149 0 1 0 6.297 0 3.149 3.149 0 0 0-6.297 0Z"/><path fill="#131515" d="M59.814 69.26a3.149 3.149 0 1 0 0-6.297 3.149 3.149 0 0 0 0 6.298Zm56.665-6.295a3.148 3.148 0 1 0 .002 6.297 3.148 3.148 0 0 0-.002-6.297Z"/><path fill="#131515" d="M122.775 69.26a3.15 3.15 0 1 0 0-6.297 3.15 3.15 0 0 0 0 6.298Zm18.888 0a3.15 3.15 0 1 0 0-6.297 3.15 3.15 0 0 0 0 6.298Zm15.741-3.148a3.149 3.149 0 1 0 6.298 0 3.149 3.149 0 0 0-6.298 0ZM3.147 72.408a3.149 3.149 0 1 0 6.299-.003 3.149 3.149 0 0 0-6.299.003Zm18.888 0a3.149 3.149 0 1 0-6.297 0 3.149 3.149 0 0 0 6.297 0Zm15.741 3.149a3.149 3.149 0 1 0 0-6.298 3.149 3.149 0 0 0 0 6.298Zm12.593 0a3.149 3.149 0 1 0 0-6.298 3.149 3.149 0 0 0 0 6.298Z"/><path fill="#131515" d="M56.665 75.557a3.147 3.147 0 1 0 0-6.296 3.149 3.149 0 0 0 0 6.296Zm62.962 0a3.149 3.149 0 1 0 0-6.298 3.149 3.149 0 0 0 0 6.298Z"/><path fill="#131515" d="M122.775 72.408a3.147 3.147 0 1 0 6.295 0 3.147 3.147 0 0 0-6.295 0Z"/><path fill="#131515" d="M132.22 75.557a3.147 3.147 0 0 0 0-6.296 3.149 3.149 0 1 0 0 6.296Zm12.592 0a3.149 3.149 0 1 0 0-6.298 3.149 3.149 0 0 0 0 6.298Z"/><path fill="#131515" d="M151.108 69.26a3.15 3.15 0 1 0 0 6.3 3.15 3.15 0 0 0 0-6.3Z"/><path fill="#131515" d="M157.404 69.26a3.147 3.147 0 1 0 .001 6.296 3.147 3.147 0 0 0-.001-6.295Z"/><path fill="#131515" d="M163.7 75.557a3.149 3.149 0 1 0 0-6.298 3.149 3.149 0 0 0 0 6.298ZM18.888 78.705a3.149 3.149 0 1 0 6.298 0 3.149 3.149 0 0 0-6.298 0Zm12.592 0a3.149 3.149 0 1 0 6.298 0 3.149 3.149 0 0 0-6.297 0Z"/><path fill="#131515" d="M40.925 81.853a3.149 3.149 0 1 0 0-6.297 3.149 3.149 0 0 0 0 6.297Zm100.738 0a3.15 3.15 0 1 0 0-6.298 3.15 3.15 0 0 0 0 6.298Zm22.037-3.148a3.149 3.149 0 1 0 6.298 0 3.149 3.149 0 0 0-6.298 0ZM6.296 88.148a3.147 3.147 0 1 0 0-6.294A3.149 3.149 0 0 0 3.147 85a3.148 3.148 0 0 0 3.149 3.147Zm37.777-6.296a3.147 3.147 0 1 0 0 6.294 3.149 3.149 0 0 0 3.149-3.147 3.149 3.149 0 0 0-3.15-3.147Zm6.65 6.296a3.147 3.147 0 1 0 0-6.295 3.147 3.147 0 0 0 0 6.295Zm100.385-6.296a3.147 3.147 0 1 0 0 6.294 3.149 3.149 0 0 0 3.149-3.147 3.149 3.149 0 0 0-3.149-3.147Z"/><path fill="#131515" d="M166.849 85a3.149 3.149 0 0 0-6.298 0 3.149 3.149 0 0 0 6.298 0Zm-44.074-3.148a3.147 3.147 0 1 0 0 6.294 3.149 3.149 0 0 0 3.149-3.147 3.149 3.149 0 0 0-3.149-3.147Z"/><path fill="#131515" d="M129.071 81.852a3.147 3.147 0 1 0 0 6.294 3.149 3.149 0 0 0 3.149-3.147 3.149 3.149 0 0 0-3.149-3.147ZM9.443 94.444a3.149 3.149 0 1 0 .001-6.298 3.149 3.149 0 0 0 0 6.297Zm18.89-6.297a3.149 3.149 0 1 0 0 6.298 3.149 3.149 0 0 0 0-6.297Z"/><path fill="#131515" d="M37.777 91.296a3.148 3.148 0 1 0-6.297 0 3.148 3.148 0 0 0 6.297 0Zm103.886 3.148a3.149 3.149 0 1 0 0-6.298 3.149 3.149 0 0 0 0 6.297Zm-94.441 3.149a3.149 3.149 0 1 0-6.298 0 3.149 3.149 0 0 0 6.298 0Zm75.553 0a3.149 3.149 0 1 0-6.298 0 3.149 3.149 0 0 0 6.298 0Zm22.037 3.147a3.148 3.148 0 1 0 .001-6.297 3.148 3.148 0 0 0-.001 6.297Zm12.592 0a3.148 3.148 0 1 0 .001-6.297 3.148 3.148 0 0 0-.001 6.297Zm-22.037-6.296a3.147 3.147 0 1 0 .001 6.295 3.147 3.147 0 0 0-.001-6.295ZM9.443 100.74a3.149 3.149 0 1 0 0 6.298 3.149 3.149 0 0 0 0-6.298Z"/><path fill="#131515" d="M15.74 100.74a3.147 3.147 0 1 0 0 6.295 3.147 3.147 0 0 0 0-6.295Zm12.593 6.296a3.147 3.147 0 1 0 0-6.296 3.149 3.149 0 1 0 0 6.296Zm12.592 0a3.148 3.148 0 1 0 .001-6.297 3.148 3.148 0 0 0 0 6.297Zm75.554 0a3.149 3.149 0 1 0 0-6.298 3.149 3.149 0 0 0 0 6.298Zm15.741-3.147a3.15 3.15 0 1 0-6.298 0 3.15 3.15 0 0 0 6.298 0Zm15.739-3.149a3.15 3.15 0 1 0 0 6.298 3.15 3.15 0 0 0 0-6.298Z"/><path fill="#131515" d="M154.255 107.036a3.148 3.148 0 1 0-.002-6.296 3.148 3.148 0 0 0 .002 6.296Zm12.594-6.296a3.15 3.15 0 1 0 0 6.298 3.15 3.15 0 0 0 0-6.298ZM6.296 113.333a3.149 3.149 0 1 0 0-6.297 3.149 3.149 0 0 0 0 6.297Zm31.48.002a3.149 3.149 0 1 0 0-6.298 3.149 3.149 0 0 0 0 6.298Zm12.593 0a3.149 3.149 0 1 0 0-6.298 3.149 3.149 0 0 0 0 6.298Zm69.258 0a3.15 3.15 0 1 0 0-6.298 3.15 3.15 0 0 0 0 6.298Z"/><path fill="#131515" d="M125.924 113.333a3.147 3.147 0 0 0 0-6.296 3.149 3.149 0 1 0 0 6.296Zm40.925-3.147a3.15 3.15 0 1 0-6.298 0 3.15 3.15 0 0 0 6.298 0ZM15.74 113.332a3.147 3.147 0 1 0 0 6.296 3.149 3.149 0 0 0 0-6.296Zm12.593 6.296a3.147 3.147 0 1 0 0-6.295 3.147 3.147 0 0 0 0 6.295Zm12.592-6.296a3.149 3.149 0 1 0 0 6.297 3.149 3.149 0 0 0 0-6.297Z"/><path fill="#131515" d="M50.369 116.481a3.149 3.149 0 1 0-6.299.003 3.149 3.149 0 0 0 6.299-.003Zm12.592 0a3.147 3.147 0 1 0-6.295 0 3.147 3.147 0 0 0 6.295 0Zm12.592 0a3.149 3.149 0 1 0-6.299.003 3.149 3.149 0 0 0 6.3-.003Zm9.445-3.149a3.149 3.149 0 1 0 0 6.297 3.149 3.149 0 0 0 0-6.297Zm12.592 0a3.149 3.149 0 1 0 0 6.297 3.149 3.149 0 0 0 0-6.297Z"/><path fill="#131515" d="M103.886 113.332a3.149 3.149 0 1 0 0 6.298 3.149 3.149 0 0 0 0-6.298Zm12.593 6.296a3.15 3.15 0 1 0 0-6.298 3.15 3.15 0 0 0 0 6.298Z"/><path fill="#131515" d="M110.182 113.332a3.147 3.147 0 0 0 0 6.296 3.149 3.149 0 1 0 0-6.296Zm25.185 0a3.147 3.147 0 0 0 0 6.296 3.15 3.15 0 0 0 0-6.296Zm12.592 0a3.149 3.149 0 1 0 0 6.298 3.149 3.149 0 0 0 0-6.298Zm12.592 6.296a3.15 3.15 0 1 0 0-6.298 3.15 3.15 0 0 0 0 6.298Zm-97.591 0a3.149 3.149 0 1 0 .001 6.298 3.149 3.149 0 0 0 0-6.298Z"/><path fill="#131515" d="M69.257 125.926a3.149 3.149 0 1 0 0-6.298 3.149 3.149 0 0 0 0 6.298Zm34.629-3.149a3.147 3.147 0 1 0-6.297-.003 3.147 3.147 0 0 0 6.297.003Zm31.481 0a3.149 3.149 0 1 0-6.298 0 3.149 3.149 0 0 0 6.298 0Zm9.445 3.149a3.15 3.15 0 1 0 0-6.298 3.15 3.15 0 0 0 0 6.298Z"/><path fill="#131515" d="M151.108 125.924a3.149 3.149 0 1 0 0-6.298 3.149 3.149 0 0 0 0 6.298Zm-88.148 3.15a3.149 3.149 0 1 0 6.298 0 3.149 3.149 0 0 0-6.297 0Zm15.742 3.147a3.149 3.149 0 1 0 0-6.298 3.149 3.149 0 0 0 0 6.298Zm12.592-6.296a3.149 3.149 0 1 0 0 6.297 3.149 3.149 0 0 0 0-6.297Zm12.592 6.296a3.15 3.15 0 1 0 0-6.298 3.15 3.15 0 0 0 0 6.298Z"/><path fill="#131515" d="M110.182 132.221a3.149 3.149 0 1 0 0-6.297 3.149 3.149 0 0 0 0 6.297Zm12.593-6.296a3.149 3.149 0 1 0 0 6.298 3.149 3.149 0 0 0 0-6.298Z"/><path fill="#131515" d="M132.22 129.074a3.147 3.147 0 0 0-3.149-3.147 3.147 3.147 0 1 0 0 6.296 3.152 3.152 0 0 0 3.149-3.149Zm9.443-3.149a3.149 3.149 0 1 0 0 6.298 3.149 3.149 0 0 0 0-6.298Zm12.592 0a3.149 3.149 0 1 0 0 6.298 3.149 3.149 0 0 0 0-6.298Z"/><path fill="#131515" d="M160.551 125.925a3.149 3.149 0 1 0 0 6.298 3.149 3.149 0 0 0 0-6.298Z"/><path fill="#131515" d="M166.849 125.925a3.149 3.149 0 1 0 0 6.298 3.149 3.149 0 0 0 0-6.298ZM56.665 138.518a3.148 3.148 0 1 0 0-6.295 3.148 3.148 0 0 0 0 6.295Zm28.333-3.147a3.149 3.149 0 1 0 6.297 0 3.149 3.149 0 0 0-6.297 0Zm37.777 0a3.15 3.15 0 1 0 6.298 0 3.15 3.15 0 0 0-6.298 0Zm25.184 0a3.15 3.15 0 1 0 6.298 0 3.15 3.15 0 0 0-6.298 0Zm-94.441 3.147a3.148 3.148 0 1 0-.002 6.296 3.148 3.148 0 0 0 .002-6.296Z"/><path fill="#131515" d="M59.814 138.518a3.146 3.146 0 1 0 0 6.294 3.148 3.148 0 0 0 3.149-3.147 3.15 3.15 0 0 0-3.15-3.147Z"/><path fill="#131515" d="M66.11 144.815a3.148 3.148 0 1 0 .001-6.296 3.148 3.148 0 0 0-.001 6.296Z"/><path fill="#131515" d="M72.406 144.814a3.147 3.147 0 1 0 0-6.294 3.148 3.148 0 1 0 0 6.294Zm22.036-3.147a3.148 3.148 0 1 0-6.296.002 3.148 3.148 0 0 0 6.296-.002Zm15.74-3.149a3.146 3.146 0 1 0 0 6.294 3.148 3.148 0 1 0 0-6.294Zm50.369 6.296a3.147 3.147 0 1 0 0-6.294 3.148 3.148 0 1 0 0 6.294Zm-129.071-.002a3.147 3.147 0 0 0-3.147 3.149 3.148 3.148 0 1 0 3.148-3.149Zm28.334 3.149a3.149 3.149 0 1 0-6.298 0 3.149 3.149 0 0 0 6.298 0Zm6.296 0a3.148 3.148 0 1 0 6.297.001 3.148 3.148 0 0 0-6.297-.001Zm22.035 3.149a3.149 3.149 0 1 0 0-6.298 3.149 3.149 0 0 0 0 6.298Zm18.89-6.298a3.15 3.15 0 1 0 0 6.298 3.15 3.15 0 0 0 0-6.298Zm34.628 3.149a3.15 3.15 0 1 0-6.298 0 3.15 3.15 0 0 0 6.298 0Zm-88.145 3.15a3.148 3.148 0 1 0-.001 6.297 3.148 3.148 0 0 0 0-6.297Z"/><path fill="#131515" d="M59.814 151.111a3.147 3.147 0 1 0 0 6.295 3.149 3.149 0 1 0 0-6.295Zm37.776 0a3.149 3.149 0 1 0 0 6.297 3.149 3.149 0 0 0 0-6.297Z"/><path fill="#131515" d="M103.886 151.111a3.148 3.148 0 1 0 0 6.295 3.149 3.149 0 0 0 3.149-3.148 3.149 3.149 0 0 0-3.149-3.147Zm12.593 6.296a3.148 3.148 0 1 0 0-6.297 3.148 3.148 0 0 0 0 6.297Z"/><path fill="#131515" d="M122.775 157.407a3.147 3.147 0 1 0 0-6.295 3.149 3.149 0 0 0-3.149 3.147 3.152 3.152 0 0 0 3.149 3.148Z"/><path fill="#131515" d="M129.071 157.407a3.147 3.147 0 1 0 0-6.295 3.147 3.147 0 1 0 0 6.295Zm12.592-6.296a3.148 3.148 0 1 0 0 6.295 3.147 3.147 0 1 0 0-6.295Zm12.592 0a3.148 3.148 0 1 0-.003 6.295 3.148 3.148 0 0 0 .003-6.295Z"/><path fill="#131515" d="M160.551 151.111a3.148 3.148 0 1 0 0 6.295 3.147 3.147 0 1 0 0-6.295Z"/><path fill="#131515" d="M166.849 151.111a3.148 3.148 0 1 0 0 6.295 3.149 3.149 0 0 0 3.149-3.148 3.15 3.15 0 0 0-3.149-3.147Zm-107.035 9.443a3.149 3.149 0 1 0-6.298 0 3.149 3.149 0 0 0 6.298 0Zm9.443-3.147a3.15 3.15 0 1 0 0 6.298 3.15 3.15 0 0 0 0-6.298Z"/><path fill="#131515" d="M75.553 157.407a3.149 3.149 0 1 0 0 6.298 3.149 3.149 0 0 0 0-6.298Z"/><path fill="#131515" d="M84.998 160.554a3.15 3.15 0 1 0-6.298 0 3.15 3.15 0 0 0 6.298 0Zm9.444-3.147a3.147 3.147 0 1 0 0 6.295 3.147 3.147 0 0 0 0-6.295Zm28.333 3.147a3.15 3.15 0 1 0-6.298 0 3.15 3.15 0 0 0 6.298 0Zm12.592 0a3.149 3.149 0 1 0 6.298-.004 3.149 3.149 0 0 0-6.298.004Zm15.741-3.147a3.15 3.15 0 1 0 0 6.298 3.15 3.15 0 0 0 0-6.298Zm-91.294 6.296a3.148 3.148 0 1 0 0 6.295 3.148 3.148 0 0 0 0-6.295Zm12.592 0a3.149 3.149 0 1 0 0 6.298 3.149 3.149 0 0 0 0-6.298Zm12.592 0a3.149 3.149 0 1 0 0 6.298 3.149 3.149 0 0 0 0-6.298Z"/><path fill="#131515" d="M91.294 163.703a3.149 3.149 0 1 0 0 6.298 3.149 3.149 0 0 0 0-6.298Zm31.481 0a3.15 3.15 0 1 0 0 6.298 3.15 3.15 0 0 0 0-6.298Z"/><path fill="#131515" d="M129.071 163.703a3.148 3.148 0 1 0 0 6.295 3.148 3.148 0 0 0 0-6.295Z"/><path fill="#131515" d="M135.367 170a3.15 3.15 0 1 0 0-6.298 3.15 3.15 0 0 0 0 6.298Z"/><path fill="#131515" d="M141.663 163.703a3.15 3.15 0 1 0 0 6.298 3.15 3.15 0 0 0 0-6.298Z"/><rect width="50" height="50" x="59.999" y="60" fill="#131515" rx="10"/><path fill="#fff" fill-rule="evenodd" d="M109.998 86.924c-.606.11-11.618.027-12.215-.127a4.257 4.257 0 0 1-3.193-4.029v-4.396a4.108 4.108 0 0 0-8.217 0v14.253c-.312 9.048-13.364 9.061-13.676 0v-4.383a1.37 1.37 0 0 0-1.378-1.379H60.007v-2.73h11.312a4.117 4.117 0 0 1 4.108 4.109v4.383a4.108 4.108 0 0 0 8.216 0V78.372c.312-9.048 13.365-9.048 13.677 0v4.396a1.37 1.37 0 0 0 1.378 1.365h11.3v2.791Z" clip-rule="evenodd"/><rect width="41.593" height="41.593" x="6.138" y="3.466" stroke="#131515" stroke-width="6.932" rx="5.199"/><path fill="#131515" d="M34.556 13.753H19.891a3.466 3.466 0 0 0-3.466 3.466v14.665a3.466 3.466 0 0 0 3.466 3.466h14.665a3.466 3.466 0 0 0 3.466-3.466V17.22a3.466 3.466 0 0 0-3.466-3.466Z"/><rect width="41.593" height="41.593" x="6.138" y="124.94" stroke="#131515" stroke-width="6.932" rx="5.199"/><path fill="#131515" d="M38.022 135.227H16.425v21.597h21.597v-21.597Z"/><rect width="41.593" height="41.593" x="121.789" y="3.466" stroke="#131515" stroke-width="6.932" rx="5.199"/><path fill="#131515" d="M153.674 13.753h-21.598V35.35h21.598V13.753Z"/></svg>