<svg xmlns="http://www.w3.org/2000/svg" width="140" height="122" fill="none"><path fill="url(#a)" d="M0 0h139.811v122H0z"/><g filter="url(#b)"><circle cx="69.905" cy="36" r="22" fill="#E6790B"/></g><g fill="#fff" clip-path="url(#c)"><path d="m71.67 29.405 2.268-3.965h-8.067l2.268 3.965h3.53Zm.46 4.983c.74.24 1.218.73 1.535 1.053.068.069.17.173.21.205.044.03.177.096.266.14.12.06.259.13.406.214l3.373-5.835-2.608-4.718-5.009 8.89.611-.08c.091-.007.185-.011.282-.011.334 0 .639.046.934.142Zm-6.04 1.257c.037-.029.14-.134.209-.204.316-.324.795-.812 1.535-1.053a2.98 2.98 0 0 1 .933-.142c.304 0 .578.04.807.076l-5.078-8.875-2.608 4.718 3.413 5.903c.19-.116.37-.206.521-.281.09-.045.227-.113.268-.142Zm9.052 3.68a3.3 3.3 0 0 1-.1-.498c-.059-.387-.125-.826-.404-1.21-.281-.386-.68-.584-1.03-.76a3.234 3.234 0 0 1-.438-.244 3.232 3.232 0 0 1-.36-.335c-.276-.283-.59-.602-1.05-.752-.443-.144-.878-.072-1.262-.009-.187.03-.364.06-.516.06-.153 0-.33-.03-.516-.06-.384-.063-.819-.135-1.263.01-.46.148-.773.468-1.05.75-.127.13-.247.253-.36.336a3.25 3.25 0 0 1-.437.244c-.351.176-.75.374-1.03.76-.28.384-.346.823-.404 1.21a3.315 3.315 0 0 1-.1.498c-.042.128-.12.278-.203.436-.175.334-.392.75-.392 1.24s.217.906.392 1.24c.083.158.161.308.203.437.045.14.072.313.1.497.058.387.125.827.404 1.21.28.386.679.584 1.03.76.165.082.321.16.437.244.113.083.234.206.36.336.277.282.59.602 1.05.751.444.144.879.072 1.263.01.187-.032.363-.06.516-.06.152 0 .329.028.516.06.219.035.454.074.698.074.185 0 .374-.022.565-.084.46-.15.773-.47 1.049-.752.127-.13.247-.252.36-.335.117-.084.272-.162.437-.244.352-.176.75-.374 1.03-.76.28-.383.346-.823.405-1.21.028-.184.054-.358.1-.497.042-.13.12-.279.203-.437.175-.334.392-.75.392-1.24s-.218-.906-.392-1.24a3.096 3.096 0 0 1-.203-.437Zm-5.16 4.948a3.276 3.276 0 0 1-3.272-3.272 3.276 3.276 0 0 1 3.272-3.272 3.276 3.276 0 0 1 3.272 3.272 3.276 3.276 0 0 1-3.272 3.272Z"/><path d="M69.982 38.971c-1.12 0-2.03.91-2.03 2.03 0 1.12.91 2.03 2.03 2.03 1.12 0 2.03-.91 2.03-2.03 0-1.12-.91-2.03-2.03-2.03Z"/></g><path fill="#fff" d="m34.44 89.574 3.667-6.828-.018-.042h-4.206v-1.296h5.844v1.17l-.066.12-3.96 7.53-1.26-.654Zm5.643-3.054v-1.212h3.9v1.212h-3.9Zm7.792 3.684c-.872 0-1.602-.308-2.19-.924-.584-.62-.876-1.43-.876-2.43 0-1.016.29-1.832.87-2.448a2.82 2.82 0 0 1 2.136-.924c.5 0 .94.11 1.32.33.384.216.67.482.858.798h.042V81.21h1.386V90h-1.35v-1.11l.198.252h-.24a2.388 2.388 0 0 1-.87.762c-.372.2-.8.3-1.284.3Zm.276-1.17c.56 0 1.022-.198 1.386-.594.364-.396.546-.924.546-1.584s-.186-1.192-.558-1.596a1.794 1.794 0 0 0-1.374-.606c-.568 0-1.034.202-1.398.606-.364.404-.546.932-.546 1.584 0 .656.18 1.186.54 1.59.364.4.832.6 1.404.6Zm6.972 1.17c-.684 0-1.246-.19-1.686-.57-.44-.384-.66-.906-.66-1.566 0-.668.244-1.194.732-1.578.488-.388 1.122-.582 1.902-.582.372 0 .714.042 1.026.126.312.08.582.188.81.324v-.396c0-.44-.146-.776-.438-1.008-.292-.232-.672-.348-1.14-.348-.252 0-.474.028-.666.084a2.407 2.407 0 0 0-.504.198c-.144.08-.292.182-.444.306l-.228.18-.762-.828.282-.228c.188-.156.402-.3.642-.432.244-.132.508-.234.792-.306a3.958 3.958 0 0 1 1.014-.114c.852 0 1.534.222 2.046.666.512.44.768 1.05.768 1.83V90h-1.32v-1.266l.276.432h-.318c-.188.288-.466.534-.834.738-.368.2-.798.3-1.29.3Zm.348-1.05c.504 0 .928-.176 1.272-.528a1.73 1.73 0 0 0 .522-1.26v-.036a2.047 2.047 0 0 0-.714-.372 2.77 2.77 0 0 0-.87-.138c-.472 0-.844.104-1.116.312-.272.208-.408.498-.408.87 0 .36.118.642.354.846.236.204.556.306.96.306Zm5.012 3.474 1.632-3.414.012.804-2.76-6.342h1.452l1.566 3.894.198.6h.042l.222-.606 1.572-3.888h1.416l-3.93 8.952h-1.422Zm11.61-2.418c-.44 0-.822-.056-1.146-.168a2.691 2.691 0 0 1-.846-.474 2.547 2.547 0 0 1-.552-.63l-.192-.324.99-.606.156.246c.104.16.232.306.384.438.156.132.336.234.54.306.204.068.438.102.702.102.368 0 .662-.072.882-.216.22-.148.33-.35.33-.606a.645.645 0 0 0-.312-.57c-.204-.14-.592-.278-1.164-.414-.828-.2-1.408-.454-1.74-.762-.328-.312-.492-.722-.492-1.23 0-.544.228-.986.684-1.326.456-.34 1.032-.51 1.728-.51.356 0 .672.038.948.114.28.076.532.19.756.342.224.152.402.312.534.48l.198.246-.948.648-.15-.168a1.568 1.568 0 0 0-.792-.492c-.16-.04-.342-.06-.546-.06-.34 0-.612.068-.816.204-.204.132-.306.296-.306.492 0 .18.078.338.234.474.16.132.604.294 1.332.486.776.196 1.33.45 1.662.762.336.308.504.71.504 1.206 0 .604-.24 1.09-.72 1.458-.48.368-1.094.552-1.842.552Zm6.214-.006c-.576 0-1.03-.162-1.362-.486-.332-.324-.498-.79-.498-1.398v-6.294h1.386v6.12c0 .292.062.51.186.654.124.144.32.216.588.216.084 0 .176-.01.276-.03.1-.024.214-.062.342-.114l.192-.084.246 1.068-.228.108c-.152.068-.32.124-.504.168a2.477 2.477 0 0 1-.624.072Zm-2.952-5.37v-1.158h4.11v1.158h-4.11ZM80.936 90v-6.324h1.314v1.122l-.144-.144h.186c.128-.348.354-.632.678-.852a1.847 1.847 0 0 1 1.464-.294c.136.024.262.06.378.108l.174.072-.204 1.284-.168-.066a1.993 1.993 0 0 0-.708-.156c-.444 0-.818.168-1.122.504-.304.336-.456.808-.456 1.416V90h-1.392Zm7.762.204c-.988 0-1.79-.31-2.406-.93-.616-.624-.924-1.436-.924-2.436 0-.944.298-1.74.894-2.388.6-.652 1.396-.978 2.388-.978.92 0 1.664.282 2.232.846.568.56.852 1.266.852 2.118v.744h-5.61v-.936h4.278a1.695 1.695 0 0 0-.498-1.152c-.304-.312-.722-.468-1.254-.468-.556 0-1.014.196-1.374.588-.356.392-.534.93-.534 1.614 0 .716.192 1.266.576 1.65.388.384.88.576 1.476.576.26 0 .49-.032.69-.096.204-.064.392-.154.564-.27.176-.12.374-.308.594-.564l.9.696c-.26.364-.522.638-.786.822-.264.18-.556.318-.876.414-.32.1-.714.15-1.182.15Zm6.34 0c-.685 0-1.247-.19-1.687-.57-.44-.384-.66-.906-.66-1.566 0-.668.244-1.194.732-1.578.488-.388 1.122-.582 1.902-.582.372 0 .714.042 1.026.126.312.08.582.188.81.324v-.396c0-.44-.146-.776-.438-1.008-.292-.232-.672-.348-1.14-.348-.252 0-.474.028-.666.084a2.407 2.407 0 0 0-.504.198c-.144.08-.292.182-.444.306l-.228.18-.762-.828.282-.228c.188-.156.402-.3.642-.432.244-.132.508-.234.792-.306a3.958 3.958 0 0 1 1.014-.114c.852 0 1.534.222 2.046.666.512.44.768 1.05.768 1.83V90h-1.32v-1.266l.276.432h-.318c-.188.288-.466.534-.834.738-.368.2-.798.3-1.29.3Zm.347-1.05c.504 0 .928-.176 1.272-.528a1.73 1.73 0 0 0 .522-1.26v-.036a2.047 2.047 0 0 0-.714-.372 2.77 2.77 0 0 0-.87-.138c-.472 0-.844.104-1.116.312-.272.208-.408.498-.408.87 0 .36.118.642.354.846.236.204.556.306.96.306Zm5.728-.63V86.82l3.042-3.144h1.74l-4.782 4.848ZM100.249 90v-8.79h1.392V90h-1.392Zm4.284 0-2.268-3.402.942-.99 2.97 4.392h-1.644Zm-58.988 15.204c-.74 0-1.312-.206-1.715-.618-.4-.416-.6-1.004-.6-1.764v-4.146h1.386v3.882c0 .512.115.89.348 1.134.232.24.581.36 1.05.36.455 0 .84-.162 1.151-.486.313-.328.468-.742.468-1.242v-3.648h1.392V105H47.7v-1.518l.642.636h-.678a2.32 2.32 0 0 1-.846.78 2.58 2.58 0 0 1-1.273.306Zm5.28-.204v-6.324h1.326v1.116l-.168-.216h.21c.208-.328.504-.594.888-.798a2.729 2.729 0 0 1 1.29-.306c.732 0 1.3.204 1.704.612.404.408.606.968.606 1.68V105h-1.392v-3.918c0-.464-.112-.818-.336-1.062-.224-.248-.578-.372-1.062-.372-.484 0-.884.162-1.2.486-.316.324-.474.728-.474 1.212V105h-1.392Zm7.582 0v-8.79h1.392V105h-1.392Zm6.193.204c-1.016 0-1.842-.318-2.478-.954-.632-.636-.948-1.438-.948-2.406 0-.98.32-1.788.96-2.424.64-.636 1.462-.954 2.466-.954 1.008 0 1.832.322 2.472.966.64.644.96 1.448.96 2.412 0 .96-.316 1.76-.948 2.4-.632.64-1.46.96-2.484.96Zm0-1.218c.588 0 1.072-.198 1.452-.594.38-.4.57-.916.57-1.548s-.19-1.148-.57-1.548c-.376-.404-.86-.606-1.452-.606s-1.078.2-1.458.6c-.376.4-.564.918-.564 1.554s.188 1.152.564 1.548c.38.396.866.594 1.458.594Zm7.739 1.224c-1 0-1.808-.32-2.424-.96-.616-.64-.924-1.446-.924-2.418 0-.972.306-1.776.918-2.412.616-.636 1.434-.954 2.454-.954.356 0 .682.044.978.132.296.084.57.214.822.39.256.172.524.436.804.792l-.984.756a3.106 3.106 0 0 0-.516-.516 1.43 1.43 0 0 0-.498-.252 2.296 2.296 0 0 0-.624-.078c-.556 0-1.02.198-1.392.594-.372.392-.558.906-.558 1.542 0 .64.188 1.16.564 1.56.376.396.838.594 1.386.594.24 0 .458-.03.654-.09.2-.064.376-.152.528-.264.156-.112.334-.302.534-.57l1.044.684c-.276.404-.544.7-.804.888-.26.188-.556.332-.888.432-.332.1-.69.15-1.074.15Zm4.815-1.686v-1.704l3.042-3.144h1.74l-4.782 4.848ZM76.29 105v-8.79h1.392V105H76.29Zm4.284 0-2.268-3.402.942-.99 2.97 4.392h-1.644Zm5.305.204c-.988 0-1.79-.31-2.406-.93-.616-.624-.924-1.436-.924-2.436 0-.944.298-1.74.894-2.388.6-.652 1.396-.978 2.388-.978.92 0 1.664.282 2.232.846.568.56.852 1.266.852 2.118v.744h-5.61v-.936h4.278a1.695 1.695 0 0 0-.498-1.152c-.304-.312-.722-.468-1.254-.468-.556 0-1.014.196-1.374.588-.356.392-.534.93-.534 1.614 0 .716.192 1.266.576 1.65.388.384.88.576 1.476.576.26 0 .49-.032.69-.096.204-.064.392-.154.564-.27.176-.12.374-.308.594-.564l.9.696c-.26.364-.522.638-.786.822-.264.18-.556.318-.876.414-.32.1-.714.15-1.182.15Zm7.084 0c-.872 0-1.602-.308-2.19-.924-.584-.62-.876-1.43-.876-2.43 0-1.016.29-1.832.87-2.448a2.82 2.82 0 0 1 2.136-.924c.5 0 .94.11 1.32.33.384.216.67.482.858.798h.042V96.21h1.386V105h-1.35v-1.11l.198.252h-.24a2.388 2.388 0 0 1-.87.762c-.372.2-.8.3-1.284.3Zm.276-1.17c.56 0 1.022-.198 1.386-.594.364-.396.546-.924.546-1.584s-.186-1.192-.558-1.596a1.794 1.794 0 0 0-1.374-.606c-.568 0-1.034.202-1.398.606-.364.404-.546.932-.546 1.584 0 .656.18 1.186.54 1.59.364.4.832.6 1.404.6Z"/><defs><linearGradient id="a" x1="69.367" x2="69.195" y1="-4.165" y2="122" gradientUnits="userSpaceOnUse"><stop stop-color="#131515" stop-opacity=".3"/><stop offset="1" stop-color="#131515" stop-opacity=".8"/></linearGradient><clipPath id="c"><path fill="#fff" d="M59.344 25.44h21.12v21.12h-21.12z"/></clipPath><filter id="b" width="74" height="74" x="32.905" y="9" color-interpolation-filters="sRGB" filterUnits="userSpaceOnUse"><feFlood flood-opacity="0" result="BackgroundImageFix"/><feColorMatrix in="SourceAlpha" result="hardAlpha" values="0 0 0 0 0 0 0 0 0 0 0 0 0 0 0 0 0 0 127 0"/><feOffset dy="10"/><feGaussianBlur stdDeviation="7.5"/><feComposite in2="hardAlpha" operator="out"/><feColorMatrix values="0 0 0 0 0.901961 0 0 0 0 0.47451 0 0 0 0 0.0431373 0 0 0 0.5 0"/><feBlend in2="BackgroundImageFix" result="effect1_dropShadow_497_148"/><feBlend in="SourceGraphic" in2="effect1_dropShadow_497_148" result="shape"/></filter></defs></svg>