<svg xmlns="http://www.w3.org/2000/svg" width="134" height="32" fill="none"><rect width="32" height="32" fill="url(#a)" rx="16"/><path fill="#131515" fill-rule="evenodd" d="M32 17.231c-.388.07-7.436.017-7.818-.081a2.726 2.726 0 0 1-2.044-2.579v-2.813a2.63 2.63 0 0 0-5.258 0v9.121c-.2 5.791-8.554 5.8-8.753 0v-2.805a.877.877 0 0 0-.882-.882H.005v-1.747h7.24a2.635 2.635 0 0 1 2.629 2.63v2.804a2.63 2.63 0 0 0 5.258 0v-9.121c.2-5.791 8.554-5.791 8.753 0v2.813a.875.875 0 0 0 .882.874H32v1.786Z" clip-rule="evenodd"/><path fill="#131515" d="M38.898 24V7.955h3.814v6.396h5.902V7.955h3.837V24h-3.837v-6.53h-5.902V24h-3.814Zm18.573-3.68c0 .853.65 1.301 1.773 1.301 1.75 0 2.917-1.122 2.917-2.894v-.45l-2.985.607c-1.189.224-1.705.673-1.705 1.436Zm-3.792.583c0-2.11 1.48-3.186 4.308-3.725l4.174-.785v-.09c0-1.436-.83-2.154-2.222-2.154-1.48 0-2.176.808-2.311 2.154h-3.77c.292-3.321 2.693-4.87 6.081-4.87 3.703 0 5.835 1.796 5.835 5.162V24h-3.456l-.067-1.728c-.763 1.167-2.379 2.042-4.444 2.042-2.154 0-4.129-.965-4.129-3.41Zm17.252-3.052c0 2.177 1.01 3.479 2.716 3.479 1.705 0 2.692-1.28 2.692-3.479 0-2.176-.987-3.433-2.67-3.433-1.728 0-2.738 1.28-2.738 3.433ZM67.251 24V7.529h3.613v6.149c.763-1.437 2.2-2.244 3.972-2.244 3.164 0 5.273 2.558 5.273 6.44 0 3.882-2.109 6.44-5.273 6.44-1.773 0-3.321-.785-4.062-2.311L70.707 24h-3.456Zm14.18 0V11.748h3.702V24h-3.702Zm-.045-13.352V7.574h3.792v3.074h-3.792ZM88.08 19.4v-4.668h-1.75v-2.984h1.75V8.786h3.747v2.962h3.838v2.984h-3.838v4.488c0 1.571.786 1.953 2.154 1.953a9.42 9.42 0 0 0 1.684-.157V24c-1.1.202-2.065.314-2.918.314-3.119 0-4.667-1.458-4.667-4.914Zm8.71 4.6V7.507h3.725V24H96.79Zm5.305 0V11.748h3.702V24h-3.702Zm-.045-13.352V7.574h3.792v3.074h-3.792ZM107.376 24V11.748h3.478l.045 2.199c.628-1.75 2.042-2.513 3.815-2.513 2.58 0 4.263 1.728 4.263 4.667V24h-3.747v-6.732c0-1.863-.539-2.715-1.885-2.715-1.391 0-2.244.92-2.244 2.715V24h-3.725Zm16.674-7.113h5.318c-.225-1.616-1.145-2.604-2.626-2.604-1.503 0-2.446.988-2.692 2.604Zm-3.86.964c0-3.837 2.603-6.417 6.53-6.417 3.949 0 6.373 2.558 6.373 6.395v.92h-9.066c.224 1.683 1.189 2.715 2.715 2.715 1.122 0 1.93-.56 2.334-1.548h3.927c-.74 2.693-3.052 4.398-6.261 4.398-3.949 0-6.552-2.603-6.552-6.463Z"/><defs><linearGradient id="a" x1="0" x2="30.117" y1="3.005" y2="28.974" gradientUnits="userSpaceOnUse"><stop stop-color="#F5DC4E"/><stop offset="1" stop-color="#FF7676"/></linearGradient></defs></svg>