<svg xmlns="http://www.w3.org/2000/svg" width="22" height="22" fill="none"><path fill="#fff" d="m19.48 10.822-1.348-1.597a.294.294 0 0 0-.213-.089H6.387a3.506 3.506 0 0 0-2.91-1.543c-1.898 0-3.46 1.526-3.46 3.406 0 1.88 1.562 3.407 3.478 3.407a3.506 3.506 0 0 0 2.91-1.544h11.532c.071 0 .16-.035.213-.089l1.348-1.596a.294.294 0 0 0-.018-.355ZM4.542 12.01v.567h-2.36v-.088c0-.355.089-.64.266-.87.178-.213.497-.443.976-.71.213-.106.355-.212.426-.319a.512.512 0 0 0 .106-.337.412.412 0 0 0-.16-.337.599.599 0 0 0-.407-.142c-.178 0-.302.053-.39.16a.862.862 0 0 0-.16.532v.089H2.27v-.089c0-.373.089-.656.301-.87.213-.212.515-.319.87-.319.32 0 .585.089.798.284a.93.93 0 0 1 .32.728.998.998 0 0 1-.196.62c-.124.16-.354.32-.71.515-.354.195-.585.355-.709.515-.018.035-.035.053-.053.088h1.65v-.018Zm17.387 6.406-1.348-1.597a.294.294 0 0 0-.213-.089H6.405a3.506 3.506 0 0 0-2.91-1.543c-1.916 0-3.477 1.525-3.477 3.406 0 1.88 1.56 3.406 3.477 3.406a3.505 3.505 0 0 0 2.91-1.543h13.963a.33.33 0 0 0 .213-.089l1.348-1.597a.27.27 0 0 0 0-.354Zm-17.653 1.56a1.293 1.293 0 0 1-.87.303c-.372 0-.674-.09-.87-.284-.194-.178-.3-.462-.318-.834v-.089h.603v.089c.018.213.07.372.177.461.089.089.23.124.444.124.177 0 .32-.053.426-.142a.447.447 0 0 0 .16-.355.458.458 0 0 0-.16-.372.65.65 0 0 0-.338-.142h-.319l-.106.035v-.567l.106.017h.124c.071 0 .125 0 .195-.017a.602.602 0 0 0 .267-.107c.088-.07.124-.16.124-.301 0-.125-.053-.213-.142-.302a.573.573 0 0 0-.39-.124.508.508 0 0 0-.373.142c-.089.088-.142.248-.142.461v.089h-.568v-.089c0-.355.089-.621.284-.816.195-.195.461-.302.816-.302.32 0 .586.089.799.249a.79.79 0 0 1 .319.656.791.791 0 0 1-.32.657c.036.017.054.035.09.053a.874.874 0 0 1 .337.692c-.018.355-.125.62-.355.816ZM17.227 3.229 15.88 1.632a.294.294 0 0 0-.213-.088h-9.28A3.506 3.506 0 0 0 3.477 0C1.561 0 0 1.526 0 3.406c0 1.881 1.561 3.407 3.477 3.407a3.506 3.506 0 0 0 2.91-1.544h9.28c.07 0 .159-.035.212-.088l1.348-1.597a.323.323 0 0 0 0-.355Zm-13.36 1.88h-.602V2.893h-.746v-.497h.09c.194 0 .354-.035.478-.124s.213-.23.284-.408l.018-.071h.479V5.11Z"/></svg>