<svg xmlns="http://www.w3.org/2000/svg" width="17" height="20" fill="none"><path fill="#fff" d="M12.001 0h.142c.114 1.41-.424 2.464-1.078 3.228-.642.757-1.521 1.493-2.943 1.381-.095-1.39.444-2.366 1.098-3.127C9.826.772 10.937.14 12 0Zm4.304 14.68v.04c-.4 1.21-.97 2.247-1.665 3.21-.635.874-1.413 2.05-2.802 2.05-1.2 0-1.998-.772-3.229-.793-1.301-.021-2.017.645-3.207.813h-.406c-.874-.127-1.579-.819-2.093-1.442C1.388 16.715.218 14.335 0 11.29v-.895c.092-2.18 1.151-3.952 2.56-4.811.742-.457 1.764-.846 2.9-.672.488.075.986.242 1.423.407.413.16.93.441 1.42.426.333-.01.663-.182.997-.304.98-.354 1.941-.76 3.208-.57 1.522.23 2.602.907 3.27 1.95-1.288.82-2.306 2.054-2.132 4.163.155 1.915 1.268 3.036 2.66 3.697Z"/></svg>