<svg xmlns="http://www.w3.org/2000/svg" width="225" height="95" fill="none"><g filter="url(#a)"><rect width="213" height="83" x="6" y="2" fill="#fff" fill-opacity=".8" rx="10"/><path fill="#131515" d="M23.235 31v-9.991h3.698c.977 0 1.762.298 2.358.893.6.595.9 1.393.9 2.393 0 1.005-.307 1.8-.921 2.386-.614.586-1.433.88-2.456.88h-2.68v-1.41h2.569c.576 0 1.03-.16 1.36-.481.335-.326.502-.773.502-1.34 0-.567-.167-1.019-.502-1.353-.33-.34-.77-.51-1.319-.51H24.84V31h-1.605Zm10.402.237c-.795 0-1.444-.22-1.946-.663-.502-.446-.754-1.044-.754-1.793 0-.758.282-1.358.845-1.8.567-.442 1.302-.663 2.204-.663.414 0 .803.047 1.165.14.363.088.67.207.921.356v-.454c0-.502-.172-.89-.516-1.165-.34-.279-.781-.418-1.325-.418-.298 0-.554.032-.768.097a2.692 2.692 0 0 0-.572.244c-.167.094-.333.21-.495.35l-.245.209-.907-.914.314-.28a4.5 4.5 0 0 1 .726-.509c.274-.153.574-.274.9-.363a4.52 4.52 0 0 1 1.172-.132c.995 0 1.786.256 2.372.767.591.512.886 1.219.886 2.121V31H36.1v-1.528l.363.558h-.405c-.218.34-.541.626-.97.858-.423.233-.906.35-1.45.35Zm.37-1.207a1.99 1.99 0 0 0 1.472-.607c.405-.41.607-.907.607-1.493v-.028a2.433 2.433 0 0 0-.816-.398 3.318 3.318 0 0 0-.984-.146c-.549 0-.983.119-1.304.356-.321.232-.482.567-.482 1.005 0 .404.137.725.412.962.274.233.64.35 1.095.35Zm5.555.97v-7.284h1.584V31h-1.584Zm.796-8.658a.964.964 0 0 1-.698-.287.952.952 0 0 1-.293-.697c0-.28.098-.51.293-.69a.99.99 0 0 1 .698-.273.945.945 0 0 1 .976.963c0 .27-.093.502-.279.697a.92.92 0 0 1-.697.287ZM43.186 31v-7.284h1.5v1.312l-.182-.175h.224c.144-.4.407-.728.788-.983a2.169 2.169 0 0 1 1.675-.35c.148.024.286.061.411.112l.189.07-.154 1.5-.21-.077a2.488 2.488 0 0 0-.425-.118 1.906 1.906 0 0 0-.405-.049 1.69 1.69 0 0 0-1.304.586c-.35.39-.523.916-.523 1.577V31h-1.584Zm10.718 0-2.317-7.284h1.577l1.34 4.626.216.781h.049l.223-.753 1.438-4.654h1.437l1.437 4.633.23.767h.042l.216-.76 1.347-4.64h1.514L60.323 31H58.85l-1.514-4.716-.209-.74h-.049l-.209.733L55.383 31h-1.48Zm9.941 0v-7.284h1.584V31h-1.584Zm.796-8.658a.964.964 0 0 1-.698-.287.953.953 0 0 1-.293-.697c0-.28.098-.51.293-.69a.99.99 0 0 1 .698-.273.945.945 0 0 1 .977.963c0 .27-.093.502-.28.697a.92.92 0 0 1-.697.287Zm5.556 8.895c-.66 0-1.184-.188-1.57-.565-.386-.377-.58-.912-.58-1.605v-7.29h1.585v7.053c0 .354.074.619.223.796.149.172.377.258.684.258.093 0 .193-.012.3-.035.107-.023.235-.063.383-.119l.224-.09.195 1.255-.251.105c-.168.07-.349.126-.544.167-.191.047-.407.07-.65.07Zm-3.384-6.195v-1.326h4.66v1.326h-4.66ZM73.097 31V20.855h1.577v3.894h.041a2.58 2.58 0 0 1 .97-.907c.423-.238.907-.356 1.451-.356.838 0 1.486.24 1.947.718.465.48.698 1.135.698 1.968V31h-1.584v-4.486c0-.558-.137-.98-.412-1.263-.27-.284-.665-.426-1.186-.426-.549 0-1.007.2-1.374.6-.363.4-.544.872-.544 1.417V31h-1.584Zm16.896-9.775-.914 1.305a.9.9 0 0 1 .46.335c.13.167.196.367.196.6 0 .293-.105.544-.314.753a1.05 1.05 0 0 1-.774.307 1.048 1.048 0 0 1-1.082-1.068c0-.157.03-.318.09-.48.066-.168.187-.38.364-.635l1.144-1.682.83.565Zm-2.644 0-.914 1.305a.9.9 0 0 1 .46.335c.13.167.196.367.196.6a1.064 1.064 0 0 1-1.088 1.06 1.064 1.064 0 0 1-1.09-1.067c0-.158.034-.319.099-.481a3.47 3.47 0 0 1 .355-.635l1.152-1.682.83.565Zm4.253 12.81V23.716h1.528v1.493l-.349-.404h.39a2.63 2.63 0 0 1 1.02-.956c.446-.247.946-.37 1.5-.37.99 0 1.813.356 2.47 1.067.66.707.99 1.642.99 2.805 0 1.158-.337 2.096-1.012 2.812-.67.716-1.483 1.074-2.442 1.074-.572 0-1.076-.114-1.514-.342-.432-.232-.75-.525-.955-.879h-.042v4.019h-1.584Zm3.747-4.151c.655 0 1.188-.235 1.597-.705.414-.474.621-1.086.621-1.835 0-.753-.211-1.36-.635-1.82a2.055 2.055 0 0 0-1.576-.692c-.638 0-1.17.238-1.598.712-.423.47-.635 1.072-.635 1.807 0 .749.207 1.358.62 1.828.415.47.95.705 1.606.705ZM100.677 31V20.855h1.577v3.894h.042c.223-.368.547-.67.97-.907.423-.238.907-.356 1.451-.356.837 0 1.486.24 1.947.718.465.48.697 1.135.697 1.968V31h-1.583v-4.486c0-.558-.138-.98-.412-1.263-.27-.284-.665-.426-1.186-.426-.549 0-1.007.2-1.375.6-.362.4-.544.872-.544 1.417V31h-1.584Zm12.032.237c-1.154 0-2.093-.367-2.819-1.102-.725-.735-1.088-1.658-1.088-2.77 0-1.13.365-2.06 1.095-2.79.735-.731 1.672-1.096 2.812-1.096s2.074.37 2.805 1.11c.735.734 1.102 1.66 1.102 2.776 0 1.107-.363 2.03-1.088 2.77-.726.735-1.665 1.102-2.819 1.102Zm0-1.388c.67 0 1.223-.23 1.661-.69.441-.466.662-1.066.662-1.801 0-.73-.221-1.328-.662-1.793-.442-.465-.996-.698-1.661-.698-.674 0-1.23.233-1.668.698-.437.46-.655 1.058-.655 1.793 0 .735.218 1.335.655 1.8.438.46.994.69 1.668.69ZM118.133 31v-7.284h1.507v1.29l-.195-.243h.244c.233-.382.57-.691 1.012-.928a3.063 3.063 0 0 1 1.458-.356c.842 0 1.496.24 1.961.719.465.479.697 1.137.697 1.974V31h-1.583v-4.486c0-.544-.133-.96-.398-1.25-.261-.287-.668-.432-1.221-.432-.544 0-.998.193-1.361.58-.358.38-.537.853-.537 1.416V31h-1.584Zm11.913.237c-1.121 0-2.032-.36-2.735-1.081-.702-.721-1.053-1.654-1.053-2.798 0-1.098.342-2.019 1.026-2.763.688-.744 1.588-1.116 2.7-1.116 1.06 0 1.916.323 2.567.97.651.646.977 1.458.977 2.435v.837h-6.419v-1.06h4.884v-.008a1.947 1.947 0 0 0-.572-1.318c-.354-.358-.833-.538-1.437-.538-.638 0-1.159.228-1.563.684-.4.451-.6 1.07-.6 1.856 0 .819.218 1.454.656 1.905.441.451 1.004.677 1.688.677.302 0 .567-.038.795-.112.233-.08.447-.188.642-.328.196-.14.417-.363.663-.67l1.061.754c-.293.446-.593.779-.9.998a3.593 3.593 0 0 1-1.019.502c-.372.116-.826.174-1.361.174Zm11.879 0c-1.154 0-2.093-.367-2.819-1.102-.725-.735-1.088-1.658-1.088-2.77 0-1.13.365-2.06 1.095-2.79.735-.731 1.672-1.096 2.812-1.096s2.074.37 2.805 1.11c.735.734 1.102 1.66 1.102 2.776 0 1.107-.363 2.03-1.088 2.77-.726.735-1.666 1.102-2.819 1.102Zm0-1.388c.67 0 1.223-.23 1.66-.69.442-.466.663-1.066.663-1.801 0-.73-.221-1.328-.663-1.793-.441-.465-.995-.698-1.66-.698-.674 0-1.23.233-1.668.698-.437.46-.655 1.058-.655 1.793 0 .735.218 1.335.655 1.8.438.46.994.69 1.668.69ZM147.828 31v-8.03c0-.712.219-1.28.656-1.703.442-.428 1.026-.642 1.751-.642a3.342 3.342 0 0 1 1.13.202l.245.084-.203 1.263-.181-.063a2.214 2.214 0 0 0-.377-.097 1.955 1.955 0 0 0-.411-.042c-.312 0-.561.093-.747.279-.186.181-.279.43-.279.746V31h-1.584Zm4.912 0v-8.03c0-.712.219-1.28.656-1.703.442-.428 1.025-.642 1.751-.642a3.297 3.297 0 0 1 1.13.203l.244.083-.202 1.263-.181-.063a2.238 2.238 0 0 0-.377-.097 1.964 1.964 0 0 0-.412-.042c-.311 0-.56.093-.746.279-.186.181-.279.43-.279.746V31h-1.584Zm-6.21-5.958v-1.326h2.093v1.326h-2.093Zm6.998 0v-1.326h2.596v1.326h-2.596Zm-4.925 0v-1.326h4.925v1.326h-4.925Zm9.251-1.089.907-1.297a.939.939 0 0 1-.468-.335.975.975 0 0 1-.188-.6c0-.293.105-.542.314-.747a1.05 1.05 0 0 1 .774-.314c.307 0 .566.105.775.314.209.205.314.456.314.754 0 .158-.033.32-.098.488a3.617 3.617 0 0 1-.356.628l-1.151 1.681-.823-.572Zm2.644 0 .907-1.297a.937.937 0 0 1-.467-.335.97.97 0 0 1-.189-.6c0-.293.105-.542.314-.747.21-.21.468-.314.775-.314s.565.105.774.314c.209.205.314.456.314.754 0 .158-.032.32-.098.488a3.6 3.6 0 0 1-.355.628l-1.152 1.681-.823-.572ZM168.144 31V20.855h1.577v3.894h.042c.223-.368.546-.67.969-.907.424-.238.907-.356 1.452-.356.837 0 1.486.24 1.946.718.465.48.698 1.135.698 1.968V31h-1.584v-4.486c0-.558-.137-.98-.411-1.263-.27-.284-.666-.426-1.187-.426-.548 0-1.007.2-1.374.6-.363.4-.544.872-.544 1.417V31h-1.584Zm10.797.237c-.796 0-1.445-.22-1.947-.663-.502-.446-.753-1.044-.753-1.793 0-.758.281-1.358.844-1.8.567-.442 1.302-.663 2.204-.663.414 0 .803.047 1.166.14.362.088.669.207.921.356v-.454c0-.502-.173-.89-.517-1.165-.339-.279-.781-.418-1.325-.418-.298 0-.554.032-.768.097a2.7 2.7 0 0 0-.572.244c-.167.094-.332.21-.495.35l-.244.209-.907-.914.314-.28a4.035 4.035 0 0 1 1.625-.872 4.52 4.52 0 0 1 1.172-.132c.996 0 1.786.256 2.372.767.591.512.887 1.219.887 2.121V31h-1.514v-1.528l.362.558h-.404c-.219.34-.542.626-.97.858-.423.233-.907.35-1.451.35Zm.369-1.207a1.99 1.99 0 0 0 1.473-.607c.404-.41.607-.907.607-1.493v-.028a2.442 2.442 0 0 0-.817-.398 3.315 3.315 0 0 0-.984-.146c-.548 0-.983.119-1.304.356-.321.232-.482.567-.482 1.005 0 .404.138.725.412.962.274.233.64.35 1.095.35Zm9.546 1.207a3.046 3.046 0 0 1-1.465-.349 2.812 2.812 0 0 1-1.012-.879h-.39l.349-.411V31h-1.528V20.855h1.583v3.9h.042c.228-.362.558-.665.991-.906.437-.247.935-.37 1.493-.37.972 0 1.789.353 2.449 1.06.66.707.991 1.645.991 2.812 0 1.144-.335 2.08-1.005 2.805-.665.72-1.498 1.081-2.498 1.081Zm-.307-1.353c.647 0 1.179-.233 1.598-.698.419-.47.628-1.081.628-1.835 0-.749-.212-1.356-.635-1.82-.419-.466-.949-.699-1.591-.699-.618 0-1.144.233-1.576.698-.428.465-.642 1.075-.642 1.828 0 .753.209 1.363.628 1.828a2.06 2.06 0 0 0 1.59.698ZM193.941 31v-7.284h1.584V31h-1.584Zm.795-8.658a.963.963 0 0 1-.697-.287.95.95 0 0 1-.293-.697.9.9 0 0 1 .293-.69.99.99 0 0 1 .697-.273.944.944 0 0 1 .977.963c0 .27-.093.502-.279.697a.92.92 0 0 1-.698.287Zm5.556 8.895c-.66 0-1.183-.188-1.569-.565-.386-.377-.58-.912-.58-1.605v-7.29h1.584v7.053c0 .354.075.619.224.796.148.172.376.258.683.258.093 0 .193-.012.3-.035.107-.023.235-.063.384-.119l.223-.09.196 1.255-.252.105c-.167.07-.348.126-.544.167-.19.047-.407.07-.649.07Zm-3.383-6.195v-1.326h4.66v1.326h-4.66Z"/><rect width="104" height="26" x="22" y="43" fill="#131515" fill-opacity=".2" rx="13"/><path fill="#131515" d="M40.719 60v-7.212h1.291V60h-1.29Zm-2.36-6.582v-1.189h6.012v1.189h-6.013ZM44.924 60v-5.752h1.199v1.015l-.125-.13h.163c.116-.315.32-.572.613-.771a1.66 1.66 0 0 1 .966-.304c.123 0 .248.013.374.038.127.022.245.056.353.103l.163.07-.217 1.162-.152-.065a1.68 1.68 0 0 0-.63-.141c-.405 0-.746.152-1.025.456-.275.303-.412.74-.412 1.307V60h-1.27Zm5.104 2.377 1.493-3.088.01.727-2.507-5.768h1.33l1.4 3.527.195.565h.033l.206-.57 1.433-3.522h1.291l-3.587 8.129H50.03Zm10.758-2.193c-.524 0-.939-.146-1.243-.439-.3-.297-.45-.72-.45-1.27v-5.709h1.27v5.568c0 .253.056.445.168.575.112.13.29.196.532.196.08 0 .164-.011.255-.033.094-.022.199-.058.315-.108l.179-.082.26.955-.217.109a2.34 2.34 0 0 1-.477.168c-.174.047-.371.07-.592.07Zm-2.691-4.872v-1.064h3.766v1.064h-3.767ZM63.25 60v-7.982h1.27v3.022h.032c.185-.282.443-.515.776-.7.337-.184.735-.277 1.194-.277.658 0 1.168.183 1.53.548.366.366.548.869.548 1.509V60h-1.27v-3.581c0-.438-.106-.762-.32-.972-.213-.213-.526-.32-.938-.32-.456 0-.829.15-1.118.45-.29.3-.434.66-.434 1.08V60h-1.27Zm6.99 0v-5.752h1.27V60h-1.27Zm.646-6.832a.77.77 0 0 1-.564-.233.762.762 0 0 1-.234-.56c0-.22.078-.403.234-.547a.788.788 0 0 1 .564-.223.74.74 0 0 1 .554.223.74.74 0 0 1 .222.553.775.775 0 0 1-.222.554.723.723 0 0 1-.554.233Zm4.323 7.022c-.409 0-.76-.052-1.053-.157a2.387 2.387 0 0 1-1.264-1.004l-.168-.293.895-.548.136.222c.094.145.21.279.347.402.141.119.304.211.489.276.188.062.401.093.64.093.333 0 .599-.067.798-.201a.62.62 0 0 0 .304-.543.59.59 0 0 0-.288-.526c-.192-.127-.543-.253-1.053-.38-.752-.185-1.277-.416-1.574-.695-.293-.282-.439-.653-.439-1.112 0-.496.204-.897.613-1.205.413-.307.935-.461 1.569-.461.321 0 .607.034.857.103.25.069.476.17.678.304.203.134.364.277.483.429l.185.222-.858.592-.135-.152a1.497 1.497 0 0 0-.315-.266 1.333 1.333 0 0 0-.396-.168 2.067 2.067 0 0 0-.5-.055c-.307 0-.553.062-.738.185-.18.12-.27.267-.27.445 0 .159.07.298.21.418.142.119.547.27 1.216.45.695.18 1.192.412 1.493.695.303.278.455.645.455 1.101 0 .55-.218.993-.656 1.33-.434.332-.988.499-1.66.499Zm7.532-.19-1.84-5.752h1.26l1.03 3.587.196.7h.038l.206-.69 1.091-3.597h1.134l1.107 3.587.201.694h.038l.19-.694 1.036-3.587h1.194L87.793 60h-1.15l-1.161-3.609-.206-.705h-.038l-.201.705L83.897 60h-1.156Zm10.343.184c-.908 0-1.644-.282-2.209-.846-.56-.564-.84-1.3-.84-2.209 0-.857.27-1.582.813-2.176.546-.593 1.277-.89 2.192-.89.84 0 1.516.255 2.03.765.517.51.776 1.156.776 1.938v.684h-5.123v-.858h3.907v-.005a1.532 1.532 0 0 0-.445-1.048c-.275-.285-.656-.428-1.145-.428-.506 0-.924.179-1.253.537-.33.354-.494.845-.494 1.47 0 .655.175 1.155.526 1.498.351.344.8.516 1.346.516a2.1 2.1 0 0 0 .63-.087c.184-.058.356-.138.515-.239.163-.105.346-.271.548-.5l.809.652c-.239.322-.48.565-.722.727-.239.16-.503.282-.792.37-.29.086-.646.13-1.07.13Zm6.74 0c-.907 0-1.644-.282-2.208-.846-.56-.564-.841-1.3-.841-2.209 0-.857.271-1.582.814-2.176.546-.593 1.277-.89 2.192-.89.839 0 1.516.255 2.03.765.517.51.776 1.156.776 1.938v.684h-5.123v-.858h3.907v-.005a1.53 1.53 0 0 0-.445-1.048c-.275-.285-.656-.428-1.145-.428-.506 0-.924.179-1.253.537-.33.354-.494.845-.494 1.47 0 .655.175 1.155.526 1.498.351.344.8.516 1.346.516.235 0 .445-.03.629-.087.185-.058.357-.138.516-.239.163-.105.345-.271.548-.5l.809.652c-.239.322-.48.565-.722.727-.239.16-.503.282-.792.37-.29.086-.646.13-1.07.13Zm4.896-1.573v-1.558l2.714-2.805h1.584l-4.298 4.363ZM103.906 60v-7.982h1.27V60h-1.27Zm3.907 0-2.083-3.115.852-.911L109.311 60h-1.498Z"/></g><defs><filter id="a" width="253" height="123" x="-14" y="-18" color-interpolation-filters="sRGB" filterUnits="userSpaceOnUse"><feFlood flood-opacity="0" result="BackgroundImageFix"/><feColorMatrix in="SourceAlpha" result="hardAlpha" values="0 0 0 0 0 0 0 0 0 0 0 0 0 0 0 0 0 0 127 0"/><feOffset dy="4"/><feGaussianBlur stdDeviation="3"/><feComposite in2="hardAlpha" operator="out"/><feColorMatrix values="0 0 0 0 0 0 0 0 0 0 0 0 0 0 0 0 0 0 0.1 0"/><feBlend in2="BackgroundImageFix" result="effect1_dropShadow_647_130"/><feBlend in="SourceGraphic" in2="effect1_dropShadow_647_130" result="shape"/></filter></defs></svg>