<svg xmlns="http://www.w3.org/2000/svg" width="24" height="24" fill="none"><path fill="#fff" fill-rule="evenodd" d="M.006 11.072v-.303a.92.92 0 0 1 .006-.101C.678 4.667 5.79 0 12 0s11.321 4.667 11.988 10.668a.905.905 0 0 1 .006.101v.302l.005.068.001.139v4.53c0 1.805-1.494 3.269-3.308 3.269-2.562 0-4.671-2.066-4.671-4.616 0-2.549 2.077-4.615 4.639-4.615h1.316c-.992-4.573-5.082-8-9.976-8-4.894 0-8.984 3.427-9.976 8H3.34c2.562 0 4.64 2.066 4.64 4.615 0 2.17-1.528 3.99-3.562 4.483a2.166 2.166 0 0 0 2.015 1.364h2.323a2.784 2.784 0 0 1 2.625-1.846h1.856a2.776 2.776 0 0 1 2.784 2.769A2.776 2.776 0 0 1 13.237 24h-1.856a2.784 2.784 0 0 1-2.625-1.846H6.433a4.017 4.017 0 0 1-3.935-3.177C1.069 18.618 0 17.336 0 15.808v-4.53a3.378 3.378 0 0 1 .006-.206Z" clip-rule="evenodd"/></svg>