<svg xmlns="http://www.w3.org/2000/svg" width="243" height="95" fill="none"><g filter="url(#a)"><foreignObject width="271" height="123" x="-14" y="-18"><div xmlns="http://www.w3.org/1999/xhtml" style="backdrop-filter:blur(10px);clip-path:url(#b);height:100%;width:100%"/></foreignObject><g data-figma-bg-blur-radius="20"><rect width="231" height="83" x="6" y="2" fill="#131515" rx="10"/><path fill="#fff" d="M23.235 31v-9.991h2.072l3.196 7.933h.048l3.196-7.933h2.03V31h-1.556v-5.651l.056-1.912h-.042L29.18 31h-1.325l-3.084-7.577h-.042l.063 1.926V31h-1.556Zm16.216.237c-1.154 0-2.093-.367-2.819-1.102-.725-.735-1.088-1.658-1.088-2.77 0-1.13.365-2.06 1.095-2.79.735-.731 1.672-1.096 2.812-1.096s2.075.37 2.805 1.11c.735.734 1.102 1.66 1.102 2.776 0 1.107-.363 2.03-1.088 2.77-.726.735-1.666 1.102-2.819 1.102Zm0-1.388c.67 0 1.223-.23 1.66-.69.442-.466.663-1.066.663-1.801 0-.73-.22-1.328-.663-1.793-.441-.465-.995-.698-1.66-.698-.674 0-1.23.233-1.668.698-.437.46-.655 1.058-.655 1.793 0 .735.218 1.335.655 1.8.438.46.994.69 1.668.69ZM46.586 31l-2.944-7.284h1.668l1.828 4.849.23.684h.049l.244-.684 1.835-4.849h1.632L48.156 31h-1.57Zm8.635.237c-1.12 0-2.032-.36-2.735-1.081-.702-.721-1.053-1.654-1.053-2.798 0-1.098.342-2.019 1.025-2.763.689-.744 1.589-1.116 2.7-1.116 1.061 0 1.917.323 2.568.97.651.646.977 1.458.977 2.435v.837h-6.419v-1.06h4.884v-.008a1.944 1.944 0 0 0-.572-1.318c-.354-.358-.833-.538-1.438-.538-.637 0-1.158.228-1.562.684-.4.451-.6 1.07-.6 1.856 0 .819.218 1.454.655 1.905.442.451 1.005.677 1.689.677.302 0 .567-.038.795-.112.233-.08.447-.188.642-.328s.416-.363.663-.67l1.06.754c-.293.446-.593.779-.9.998a3.588 3.588 0 0 1-1.018.502c-.372.116-.826.174-1.36.174Zm11.474 0c-1 0-1.835-.358-2.504-1.074-.666-.716-.998-1.647-.998-2.791 0-1.163.332-2.1.998-2.812.665-.711 1.488-1.067 2.47-1.067.553 0 1.046.123 1.478.37.438.241.763.544.977.907h.05v-3.915h1.576V31h-1.528v-1.284l.21.293h-.259a2.716 2.716 0 0 1-1.005.886c-.427.228-.916.342-1.465.342Zm.307-1.346c.637 0 1.165-.23 1.584-.691.423-.465.635-1.075.635-1.828 0-.758-.216-1.367-.649-1.828a2.052 2.052 0 0 0-1.57-.698c-.642 0-1.174.233-1.597.698-.424.465-.635 1.072-.635 1.821 0 .749.209 1.358.627 1.828.42.465.954.698 1.605.698ZM72.715 31v-7.284h1.5v1.312l-.181-.175h.223c.144-.4.407-.728.788-.983a2.169 2.169 0 0 1 1.675-.35c.149.024.286.061.412.112l.188.07-.154 1.5-.209-.077a2.488 2.488 0 0 0-.425-.118 1.906 1.906 0 0 0-.405-.049 1.69 1.69 0 0 0-1.305.586c-.349.39-.523.916-.523 1.577V31h-1.584Zm5.888 0v-7.284h1.584V31h-1.584Zm.796-8.658a.964.964 0 0 1-.698-.287.953.953 0 0 1-.293-.697c0-.28.098-.51.293-.69a.99.99 0 0 1 .698-.273.945.945 0 0 1 .976.963c0 .27-.093.502-.279.697a.92.92 0 0 1-.697.287ZM82.227 31v-7.284h1.507v1.29l-.196-.243h.245a2.58 2.58 0 0 1 1.011-.928 3.06 3.06 0 0 1 1.458-.356c.842 0 1.496.24 1.96.719.466.479.699 1.137.699 1.974V31h-1.584v-4.486c0-.544-.133-.96-.398-1.25-.26-.287-.667-.432-1.22-.432a1.79 1.79 0 0 0-1.361.58c-.358.38-.538.853-.538 1.416V31h-1.583Zm9.513-1.605v-1.94l3.628-3.739h1.995l-5.623 5.68ZM90.812 31V20.855h1.583V31h-1.583Zm4.904 0-2.553-3.88 1.081-1.116L97.621 31h-1.905Zm7.79 0-2.317-7.284h1.577l1.34 4.626.216.781h.049l.223-.753 1.437-4.654h1.438l1.437 4.633.23.767h.042l.216-.76 1.347-4.64h1.514L109.924 31h-1.472l-1.514-4.716-.209-.74h-.049l-.209.733L104.985 31h-1.479Zm11.865.237c-.795 0-1.444-.22-1.946-.663-.503-.446-.754-1.044-.754-1.793 0-.758.282-1.358.844-1.8.568-.442 1.303-.663 2.205-.663.414 0 .803.047 1.165.14.363.088.67.207.921.356v-.454c0-.502-.172-.89-.516-1.165-.34-.279-.781-.418-1.326-.418a2.66 2.66 0 0 0-.767.097 2.678 2.678 0 0 0-.572.244 3.04 3.04 0 0 0-.496.35l-.244.209-.907-.914.314-.28a4.47 4.47 0 0 1 .726-.509c.274-.153.574-.274.9-.363a4.514 4.514 0 0 1 1.172-.132c.995 0 1.786.256 2.372.767.591.512.886 1.219.886 2.121V31h-1.514v-1.528l.363.558h-.405c-.218.34-.542.626-.969.858-.424.233-.907.35-1.452.35Zm.37-1.207c.582 0 1.072-.202 1.472-.607.405-.41.607-.907.607-1.493v-.028a2.427 2.427 0 0 0-.816-.398 3.315 3.315 0 0 0-.984-.146c-.549 0-.984.119-1.304.356-.321.232-.482.567-.482 1.005 0 .404.137.725.412.962.274.233.639.35 1.095.35Zm8.05 1.207c-.66 0-1.184-.188-1.57-.565-.386-.377-.579-.912-.579-1.605v-7.29h1.584v7.053c0 .354.075.619.223.796.149.172.377.258.684.258.093 0 .193-.012.3-.035.107-.023.235-.063.384-.119l.223-.09.195 1.255-.251.105a3.09 3.09 0 0 1-.544.167c-.191.047-.407.07-.649.07Zm-3.384-6.195v-1.326h4.661v1.326h-4.661Zm9.585 6.195c-1.121 0-2.033-.36-2.735-1.081s-1.054-1.654-1.054-2.798c0-1.098.342-2.019 1.026-2.763.688-.744 1.588-1.116 2.7-1.116 1.061 0 1.916.323 2.568.97.651.646.976 1.458.976 2.435v.837h-6.418v-1.06h4.883v-.008a1.938 1.938 0 0 0-.572-1.318c-.353-.358-.832-.538-1.437-.538-.637 0-1.158.228-1.563.684-.4.451-.6 1.07-.6 1.856 0 .819.219 1.454.656 1.905.442.451 1.005.677 1.688.677.303 0 .568-.038.796-.112.232-.08.446-.188.642-.328.195-.14.416-.363.663-.67l1.06.754c-.293.446-.593.779-.9.998a3.593 3.593 0 0 1-1.019.502c-.372.116-.825.174-1.36.174Zm5.025-.237v-7.284h1.5v1.312l-.181-.175h.223c.144-.4.407-.728.788-.983a2.17 2.17 0 0 1 1.675-.35c.149.024.286.061.412.112l.188.07-.154 1.5-.209-.077a2.507 2.507 0 0 0-.425-.118 1.91 1.91 0 0 0-.405-.049c-.516 0-.951.195-1.305.586-.349.39-.523.916-.523 1.577V31h-1.584Zm11.967.237c-.66 0-1.184-.188-1.57-.565-.386-.377-.579-.912-.579-1.605v-7.29h1.584v7.053c0 .354.074.619.223.796.149.172.377.258.684.258.093 0 .193-.012.3-.035.107-.023.235-.063.384-.119l.223-.09.195 1.255-.251.105a3.09 3.09 0 0 1-.544.167c-.191.047-.407.07-.649.07Zm-3.384-6.195v-1.326h4.661v1.326H143.6Zm9.703 6.195c-1.153 0-2.093-.367-2.818-1.102-.726-.735-1.089-1.658-1.089-2.77 0-1.13.365-2.06 1.096-2.79.735-.731 1.672-1.096 2.811-1.096 1.14 0 2.075.37 2.805 1.11.735.734 1.102 1.66 1.102 2.776 0 1.107-.362 2.03-1.088 2.77-.726.735-1.665 1.102-2.819 1.102Zm0-1.388c.67 0 1.224-.23 1.661-.69.442-.466.663-1.066.663-1.801 0-.73-.221-1.328-.663-1.793-.442-.465-.995-.698-1.661-.698-.674 0-1.23.233-1.667.698-.437.46-.656 1.058-.656 1.793 0 .735.219 1.335.656 1.8.437.46.993.69 1.667.69ZM163.97 31v-7.85l-1.752 1.285-.844-1.159 3.147-2.267h1.053V31h-1.604Zm5.655 0v-7.85l-1.752 1.285-.844-1.159 3.147-2.267h1.053V31h-1.604Zm4.755-6.51c-.307 0-.57-.106-.789-.32a1.072 1.072 0 0 1-.321-.789c0-.307.107-.565.321-.774.219-.214.482-.321.789-.321.316 0 .579.107.788.32.214.21.321.468.321.775 0 .312-.107.575-.321.789a1.06 1.06 0 0 1-.788.32Zm0 5.22a1.09 1.09 0 0 1-.789-.322 1.071 1.071 0 0 1-.321-.788c0-.302.107-.558.321-.768.219-.213.482-.32.789-.32.316 0 .579.107.788.32.214.21.321.466.321.768 0 .312-.107.574-.321.788a1.056 1.056 0 0 1-.788.321Zm6.626 1.527c-1.219 0-2.195-.481-2.93-1.444-.731-.967-1.096-2.233-1.096-3.796 0-1.558.365-2.818 1.096-3.781.735-.963 1.711-1.444 2.93-1.444 1.223 0 2.202.481 2.937 1.444.735.963 1.103 2.223 1.103 3.781 0 1.563-.368 2.829-1.103 3.796-.735.963-1.714 1.444-2.937 1.444Zm.007-1.507c.781 0 1.377-.337 1.786-1.012.409-.679.614-1.586.614-2.72 0-1.135-.205-2.038-.614-2.707-.409-.675-1.005-1.012-1.786-1.012-.781 0-1.377.337-1.786 1.012-.405.67-.607 1.572-.607 2.706 0 1.135.202 2.042.607 2.721.409.675 1.005 1.012 1.786 1.012Zm9.396 1.507c-1.219 0-2.196-.481-2.931-1.444-.73-.967-1.095-2.233-1.095-3.796 0-1.558.365-2.818 1.095-3.781.735-.963 1.712-1.444 2.931-1.444 1.223 0 2.202.481 2.937 1.444.735.963 1.102 2.223 1.102 3.781 0 1.563-.367 2.829-1.102 3.796-.735.963-1.714 1.444-2.937 1.444Zm.007-1.507c.781 0 1.376-.337 1.786-1.012.409-.679.614-1.586.614-2.72 0-1.135-.205-2.038-.614-2.707-.41-.675-1.005-1.012-1.786-1.012-.782 0-1.377.337-1.787 1.012-.404.67-.607 1.572-.607 2.706 0 1.135.203 2.042.607 2.721.41.675 1.005 1.012 1.787 1.012Zm9.097 4.305V23.716h1.528v1.493l-.349-.404h.391c.232-.391.572-.71 1.018-.956a3.05 3.05 0 0 1 1.501-.37c.99 0 1.814.356 2.469 1.067.661.707.991 1.642.991 2.805 0 1.158-.337 2.096-1.012 2.812-.669.716-1.483 1.074-2.441 1.074-.573 0-1.077-.114-1.514-.342-.433-.232-.752-.525-.956-.879h-.042v4.019h-1.584Zm3.747-4.151c.656 0 1.188-.235 1.597-.705.414-.474.621-1.086.621-1.835 0-.753-.211-1.36-.635-1.82a2.053 2.053 0 0 0-1.576-.692c-.638 0-1.17.238-1.598.712-.423.47-.635 1.072-.635 1.807 0 .749.207 1.358.621 1.828.414.47.949.705 1.605.705ZM208.589 31v-7.284h1.507v1.228l-.133-.181h.181c.219-.377.542-.684.97-.921a2.804 2.804 0 0 1 1.389-.363c.548 0 1.021.123 1.416.37.4.246.686.597.858 1.053.261-.451.614-.8 1.061-1.046a2.974 2.974 0 0 1 1.486-.377c.837 0 1.474.242 1.911.725.438.48.656 1.15.656 2.01V31h-1.57v-4.472c0-.572-.128-.998-.383-1.277-.252-.28-.631-.419-1.138-.419-.493 0-.911.191-1.255.572-.345.382-.517.863-.517 1.445V31h-1.577v-4.472c0-.577-.13-1.005-.39-1.284-.256-.28-.633-.419-1.131-.419-.488 0-.904.198-1.248.593-.34.391-.51.86-.51 1.41V31h-1.583Z"/><rect width="65" height="26" x="22" y="43" fill="#43D020" fill-opacity=".2" rx="13"/><path fill="#43D020" d="m38.244 60 3.104-7.77h1.395L45.836 60h-1.612l-1.84-4.911-.341-1.015h-.038l-.326 1.015L39.84 60h-1.595Zm1.411-1.6.423-1.227h3.837l.445 1.226h-4.705Zm7.246 3.977v-8.135h1.449v1.21l-.326-.363h.364c.184-.3.45-.548.798-.743a2.404 2.404 0 0 1 1.199-.293c.774 0 1.422.278 1.943.835.524.557.786 1.3.786 2.23 0 .927-.27 1.67-.814 2.23-.539.562-1.18.842-1.926.842-.467 0-.868-.092-1.205-.277-.336-.188-.584-.414-.743-.678h-.038v3.142H46.9Zm3.077-3.43c.5 0 .895-.17 1.188-.51.297-.34.445-.783.445-1.33 0-.546-.152-.985-.456-1.318-.303-.333-.694-.5-1.172-.5-.488 0-.884.174-1.188.522-.304.343-.456.78-.456 1.307 0 .543.147.984.44 1.325.293.336.692.504 1.199.504Zm4.395 3.43v-8.135h1.449v1.21l-.326-.363h.364c.184-.3.45-.548.798-.743a2.404 2.404 0 0 1 1.199-.293c.774 0 1.422.278 1.943.835.524.557.786 1.3.786 2.23 0 .927-.27 1.67-.813 2.23-.54.562-1.182.842-1.927.842-.467 0-.868-.092-1.205-.277-.336-.188-.584-.414-.743-.678h-.038v3.142h-1.487Zm3.077-3.43c.5 0 .895-.17 1.188-.51.297-.34.445-.783.445-1.33 0-.546-.152-.985-.456-1.318-.303-.333-.694-.5-1.172-.5-.488 0-.884.174-1.188.522-.304.343-.456.78-.456 1.307 0 .543.147.984.44 1.325.293.336.692.504 1.199.504ZM61.845 60v-7.982h1.487V60h-1.487Zm3.403 2.382 1.525-3.12.005.754-2.517-5.773h1.535l1.297 3.293.206.603h.033l.228-.608 1.33-3.288h1.492l-3.625 8.14h-1.509Z"/></g></g><defs><clipPath id="b" transform="translate(14 18)"><rect width="231" height="83" x="6" y="2" rx="10"/></clipPath><filter id="a" width="243" height="95" x="0" y="0" color-interpolation-filters="sRGB" filterUnits="userSpaceOnUse"><feFlood flood-opacity="0" result="BackgroundImageFix"/><feColorMatrix in="SourceAlpha" result="hardAlpha" values="0 0 0 0 0 0 0 0 0 0 0 0 0 0 0 0 0 0 127 0"/><feOffset dy="4"/><feGaussianBlur stdDeviation="3"/><feComposite in2="hardAlpha" operator="out"/><feColorMatrix values="0 0 0 0 0 0 0 0 0 0 0 0 0 0 0 0 0 0 0.1 0"/><feBlend in2="BackgroundImageFix" result="effect1_dropShadow_647_125"/><feBlend in="SourceGraphic" in2="effect1_dropShadow_647_125" result="shape"/></filter></defs></svg>