<svg xmlns="http://www.w3.org/2000/svg" width="15" height="20" fill="none"><path fill="#fff" d="M7.13 3.12a5.15 5.15 0 0 0-5.145 5.144c0 1.284.622 2.533 1.224 3.742.571 1.147 1.11 2.23 1.11 3.264 0 .261.213.474.475.474h4.67a.474.474 0 0 0 .474-.474c0-1.079.546-2.166 1.124-3.318.596-1.186 1.211-2.412 1.211-3.688A5.15 5.15 0 0 0 7.13 3.12Zm5.74 2.137a.4.4 0 0 0 .2-.054l.988-.57a.401.401 0 0 0-.4-.695l-.99.57a.4.4 0 0 0 .201.749Zm1.188 6.451-.989-.571a.401.401 0 0 0-.4.694l.988.571a.398.398 0 0 0 .548-.147.401.401 0 0 0-.147-.547ZM1.19 11.137l-.99.57a.401.401 0 0 0 .401.695l.99-.57a.4.4 0 1 0-.401-.695Zm.4-6.627-.989-.571a.401.401 0 0 0-.4.694l.989.571a.4.4 0 0 0 .547-.147.401.401 0 0 0-.146-.547Zm5.54-2.566a.4.4 0 0 0 .4-.401V.4a.4.4 0 1 0-.801 0v1.142a.4.4 0 0 0 .4.4ZM9.474 16.96a.52.52 0 0 0-.308-.474H5.093a.52.52 0 0 0 0 .948.52.52 0 0 0 0 .949.52.52 0 0 0 .212.993h.112c.162.368.53.624.957.624h1.512c.427 0 .794-.256.956-.624h.113a.52.52 0 0 0 .211-.993.52.52 0 0 0 0-.948.52.52 0 0 0 .308-.475Z"/></svg>