<svg xmlns="http://www.w3.org/2000/svg" width="20" height="20" fill="none"><path fill="#fff" d="M8.242 7.656a.586.586 0 0 0-.586.586h1.172a.586.586 0 0 0-.586-.586Zm10-6.484h-.625V.586a.586.586 0 1 0-1.172 0v.586h-2.343V.586a.586.586 0 1 0-1.172 0v.586h-2.344V.586a.586.586 0 1 0-1.172 0v.586H7.07V.586a.586.586 0 1 0-1.172 0v.586H3.555V.586a.586.586 0 1 0-1.172 0v.586h-.625A1.76 1.76 0 0 0 0 2.93v.586h20V2.93a1.76 1.76 0 0 0-1.758-1.758Z"/><path fill="#fff" d="M0 18.242C0 19.212.789 20 1.758 20h16.484A1.76 1.76 0 0 0 20 18.242V4.687H0v13.555Zm14.102-4.14a.586.586 0 1 1 1.171 0v2.343a.586.586 0 0 0 1.172 0v-2.343a.586.586 0 1 1 1.172 0v2.343a1.76 1.76 0 0 1-1.758 1.758 1.76 1.76 0 0 1-1.757-1.758v-2.343Zm-.586 0a.586.586 0 0 1-.586.585h-1.465a.294.294 0 0 0 0 .586h.586a1.466 1.466 0 0 1 0 2.93h-1.465a.586.586 0 1 1 0-1.172h1.465a.294.294 0 0 0 0-.586h-.586a1.466 1.466 0 0 1 0-2.929h1.465c.324 0 .586.262.586.586Zm-.806-5.146a.587.587 0 0 1 .091.824l-4.687 5.86a.587.587 0 0 1-.916-.733l4.688-5.86a.588.588 0 0 1 .824-.09Zm-6.226-.714c0-.97.789-1.758 1.758-1.758.97 0 1.758.789 1.758 1.758v2.344a.586.586 0 1 1-1.172 0V9.414H7.656v1.172a.586.586 0 1 1-1.172 0V8.242Zm-2.05 1.172h-.586A1.466 1.466 0 0 1 2.383 7.95c0-.808.657-1.465 1.465-1.465h1.465a.586.586 0 1 1 0 1.172H3.848a.294.294 0 0 0 0 .586h.586a1.466 1.466 0 0 1 0 2.93H2.969a.586.586 0 1 1 0-1.172h1.465a.294.294 0 0 0 0-.586Z"/></svg>