<svg xmlns="http://www.w3.org/2000/svg" width="24" height="24" fill="none"><path fill="#fff" d="M18.928 6.952c.141.781.398 2.67.026 4.636-.18.955-.487 1.812-.912 2.548-1.231 2.133-3.53 3.407-4.939 4.023.241-.325.512-.72.784-1.17a12.338 12.338 0 0 0 1.285-2.875 8.467 8.467 0 0 0 .353-2.354c0-.937-.18-1.84-.447-2.662 1.471-1.208 3.132-1.887 3.85-2.146ZM12 5.097c.736.873 2.824 3.615 2.824 6.663 0 3.047-2.088 5.79-2.825 6.663-.737-.871-2.824-3.61-2.824-6.663 0-3.048 2.088-5.79 2.825-6.663ZM5.07 6.953c.719.258 2.38.937 3.85 2.145-.266.822-.447 1.725-.447 2.662 0 2.08.89 3.992 1.638 5.23.272.45.543.843.784 1.169-1.41-.617-3.708-1.891-4.94-4.023-.424-.736-.731-1.593-.911-2.548-.37-1.961-.115-3.854.026-4.635Zm-.713 10.85C1.718 16.278.388 13.097 0 12.023c.751-.135 2.527-.377 4.404-.067.2.938.517 1.788.946 2.53.818 1.417 2.202 2.694 4 3.691.471.261.915.472 1.296.638-1.53.17-4.163.214-6.288-1.014Zm15.283 0c-2.125 1.227-4.757 1.182-6.288 1.013.382-.166.825-.377 1.296-.638 1.799-.997 3.182-2.274 4-3.691a8.644 8.644 0 0 0 .946-2.53c1.877-.31 3.654-.068 4.405.067-.386 1.074-1.715 4.252-4.359 5.778Z"/></svg>