<svg xmlns="http://www.w3.org/2000/svg" width="24" height="24" fill="none"><path fill="#fff" d="M1.582 20.493c3.465-.673 7.094.143 9.918 2.26V4.025a13.544 13.544 0 0 0-9.706-2.081c-.356.047-.787.094-.794.555V20c-.007.3.287.55.582.493ZM22.7 1.64c-.714-.944-1.966-.788-2.631.128l-5.936 6.391a.5.5 0 0 0-.118.22l-.5 2c-.1.35.255.706.606.605l2-.5a.5.5 0 0 0 .245-.144l6.221-6.7c.492-.494.547-1.433.114-2Z"/><path fill="#fff" d="m16.364 11.455-1.996.5a1.5 1.5 0 0 1-1.824-1.818l.5-2a1.51 1.51 0 0 1 .356-.657l5.231-5.634A13.533 13.533 0 0 0 12.5 4.038v18.715a12.54 12.54 0 0 1 9.541-2.322l.377.063A.505.505 0 0 0 23 20V4.667l-5.902 6.355a1.495 1.495 0 0 1-.734.433Z"/></svg>