<svg xmlns="http://www.w3.org/2000/svg" width="14" height="16" fill="none"><path stroke="#494D4D" stroke-linecap="round" stroke-width="1.116" d="M12.465 2.791v4.093"/><path fill="#494D4D" stroke="#494D4D" stroke-width=".744" d="M12.651 14.325v.744h-.372v-.744h.372Zm-11.907 0v.744H.372v-.744h.372Zm8.583-4.05c1.79.622 3.107 1.836 3.299 3.306h-.376c-.191-1.251-1.336-2.357-3.027-2.948l.104-.358Zm-5.527.358C2.11 11.223.965 12.33.773 13.58H.396c.192-1.47 1.51-2.684 3.3-3.306l.104.358Zm2.78 1.16.275.272a.931.931 0 0 1-.689 0l.077-.076.001.001.235-.233a.538.538 0 0 0 .064 0l.037.037Zm1.38-1v.002l.133.13-.658.667-.166-.164-.1-.099.66-.666.132.13Zm-2.107.537-.265.26-.66-.665.265-.262.66.667ZM4.43 10.14c.063.01.124.027.183.05l-.13.13-.053-.18Zm4.108.18-.13-.13a.868.868 0 0 1 .183-.05l-.053.18ZM3.75 6.14a2.787 2.787 0 0 0 2.39 2.391v.377A3.162 3.162 0 0 1 3.372 6.14h.377Zm5.903 0a3.163 3.163 0 0 1-2.768 2.768V8.53a2.787 2.787 0 0 0 2.391-2.39h.377Zm.023-.743h-.372V4.97l.372-.14v.566ZM3.72 4.97v.426h-.372V4.83l.372.139Zm2.24-.353.006.014.146.391-.015.044-1.633-.612v-.397l1.497.56Zm2.598-.163-1.634.612-.017-.044.148-.391.004-.013 1.499-.562v.398ZM2.604 3.358v.398l-.986-.37.53-.199.456.171Zm8.8.029-.985.369v-.398l.455-.17.53.199ZM1.088 2.79l-.116.044-.017-.044.017-.044.116.044Zm10.98 0-.017.044-.116-.044.116-.044.016.044ZM6.112.558 5.967.95l-.005.013-3.816 1.43-.529-.199 4.48-1.68.016.044Zm5.292 1.636-.53.199L7.06.962 7.056.95 6.908.56l.017-.045 4.48 1.68Z"/></svg>